<svg width="168" height="28" viewBox="0 0 168 28" fill="none" xmlns="http://www.w3.org/2000/svg">
<path d="M28.3014 2.19507C30.1221 2.19507 31.4623 3.27433 31.4623 5.06264V5.5876C31.4623 6.70023 30.8918 7.40828 30.29 7.68441C31.0769 7.98786 31.7243 8.77985 31.7243 10.0897V10.7067C31.7243 12.6184 30.3214 13.7291 28.2549 13.7291H25.0475C24.7541 13.7291 24.5852 13.5591 24.5852 13.2668V2.65732C24.5852 2.34881 24.7541 2.19507 25.0475 2.19507H28.3014ZM26.42 7.02189H27.9929C28.9032 7.02189 29.5961 6.61729 29.5961 5.6058V5.32562C29.5961 4.32324 28.9022 3.87515 27.9777 3.87515H26.42V7.02189ZM26.42 12.048H28.0384C29.1177 12.048 29.8591 11.5554 29.8591 10.5065V10.1363C29.8591 9.08734 29.1652 8.59475 28.0698 8.59475H26.42V12.048Z" fill="#FEF5E4"/>
<path d="M35.1939 3.13551C35.1938 3.26839 35.1673 3.39993 35.1159 3.52248C35.0645 3.64503 34.9893 3.75616 34.8947 3.84942C34.8 3.94267 34.6877 4.01619 34.5644 4.06571C34.4411 4.11524 34.3092 4.13977 34.1763 4.1379C34.0442 4.14038 33.9128 4.11613 33.7903 4.06659C33.6677 4.01706 33.5564 3.94327 33.4631 3.84965C33.3697 3.75602 33.2963 3.64451 33.2471 3.52179C33.198 3.39907 33.1741 3.26768 33.177 3.13551C33.177 2.86725 33.2836 2.60997 33.4732 2.42028C33.6629 2.23059 33.9202 2.12402 34.1885 2.12402C34.4567 2.12402 34.714 2.23059 34.9037 2.42028C35.0934 2.60997 35.2 2.86725 35.2 3.13551H35.1939ZM35.0401 13.2666C35.0401 13.5589 34.8854 13.7288 34.5779 13.7288H33.7758C33.4825 13.7288 33.3125 13.5589 33.3125 13.2666V6.28124C33.3125 5.98791 33.4825 5.81798 33.7758 5.81798H34.5779C34.8702 5.81798 35.0401 5.97273 35.0401 6.28124V13.2666Z" fill="#FEF5E4"/>
<path d="M42.8872 6.80525C42.8872 7.1087 42.7173 7.2675 42.4239 7.2675H42.0699C42.2511 7.58272 42.3515 7.93784 42.3622 8.30125V8.91825C42.3622 10.4911 41.2496 11.539 39.5402 11.539C39.2233 11.544 38.9071 11.5079 38.5995 11.4318C38.5174 11.5774 38.4748 11.742 38.4761 11.9092C38.4761 12.326 38.7694 12.5262 39.4481 12.5262H39.88C41.375 12.5262 42.6242 13.297 42.6242 14.793V15.2866C42.6242 16.7512 41.4104 17.6454 39.5715 17.6454C37.7205 17.6454 36.5027 16.7512 36.5027 15.2866V14.9315C36.5036 14.5995 36.5857 14.2727 36.7419 13.9797C36.8981 13.6866 37.1237 13.4363 37.3989 13.2505C37.2393 13.0965 37.1122 12.9121 37.0254 12.7081C36.9385 12.5041 36.8935 12.2847 36.8931 12.063C36.8831 11.5858 37.0414 11.1202 37.3402 10.748C36.8628 10.301 36.6008 9.66878 36.6008 8.9132V8.29619C36.6008 6.70815 37.7569 5.67441 39.438 5.67441C39.7366 5.67192 40.0336 5.71875 40.317 5.81298H42.429C42.7223 5.81298 42.8923 5.98291 42.8923 6.27625L42.8872 6.80525ZM39.2458 13.9292C38.6905 13.9757 38.2283 14.2842 38.2283 14.9164V15.2097C38.2283 15.8419 38.7826 16.2121 39.5695 16.2121C40.3403 16.2121 40.8956 15.8419 40.8956 15.2097V14.9012C40.8956 14.269 40.3403 13.9292 39.6464 13.9292H39.2458ZM40.6336 8.36598C40.6336 7.59523 40.2482 7.11679 39.4765 7.11679C38.7047 7.11679 38.3203 7.59523 38.3203 8.36598V8.85959C38.3203 9.63034 38.7057 10.1088 39.4765 10.1088C40.2472 10.1088 40.6336 9.63034 40.6336 8.85959V8.36598Z" fill="#FEF5E4"/>
<path d="M50.5055 2.19507C52.3262 2.19507 53.6675 3.27433 53.6675 5.06264V5.5876C53.6675 6.70023 53.097 7.40828 52.4951 7.68441C53.2821 7.98786 53.9294 8.77985 53.9294 10.0897V10.7067C53.9294 12.6184 52.5265 13.7291 50.46 13.7291H47.2526C46.9592 13.7291 46.7893 13.5591 46.7893 13.2668V2.65732C46.7893 2.34881 46.9592 2.19507 47.2526 2.19507H50.5055ZM48.6252 7.02189H50.198C51.1084 7.02189 51.8013 6.61729 51.8013 5.6058V5.32562C51.8013 4.32324 51.1074 3.87515 50.1829 3.87515H48.6252V7.02189ZM48.6252 12.048H50.2436C51.3228 12.048 52.0642 11.5554 52.0642 10.5065V10.1363C52.0632 9.08734 51.3693 8.59778 50.2709 8.59778H48.6252V12.048Z" fill="#FEF5E4"/>
<path d="M59.1416 6.21961V6.97924C59.1416 7.28774 59.0951 7.44149 59.0182 7.44149H58.8797C58.1241 7.44149 57.2754 8.21224 57.2754 9.29251V13.2707C57.2754 13.5795 57.1214 13.7336 56.8132 13.733H56.0111C55.7177 13.733 55.5488 13.563 55.5488 13.2707V6.28131C55.5488 5.98798 55.7177 5.81805 56.0111 5.81805H56.7191C57.0125 5.81805 57.1824 5.97281 57.1824 6.28131V6.75873C57.4292 6.28131 58.1231 5.75635 58.8625 5.75635C58.8685 5.75635 59.1416 5.92628 59.1416 6.21961Z" fill="#FEF5E4"/>
<path d="M66.1107 8.68684V10.8615C66.1107 12.6964 64.9081 13.8839 63.0581 13.8839C61.2081 13.8839 60.0044 12.6964 60.0044 10.8615V8.68684C60.0044 6.852 61.2071 5.67969 63.0581 5.67969C64.9091 5.67969 66.1107 6.852 66.1107 8.68684ZM61.7472 8.76371V10.7998C61.7472 11.7709 62.2408 12.3879 63.0733 12.3879C63.9057 12.3879 64.3882 11.7709 64.3882 10.7998V8.76371C64.3882 7.80786 63.9098 7.17568 63.0733 7.17568C62.2368 7.17568 61.7472 7.80786 61.7472 8.76371Z" fill="#FEF5E4"/>
<path d="M69.8432 11.1264C69.8432 11.9892 70.0738 12.3139 70.6604 12.3139C70.7326 12.3166 70.8049 12.3111 70.8759 12.2977C71.1996 12.2674 71.3695 12.3756 71.3695 12.6831V13.2698C71.3695 13.5469 71.2461 13.732 70.9841 13.7937C70.7252 13.847 70.4615 13.8727 70.1972 13.8706C68.9176 13.8706 68.1004 13.1919 68.1155 11.6504L68.1307 7.27063H67.4662C67.1728 7.27063 67.0039 7.10171 67.0039 6.80838V6.2814C67.0039 5.97289 67.1728 5.81814 67.4662 5.81814H68.1287L68.1449 3.59286C68.1449 3.2847 68.299 3.13062 68.6071 3.13062H69.4244C69.7177 3.13062 69.8866 3.29953 69.8866 3.59286L69.8715 5.81814H70.9204C71.2127 5.81814 71.3826 5.97289 71.3826 6.2814V6.80535C71.3826 7.09868 71.2289 7.2676 70.9204 7.2676H69.8583L69.8432 11.1264Z" fill="#FEF5E4"/>
<path d="M74.3766 6.55839C74.6073 6.14166 75.1626 5.67941 76.1346 5.67941C77.5992 5.67941 78.4782 6.6818 78.4782 8.43976V13.2666C78.4782 13.5589 78.3235 13.7288 78.015 13.7288H77.1987C76.9054 13.7288 76.7354 13.5589 76.7354 13.2666V8.77962C76.7354 7.91581 76.3652 7.34533 75.5945 7.34533C74.8864 7.34533 74.3807 7.94615 74.3807 8.79479V13.2666C74.3807 13.5589 74.2259 13.7288 73.9174 13.7288H73.1163C72.823 13.7288 72.6531 13.5589 72.6531 13.2666V2.39511C72.6531 2.08661 72.823 1.93286 73.1163 1.93286H73.9174C74.2108 1.93286 74.3807 2.08661 74.3807 2.39511L74.3766 6.55839Z" fill="#FEF5E4"/>
<path d="M81.6543 10.9532C81.6543 11.8322 82.1014 12.3875 82.857 12.3875C83.5053 12.3875 83.8907 12.1093 84.0141 11.5854C84.091 11.3082 84.2164 11.1535 84.5077 11.1535H85.3088C85.6173 11.1535 85.8024 11.3386 85.7407 11.6471C85.4787 13.0197 84.4612 13.8835 82.8883 13.8835C81.0838 13.8835 79.9277 12.7263 79.9277 10.8612V8.69859C79.9277 6.84858 81.0404 5.67627 82.8883 5.67627C84.709 5.67627 85.8216 6.87893 85.8216 8.79165V9.92047C85.8216 10.2128 85.6679 10.3827 85.3594 10.3827H81.6543V10.9532ZM81.6543 8.62678V9.04351H84.0758V8.62476C84.0758 7.71442 83.6904 7.17529 82.8732 7.17529C82.1014 7.17529 81.6543 7.7306 81.6543 8.62476V8.62678Z" fill="#FEF5E4"/>
<path d="M90.9227 6.21961V6.97924C90.9227 7.28774 90.8762 7.44149 90.7993 7.44149H90.6598C89.9042 7.44149 89.0565 8.21224 89.0565 9.29251V13.2707C89.0565 13.5792 88.9018 13.7329 88.5943 13.7329H87.7972C87.5039 13.7329 87.334 13.563 87.334 13.2707V6.28131C87.334 5.98798 87.5039 5.81805 87.7972 5.81805H88.5053C88.7986 5.81805 88.9675 5.97281 88.9675 6.28131V6.75873C89.2143 6.28131 89.9082 5.75635 90.6486 5.75635C90.6446 5.75635 90.9227 5.92628 90.9227 6.21961Z" fill="#FEF5E4"/>
<path d="M97.1362 7.80786C97.1827 8.1113 97.0128 8.28629 96.7043 8.28629H95.9649C95.6716 8.28629 95.5482 8.1467 95.4591 7.86956C95.4068 7.66588 95.2866 7.48614 95.1183 7.35999C94.9501 7.23384 94.7438 7.16883 94.5336 7.17568C93.9166 7.17568 93.6081 7.43765 93.6081 8.0233C93.6081 8.68684 94.1938 8.79507 95.0424 9.04187C96.4423 9.42725 97.3051 9.96637 97.3051 11.3855C97.3051 12.927 96.3179 13.8839 94.6216 13.8839C93.0649 13.8839 92.0312 12.9735 91.8309 11.7092C91.7692 11.4007 91.9543 11.2307 92.2628 11.2307H93.0184C93.2956 11.2307 93.423 11.3703 93.512 11.6475C93.6658 12.1097 94.0825 12.3879 94.6247 12.3879C95.1951 12.3879 95.6422 12.1097 95.6422 11.4937C95.6422 10.8302 95.1952 10.6299 94.3475 10.3983C92.8515 9.98255 91.9574 9.53446 91.9574 8.05466C91.9574 6.59003 92.8677 5.67969 94.5943 5.67969C96.0569 5.67969 96.9359 6.55867 97.1362 7.80786Z" fill="#FEF5E4"/>
<path d="M105.371 2.19507C107.191 2.19507 108.532 3.27433 108.532 5.06264V5.5876C108.532 6.70023 107.961 7.40828 107.36 7.68441C108.146 7.98786 108.794 8.77985 108.794 10.0897V10.7067C108.794 12.6184 107.391 13.7291 105.324 13.7291H102.117C101.824 13.7291 101.655 13.5591 101.655 13.2668V2.65732C101.655 2.34881 101.824 2.19507 102.117 2.19507H105.371ZM103.489 7.02189H105.062C105.973 7.02189 106.666 6.61729 106.666 5.6058V5.32562C106.666 4.32324 105.973 3.87515 105.048 3.87515H103.49L103.489 7.02189ZM103.489 12.048H105.108C106.187 12.048 106.928 11.5554 106.928 10.5065V10.1363C106.928 9.08734 106.235 8.59475 105.139 8.59475H103.489V12.048Z" fill="#FEF5E4"/>
<path d="M112.264 3.13551C112.264 3.26844 112.237 3.4 112.186 3.52256C112.134 3.64512 112.059 3.75624 111.964 3.84948C111.869 3.94272 111.757 4.01622 111.634 4.06573C111.51 4.11524 111.378 4.13977 111.245 4.1379C111.113 4.14066 110.982 4.11661 110.859 4.0672C110.736 4.01779 110.624 3.94404 110.531 3.85039C110.437 3.75674 110.364 3.64513 110.314 3.52227C110.265 3.39941 110.241 3.26785 110.244 3.13551C110.244 2.86725 110.351 2.60997 110.54 2.42028C110.73 2.23059 110.987 2.12402 111.256 2.12402C111.524 2.12402 111.781 2.23059 111.971 2.42028C112.161 2.60997 112.267 2.86725 112.267 3.13551H112.264ZM112.109 13.2666C112.109 13.5589 111.956 13.7288 111.647 13.7288H110.845C110.552 13.7288 110.383 13.5589 110.383 13.2666V6.28124C110.383 5.98791 110.552 5.81798 110.845 5.81798H111.647C111.94 5.81798 112.109 5.97273 112.109 6.28124V13.2666Z" fill="#FEF5E4"/>
<path d="M119.962 6.80523C119.962 7.10868 119.792 7.26748 119.499 7.26748H119.145C119.327 7.58243 119.428 7.93766 119.438 8.30122V8.91823C119.438 10.4911 118.326 11.539 116.616 11.539C116.3 11.5441 115.983 11.508 115.676 11.4318C115.593 11.5772 115.55 11.7419 115.552 11.9092C115.552 12.3259 115.845 12.5262 116.523 12.5262H116.955C118.451 12.5262 119.7 13.297 119.7 14.7929V15.2866C119.7 16.7512 118.487 17.6453 116.647 17.6453C114.797 17.6453 113.578 16.7512 113.578 15.2866V14.9315C113.579 14.5997 113.661 14.2731 113.817 13.9803C113.973 13.6875 114.198 13.4372 114.473 13.2514C114.313 13.0975 114.187 12.913 114.1 12.709C114.013 12.505 113.968 12.2857 113.967 12.064C113.957 11.5865 114.116 11.1207 114.415 10.749C113.937 10.3019 113.675 9.66976 113.675 8.91418V8.29717C113.675 6.70914 114.831 5.6754 116.507 5.6754C116.806 5.67275 117.103 5.71957 117.386 5.81397H119.498C119.791 5.81397 119.961 5.9839 119.961 6.27723L119.962 6.80523ZM116.321 13.9291C115.766 13.9757 115.303 14.2842 115.303 14.9163V15.2097C115.303 15.8419 115.859 16.2121 116.645 16.2121C117.415 16.2121 117.971 15.8419 117.971 15.2097V14.9012C117.971 14.269 117.415 13.9291 116.722 13.9291H116.321ZM117.709 8.36596C117.709 7.5952 117.323 7.11677 116.553 7.11677C115.782 7.11677 115.396 7.5952 115.396 8.36596V8.85956C115.396 9.63032 115.781 10.1087 116.553 10.1087C117.324 10.1087 117.709 9.63032 117.709 8.85956V8.36596Z" fill="#FEF5E4"/>
<path d="M130.398 4.90873C130.428 5.21218 130.258 5.38717 129.95 5.38717H128.994C128.717 5.38717 128.578 5.23241 128.516 4.93908C128.362 4.16833 127.853 3.72529 127.082 3.72529C126.11 3.72529 125.601 4.33219 125.601 5.26781C125.601 6.30054 126.25 6.65557 127.452 7.0713C129.441 7.76518 130.705 8.56729 130.705 10.5569C130.705 12.8388 129.149 13.8877 127.144 13.8877C125.139 13.8877 123.751 12.7923 123.503 10.8037C123.472 10.5002 123.641 10.3253 123.95 10.3253H124.905C125.184 10.3253 125.322 10.479 125.384 10.7723C125.569 11.6827 126.232 12.2066 127.142 12.2066C128.083 12.2066 128.838 11.802 128.838 10.6803C128.838 9.63137 128.144 9.27634 126.772 8.79892C125.122 8.22844 123.737 7.5032 123.737 5.35986C123.737 3.50985 124.986 2.0442 127.083 2.0442C128.932 2.04016 130.166 3.08907 130.398 4.90873Z" fill="#FEF5E4"/>
<path d="M133.959 3.13551C133.959 3.26839 133.933 3.39993 133.881 3.52248C133.83 3.64503 133.755 3.75616 133.66 3.84942C133.565 3.94267 133.453 4.01619 133.33 4.06571C133.207 4.11524 133.075 4.13977 132.942 4.1379C132.809 4.14079 132.678 4.11685 132.555 4.0675C132.432 4.01815 132.32 3.94442 132.227 3.85076C132.133 3.7571 132.059 3.64544 132.01 3.52251C131.96 3.39959 131.937 3.26794 131.939 3.13551C131.939 2.86725 132.046 2.60997 132.236 2.42028C132.425 2.23059 132.683 2.12402 132.951 2.12402C133.219 2.12402 133.476 2.23059 133.666 2.42028C133.856 2.60997 133.962 2.86725 133.962 3.13551H133.959ZM133.806 13.2666C133.806 13.5589 133.651 13.7288 133.342 13.7288H132.541C132.248 13.7288 132.078 13.5589 132.078 13.2666V6.28124C132.078 5.98791 132.248 5.81798 132.541 5.81798H133.342C133.636 5.81798 133.806 5.97273 133.806 6.28124V13.2666Z" fill="#FEF5E4"/>
<path d="M140.528 7.80786C140.574 8.1113 140.405 8.28629 140.097 8.28629H139.357C139.063 8.28629 138.94 8.1467 138.851 7.86956C138.799 7.66579 138.678 7.48594 138.51 7.35976C138.342 7.23358 138.136 7.16864 137.925 7.17568C137.308 7.17568 137 7.43765 137 8.0233C137 8.68684 137.586 8.79507 138.434 9.04187C139.837 9.42725 140.701 9.96637 140.701 11.3855C140.701 12.927 139.714 13.8839 138.018 13.8839C136.461 13.8839 135.427 12.9735 135.227 11.7092C135.165 11.4007 135.35 11.2307 135.659 11.2307H136.414C136.691 11.2307 136.819 11.3703 136.908 11.6475C137.061 12.1097 137.478 12.3879 138.02 12.3879C138.591 12.3879 139.038 12.1097 139.038 11.4937C139.038 10.8302 138.591 10.6299 137.742 10.3983C136.246 9.98255 135.352 9.53446 135.352 8.05466C135.352 6.59003 136.262 5.67969 137.989 5.67969C139.449 5.67969 140.328 6.55867 140.528 7.80786Z" fill="#FEF5E4"/>
<path d="M144.291 11.1264C144.291 11.9892 144.522 12.3139 145.108 12.3139C145.181 12.3166 145.253 12.3112 145.325 12.2977C145.648 12.2674 145.818 12.3756 145.818 12.6831V13.2698C145.818 13.5469 145.695 13.732 145.433 13.7937C145.174 13.847 144.91 13.8727 144.646 13.8706C143.366 13.8706 142.549 13.1919 142.564 11.6504L142.579 7.27063H141.917C141.624 7.27063 141.454 7.10171 141.454 6.80838V6.2814C141.454 5.97289 141.624 5.81814 141.917 5.81814H142.579L142.595 3.59286C142.595 3.2847 142.749 3.13062 143.058 3.13062H143.875C144.167 3.13062 144.337 3.29953 144.337 3.59286L144.322 5.81814H145.371C145.663 5.81814 145.833 5.97289 145.833 6.2814V6.80535C145.833 7.09868 145.679 7.2676 145.371 7.2676H144.307L144.291 11.1264Z" fill="#FEF5E4"/>
<path d="M148.609 10.9532C148.609 11.8322 149.056 12.3875 149.811 12.3875C150.459 12.3875 150.845 12.1093 150.967 11.5854C151.045 11.3082 151.17 11.1535 151.461 11.1535H152.263C152.572 11.1535 152.757 11.3386 152.695 11.6471C152.433 13.0197 151.416 13.8835 149.843 13.8835C148.038 13.8835 146.882 12.7263 146.882 10.8612V8.69859C146.882 6.84858 147.995 5.67627 149.843 5.67627C151.663 5.67627 152.776 6.87893 152.776 8.79165V9.92047C152.776 10.2128 152.622 10.3827 152.314 10.3827H148.613L148.609 10.9532ZM148.609 8.62678V9.04351H151.029V8.62476C151.029 7.71442 150.644 7.17529 149.827 7.17529C149.056 7.17529 148.609 7.7306 148.609 8.62476V8.62678Z" fill="#FEF5E4"/>
<path d="M157.999 6.21961V6.97924C157.999 7.28774 157.954 7.44149 157.876 7.44149H157.737C156.982 7.44149 156.134 8.21224 156.134 9.29251V13.2707C156.134 13.5795 155.98 13.7336 155.671 13.733H154.87C154.576 13.733 154.406 13.563 154.406 13.2707V6.28131C154.406 5.98798 154.576 5.81805 154.87 5.81805H155.578C155.87 5.81805 156.04 5.97281 156.04 6.28131V6.75873C156.287 6.28131 156.981 5.75635 157.721 5.75635C157.722 5.75635 157.999 5.92628 157.999 6.21961Z" fill="#FEF5E4"/>
<path d="M164.214 7.80786C164.26 8.1113 164.09 8.28629 163.782 8.28629H163.042C162.749 8.28629 162.626 8.1467 162.536 7.86956C162.484 7.66587 162.364 7.48604 162.196 7.35985C162.028 7.23367 161.821 7.16869 161.611 7.17568C160.994 7.17568 160.686 7.43765 160.686 8.0233C160.686 8.68684 161.271 8.79507 162.12 9.04187C163.523 9.42725 164.387 9.96637 164.387 11.3855C164.387 12.927 163.4 13.8839 161.703 13.8839C160.146 13.8839 159.113 12.9735 158.913 11.7092C158.851 11.4007 159.036 11.2307 159.345 11.2307H160.099C160.377 11.2307 160.504 11.3703 160.593 11.6475C160.748 12.1097 161.163 12.3879 161.705 12.3879C162.276 12.3879 162.723 12.1097 162.723 11.4937C162.723 10.8302 162.276 10.6299 161.428 10.3983C159.932 9.98255 159.038 9.53446 159.038 8.05466C159.038 6.59003 159.948 5.67969 161.674 5.67969C163.135 5.67969 164.014 6.55867 164.214 7.80786Z" fill="#FEF5E4"/>
<path d="M167.839 13.0361C167.844 13.1893 167.803 13.3404 167.722 13.4702C167.641 13.6 167.522 13.7024 167.382 13.7644C167.242 13.8264 167.086 13.8451 166.936 13.8181C166.785 13.7911 166.645 13.7197 166.535 13.6129C166.426 13.5062 166.35 13.369 166.319 13.2191C166.287 13.0691 166.301 12.9131 166.359 12.7712C166.417 12.6294 166.516 12.508 166.643 12.4227C166.77 12.3374 166.92 12.2921 167.074 12.2927C167.173 12.2893 167.272 12.306 167.365 12.3419C167.458 12.3777 167.543 12.432 167.615 12.5014C167.686 12.5709 167.743 12.654 167.782 12.7459C167.82 12.8377 167.84 12.9365 167.839 13.0361ZM167.709 13.0361C167.711 12.9094 167.676 12.7848 167.607 12.6783C167.539 12.5717 167.44 12.488 167.323 12.4379C167.207 12.3877 167.078 12.3733 166.954 12.3965C166.829 12.4198 166.714 12.4796 166.624 12.5684C166.533 12.6571 166.471 12.7708 166.446 12.8949C166.42 13.0191 166.432 13.148 166.48 13.2653C166.528 13.3827 166.61 13.4831 166.715 13.5538C166.82 13.6244 166.944 13.6622 167.071 13.6622C167.154 13.665 167.237 13.6507 167.315 13.6204C167.392 13.59 167.463 13.5441 167.522 13.4855C167.582 13.4269 167.628 13.3569 167.66 13.2796C167.691 13.2023 167.706 13.1195 167.705 13.0361H167.709ZM167.412 12.8844C167.415 12.9315 167.404 12.9783 167.38 13.0192C167.357 13.0601 167.322 13.0933 167.28 13.115L167.401 13.382C167.428 13.4427 167.401 13.4832 167.335 13.4832H167.325C167.304 13.4846 167.282 13.4791 167.264 13.4675C167.246 13.4558 167.232 13.4386 167.224 13.4185L167.103 13.1524H166.929V13.3952C166.931 13.407 166.929 13.4191 166.926 13.4305C166.922 13.4418 166.916 13.4522 166.907 13.4607C166.899 13.4692 166.889 13.4757 166.877 13.4796C166.866 13.4835 166.854 13.4847 166.842 13.4832H166.836C166.824 13.4843 166.812 13.4828 166.801 13.4787C166.79 13.4747 166.78 13.4682 166.772 13.4598C166.763 13.4514 166.757 13.4412 166.753 13.43C166.749 13.4189 166.748 13.407 166.749 13.3952V12.675C166.747 12.6632 166.749 12.6513 166.753 12.64C166.756 12.6288 166.763 12.6186 166.771 12.6102C166.78 12.6018 166.79 12.5955 166.801 12.5916C166.812 12.5878 166.824 12.5865 166.836 12.588H167.098C167.281 12.588 167.413 12.675 167.413 12.854L167.412 12.8844ZM167.088 13.0037C167.17 13.0037 167.227 12.9633 167.227 12.8814V12.8581C167.227 12.7792 167.17 12.7377 167.088 12.7377H166.929V13.0037H167.088Z" fill="#FEF5E4"/>
<path d="M10.1432 28H0V0H1.31493V26.683H10.1412C12.0761 26.683 13.9697 26.1631 15.4727 25.2194C17.698 23.8246 18.9684 21.6327 18.9684 19.2071C18.9684 16.7816 17.701 14.5907 15.4758 13.1959C13.9737 12.2511 12.0802 11.7322 10.1452 11.7322H8.77971V10.4183H10.1432C12.323 10.4183 14.4643 11.009 16.1747 12.0832C18.7884 13.7249 20.2874 16.3224 20.2874 19.2102C20.2874 22.098 18.7884 24.6965 16.1747 26.3381C14.4643 27.4113 12.323 28 10.1432 28Z" fill="#FEF5E4"/>
<path d="M10.1432 25.0738H2.92627V0H4.24828V23.7568H10.1483C11.5401 23.7568 12.8793 23.3957 13.9232 22.7453C15.2735 21.8967 16.0473 20.6091 16.0473 19.2112C16.0473 17.8133 15.2735 16.5227 13.9181 15.6781C12.8753 15.0226 11.535 14.6666 10.1432 14.6666H8.77975V13.3516H10.1432C11.7798 13.3516 13.3689 13.7835 14.6181 14.5654C16.3608 15.6599 17.3602 17.3541 17.3602 19.2183C17.3602 21.0824 16.3608 22.7726 14.6181 23.8711C13.3689 24.6409 11.7798 25.0738 10.1432 25.0738Z" fill="#FEF5E4"/>
<path d="M10.143 22.1516H5.85327V0H7.16821V20.8296H10.141C11.8939 20.8296 13.1147 19.9749 13.1147 19.2112C13.1147 18.4475 11.8939 17.5928 10.141 17.5928H8.77951V16.2779H10.143C12.5493 16.2779 14.4337 17.5695 14.4337 19.2173C14.4337 20.865 12.5493 22.1516 10.143 22.1516Z" fill="#FEF5E4"/>
<path d="M13.9181 5.25974C15.2685 6.10837 16.0423 7.396 16.0423 8.79387C16.0424 9.22482 15.9682 9.65256 15.8228 10.0582C16.224 10.2483 16.614 10.461 16.991 10.6955C17.2347 10.0911 17.3597 9.4455 17.3592 8.79387C17.3592 6.93375 16.3599 5.23951 14.6171 4.14103C13.3679 3.35612 11.7788 2.92725 10.1423 2.92725H8.77979V4.24825H10.1433C11.531 4.24825 12.8753 4.60429 13.9181 5.25974Z" fill="#FEF5E4"/>
<path d="M15.4758 2.78058C17.7011 4.17542 18.9705 6.37237 18.9705 8.79286C18.9719 9.78584 18.7525 10.7667 18.3282 11.6645C18.6805 11.9614 19.0133 12.2807 19.3245 12.6203C19.9595 11.4447 20.2905 10.129 20.2875 8.79286C20.2875 5.90405 18.7885 3.30655 16.1748 1.66491C14.4643 0.59172 12.323 0 10.1433 0H8.77979V1.31493H10.1433C12.0782 1.31493 13.9718 1.83686 15.4758 2.78058Z" fill="#FEF5E4"/>
<path d="M13.117 8.79265C13.1164 8.90487 13.0937 9.01587 13.0503 9.11936C13.4822 9.21444 13.908 9.32874 14.3248 9.46428C14.3967 9.24765 14.4336 9.02092 14.434 8.79265C14.434 7.14393 12.5496 5.85327 10.1433 5.85327H8.77979V7.1682H10.1433C11.7273 7.17023 13.117 7.92783 13.117 8.79265Z" fill="#FEF5E4"/>
<path d="M28.3985 22.3539V23.9409C28.3985 25.2204 27.6905 26.0215 26.5192 26.0215C25.3479 26.0215 24.6479 25.2204 24.6479 23.9409V22.3539C24.6479 21.0885 25.3368 20.2722 26.5192 20.2722C27.7016 20.2722 28.3985 21.0915 28.3985 22.3539ZM25.3368 22.368V23.9257C25.3368 24.8532 25.7788 25.3853 26.5192 25.3853C27.2596 25.3853 27.6945 24.8532 27.6945 23.9257V22.368C27.6945 21.4577 27.2758 20.9084 26.5192 20.9084C25.7626 20.9084 25.3368 21.4577 25.3368 22.371V22.368Z" fill="#FEF5E4"/>
<path d="M32.1704 20.7769C32.1745 20.8044 32.1721 20.8325 32.1634 20.8589C32.1547 20.8854 32.1399 20.9094 32.1202 20.929C32.1006 20.9487 32.0766 20.9635 32.0502 20.9722C32.0237 20.9809 31.9957 20.9833 31.9681 20.9792H30.1869V22.8131H31.8417C31.8692 22.8092 31.8972 22.8118 31.9235 22.8206C31.9498 22.8293 31.9737 22.8441 31.9933 22.8638C32.0129 22.8834 32.0277 22.9073 32.0365 22.9336C32.0453 22.9599 32.0479 22.9879 32.044 23.0154V23.2318C32.0479 23.2593 32.0453 23.2873 32.0365 23.3136C32.0277 23.3399 32.0129 23.3638 31.9933 23.3834C31.9737 23.4031 31.9498 23.4179 31.9235 23.4266C31.8972 23.4354 31.8692 23.438 31.8417 23.4341H30.1869V25.7474C30.191 25.7749 30.1886 25.803 30.1799 25.8294C30.1712 25.8558 30.1564 25.8798 30.1367 25.8995C30.117 25.9192 30.093 25.934 30.0666 25.9427C30.0402 25.9514 30.0121 25.9538 29.9846 25.9497H29.7075C29.68 25.9536 29.652 25.951 29.6257 25.9422C29.5994 25.9334 29.5755 25.9186 29.5559 25.899C29.5362 25.8794 29.5214 25.8555 29.5127 25.8292C29.5039 25.8029 29.5013 25.7749 29.5052 25.7474V20.5524C29.5013 20.5249 29.5039 20.4969 29.5127 20.4706C29.5214 20.4443 29.5362 20.4204 29.5559 20.4008C29.5755 20.3811 29.5994 20.3664 29.6257 20.3576C29.652 20.3488 29.68 20.3462 29.7075 20.3501H31.9681C31.9957 20.346 32.0237 20.3484 32.0502 20.3571C32.0766 20.3658 32.1006 20.3806 32.1202 20.4003C32.1399 20.42 32.1547 20.444 32.1634 20.4704C32.1721 20.4968 32.1745 20.5249 32.1704 20.5524V20.7769Z" fill="#FEF5E4"/>
<path d="M37.5594 21.5932C37.5657 21.6206 37.5651 21.6492 37.5578 21.6763C37.5505 21.7035 37.5367 21.7285 37.5176 21.7491C37.4985 21.7697 37.4746 21.7854 37.448 21.7947C37.4215 21.804 37.3931 21.8067 37.3652 21.8026H37.0729C37.0459 21.8045 37.0187 21.8009 36.993 21.7921C36.9673 21.7833 36.9437 21.7695 36.9235 21.7513C36.9033 21.7332 36.887 21.7112 36.8755 21.6867C36.8639 21.6621 36.8575 21.6355 36.8565 21.6084C36.7816 21.1663 36.4822 20.9114 36.0402 20.9114C35.4717 20.9114 35.1794 21.2715 35.1794 21.8026C35.1794 22.4014 35.5607 22.5885 36.1747 22.806C37.1336 23.1569 37.7243 23.5019 37.7243 24.4597C37.7243 25.538 36.991 26.0245 36.0705 26.0245C35.1501 26.0245 34.4906 25.5076 34.3712 24.5872C34.365 24.5598 34.3656 24.5312 34.3729 24.504C34.3802 24.4769 34.394 24.4519 34.4131 24.4313C34.4322 24.4106 34.4561 24.395 34.4827 24.3857C34.5092 24.3764 34.5376 24.3737 34.5654 24.3778H34.8578C34.8848 24.3759 34.912 24.3794 34.9377 24.3882C34.9633 24.397 34.987 24.4109 35.0072 24.429C35.0274 24.4471 35.0437 24.4691 35.0552 24.4937C35.0667 24.5183 35.0732 24.5449 35.0742 24.572C35.1642 25.0889 35.5466 25.3883 36.0705 25.3883C36.5945 25.3883 37.0355 25.1556 37.0355 24.4972C37.0355 23.8832 36.639 23.7112 35.9229 23.4493C35.144 23.1721 34.4926 22.8505 34.4926 21.8309C34.4926 20.962 35.054 20.2732 36.0422 20.2732C36.8787 20.2752 37.4553 20.7617 37.5594 21.5932Z" fill="#FEF5E4"/>
<path d="M42.4176 22.3539V23.9409C42.4176 25.2204 41.7095 26.0215 40.5393 26.0215C39.369 26.0215 38.667 25.2204 38.667 23.9409V22.3539C38.667 21.0885 39.3558 20.2722 40.5393 20.2722C41.7227 20.2722 42.4176 21.0915 42.4176 22.3539ZM39.3558 22.368V23.9257C39.3558 24.8532 39.7978 25.3853 40.5393 25.3853C41.2807 25.3853 41.7136 24.8532 41.7136 23.9257V22.368C41.7136 21.4577 41.2948 20.9084 40.5393 20.9084C39.7837 20.9084 39.3558 21.4577 39.3558 22.371V22.368Z" fill="#FEF5E4"/>
<path d="M46.849 24.2656C46.849 25.4106 46.2047 26.0246 45.1719 26.0246C44.1392 26.0246 43.4878 25.4106 43.4878 24.2656V20.5524C43.484 20.525 43.4865 20.497 43.4953 20.4707C43.5041 20.4444 43.5189 20.4204 43.5385 20.4008C43.5581 20.3812 43.582 20.3664 43.6084 20.3576C43.6347 20.3488 43.6627 20.3463 43.6901 20.3501H43.9744C44.0018 20.3463 44.0298 20.3488 44.0561 20.3576C44.0825 20.3664 44.1064 20.3812 44.126 20.4008C44.1456 20.4204 44.1604 20.4444 44.1692 20.4707C44.178 20.497 44.1805 20.525 44.1767 20.5524V24.2353C44.1767 25.006 44.558 25.3884 45.1719 25.3884C45.7859 25.3884 46.1672 25.006 46.1672 24.2353V20.5524C46.1634 20.525 46.1659 20.497 46.1747 20.4707C46.1835 20.4444 46.1983 20.4204 46.2179 20.4008C46.2375 20.3812 46.2614 20.3664 46.2878 20.3576C46.3141 20.3488 46.3421 20.3463 46.3695 20.3501H46.6467C46.6741 20.3463 46.7021 20.3488 46.7285 20.3576C46.7548 20.3664 46.7787 20.3812 46.7983 20.4008C46.8179 20.4204 46.8327 20.4444 46.8415 20.4707C46.8503 20.497 46.8529 20.525 46.849 20.5524V24.2656Z" fill="#FEF5E4"/>
<path d="M51.2279 20.777C51.2318 20.8045 51.2292 20.8325 51.2204 20.8588C51.2116 20.8851 51.1968 20.909 51.1772 20.9286C51.1576 20.9482 51.1337 20.963 51.1074 20.9718C51.0811 20.9806 51.0531 20.9832 51.0256 20.9793H49.7653V25.7474C49.7692 25.7749 49.7666 25.8029 49.7578 25.8292C49.749 25.8555 49.7342 25.8794 49.7146 25.899C49.695 25.9187 49.6711 25.9335 49.6448 25.9423C49.6185 25.951 49.5905 25.9536 49.563 25.9497H49.2858C49.2584 25.9536 49.2304 25.951 49.2041 25.9423C49.1778 25.9335 49.1538 25.9187 49.1342 25.899C49.1146 25.8794 49.0998 25.8555 49.091 25.8292C49.0822 25.8029 49.0797 25.7749 49.0836 25.7474V20.9793H47.8293C47.8018 20.9832 47.7738 20.9806 47.7475 20.9718C47.7212 20.963 47.6973 20.9482 47.6777 20.9286C47.6581 20.909 47.6433 20.8851 47.6345 20.8588C47.6257 20.8325 47.6231 20.8045 47.627 20.777V20.5524C47.6231 20.525 47.6257 20.497 47.6345 20.4707C47.6433 20.4444 47.6581 20.4204 47.6777 20.4008C47.6973 20.3812 47.7212 20.3664 47.7475 20.3576C47.7738 20.3488 47.8018 20.3463 47.8293 20.3501H51.0256C51.0531 20.3463 51.0811 20.3488 51.1074 20.3576C51.1337 20.3664 51.1576 20.3812 51.1772 20.4008C51.1968 20.4204 51.2116 20.4444 51.2204 20.4707C51.2292 20.497 51.2318 20.525 51.2279 20.5524V20.777Z" fill="#FEF5E4"/>
<path d="M55.3738 25.7474C55.3777 25.7749 55.3751 25.8029 55.3663 25.8292C55.3575 25.8555 55.3428 25.8794 55.3231 25.899C55.3035 25.9187 55.2796 25.9335 55.2533 25.9423C55.227 25.951 55.199 25.9536 55.1715 25.9497H54.8873C54.8598 25.9536 54.8318 25.951 54.8055 25.9423C54.7792 25.9335 54.7553 25.9187 54.7357 25.899C54.7161 25.8794 54.7013 25.8555 54.6925 25.8292C54.6837 25.8029 54.6811 25.7749 54.685 25.7474V23.3593H52.7167V25.7474C52.7205 25.7749 52.718 25.8029 52.7092 25.8292C52.7004 25.8555 52.6856 25.8794 52.666 25.899C52.6464 25.9187 52.6225 25.9335 52.5961 25.9423C52.5698 25.951 52.5418 25.9536 52.5144 25.9497H52.2382C52.2108 25.9536 52.1828 25.951 52.1565 25.9423C52.1301 25.9335 52.1062 25.9187 52.0866 25.899C52.067 25.8794 52.0522 25.8555 52.0434 25.8292C52.0346 25.8029 52.0321 25.7749 52.0359 25.7474V20.5524C52.0321 20.525 52.0346 20.497 52.0434 20.4707C52.0522 20.4444 52.067 20.4204 52.0866 20.4008C52.1062 20.3812 52.1301 20.3664 52.1565 20.3576C52.1828 20.3488 52.2108 20.3463 52.2382 20.3501H52.5144C52.5418 20.3463 52.5698 20.3488 52.5961 20.3576C52.6225 20.3664 52.6464 20.3812 52.666 20.4008C52.6856 20.4204 52.7004 20.4444 52.7092 20.4707C52.718 20.497 52.7205 20.525 52.7167 20.5524V22.7312H54.685V20.5524C54.6811 20.525 54.6837 20.497 54.6925 20.4707C54.7013 20.4444 54.7161 20.4204 54.7357 20.4008C54.7553 20.3812 54.7792 20.3664 54.8055 20.3576C54.8318 20.3488 54.8598 20.3463 54.8873 20.3501H55.1715C55.199 20.3463 55.227 20.3488 55.2533 20.3576C55.2796 20.3664 55.3035 20.3812 55.3231 20.4008C55.3428 20.4204 55.3575 20.4444 55.3663 20.4707C55.3751 20.497 55.3777 20.525 55.3738 20.5524V25.7474Z" fill="#FEF5E4"/>
<path d="M61.3324 20.777C61.3363 20.8045 61.3337 20.8325 61.3249 20.8588C61.3161 20.8851 61.3013 20.909 61.2817 20.9286C61.2621 20.9482 61.2382 20.963 61.2119 20.9718C61.1856 20.9806 61.1576 20.9832 61.1301 20.9793H59.8728V25.7474C59.8767 25.7749 59.8741 25.8029 59.8653 25.8292C59.8566 25.8555 59.8418 25.8794 59.8221 25.899C59.8025 25.9187 59.7786 25.9335 59.7523 25.9423C59.726 25.951 59.698 25.9536 59.6705 25.9497H59.3934C59.3659 25.9536 59.3379 25.951 59.3116 25.9423C59.2853 25.9335 59.2614 25.9187 59.2418 25.899C59.2221 25.8794 59.2074 25.8555 59.1986 25.8292C59.1898 25.8029 59.1872 25.7749 59.1911 25.7474V20.9793H57.9338C57.9063 20.9832 57.8783 20.9806 57.852 20.9718C57.8257 20.963 57.8018 20.9482 57.7822 20.9286C57.7626 20.909 57.7478 20.8851 57.739 20.8588C57.7302 20.8325 57.7276 20.8045 57.7315 20.777V20.5524C57.7276 20.525 57.7302 20.497 57.739 20.4707C57.7478 20.4444 57.7626 20.4204 57.7822 20.4008C57.8018 20.3812 57.8257 20.3664 57.852 20.3576C57.8783 20.3488 57.9063 20.3463 57.9338 20.3501H61.1301C61.1576 20.3463 61.1856 20.3488 61.2119 20.3576C61.2382 20.3664 61.2621 20.3812 61.2817 20.4008C61.3013 20.4204 61.3161 20.4444 61.3249 20.4707C61.3337 20.497 61.3363 20.525 61.3324 20.5524V20.777Z" fill="#FEF5E4"/>
<path d="M64.8879 20.7769C64.8917 20.8044 64.8892 20.8324 64.8804 20.8587C64.8716 20.885 64.8568 20.9089 64.8372 20.9286C64.8176 20.9482 64.7937 20.963 64.7673 20.9718C64.741 20.9805 64.713 20.9831 64.6856 20.9792H62.8214V22.7584H64.5804C64.6078 22.7546 64.6358 22.7571 64.6621 22.7659C64.6885 22.7747 64.7124 22.7895 64.732 22.8091C64.7516 22.8287 64.7664 22.8526 64.7752 22.879C64.784 22.9053 64.7865 22.9333 64.7827 22.9607V23.1853C64.7868 23.2128 64.7844 23.2409 64.7756 23.2673C64.7669 23.2937 64.7521 23.3177 64.7325 23.3374C64.7128 23.3571 64.6888 23.3718 64.6624 23.3806C64.636 23.3893 64.6079 23.3917 64.5804 23.3876H62.8214V25.3266H64.6856C64.713 25.3227 64.741 25.3253 64.7673 25.3341C64.7937 25.3429 64.8176 25.3577 64.8372 25.3773C64.8568 25.3969 64.8716 25.4208 64.8804 25.4471C64.8892 25.4734 64.8917 25.5014 64.8879 25.5289V25.7535C64.8917 25.7809 64.8892 25.8089 64.8804 25.8352C64.8716 25.8615 64.8568 25.8855 64.8372 25.9051C64.8176 25.9247 64.7937 25.9395 64.7673 25.9483C64.741 25.9571 64.713 25.9596 64.6856 25.9558H62.3419C62.3144 25.9598 62.2863 25.9574 62.2599 25.9487C62.2335 25.94 62.2095 25.9252 62.1898 25.9056C62.1702 25.8859 62.1554 25.8619 62.1467 25.8355C62.1379 25.8091 62.1355 25.781 62.1396 25.7535V20.5524C62.1355 20.5249 62.1379 20.4968 62.1467 20.4704C62.1554 20.444 62.1702 20.42 62.1898 20.4003C62.2095 20.3806 62.2335 20.3658 62.2599 20.3571C62.2863 20.3484 62.3144 20.346 62.3419 20.3501H64.6856C64.713 20.3462 64.741 20.3488 64.7673 20.3576C64.7937 20.3664 64.8176 20.3811 64.8372 20.4008C64.8568 20.4204 64.8716 20.4443 64.8804 20.4706C64.8892 20.4969 64.8917 20.5249 64.8879 20.5524V20.7769Z" fill="#FEF5E4"/>
<path d="M69.296 25.7099C69.3637 25.8525 69.3031 25.9496 69.1463 25.9496H68.8317C68.7821 25.9525 68.7327 25.9405 68.69 25.9151C68.6472 25.8897 68.6131 25.852 68.592 25.807L67.4793 23.6364L66.3667 25.807C66.3456 25.852 66.3114 25.8897 66.2687 25.9151C66.226 25.9405 66.1766 25.9525 66.127 25.9496H65.8053C65.6485 25.9496 65.5878 25.8485 65.6556 25.7099L66.9807 23.1124L65.7082 20.5898C65.6404 20.4471 65.7001 20.35 65.8579 20.35H66.1614C66.211 20.3471 66.2604 20.3592 66.3031 20.3846C66.3458 20.41 66.3799 20.4477 66.4011 20.4927L67.4793 22.5885L68.5566 20.4927C68.5777 20.4477 68.6118 20.41 68.6546 20.3846C68.6973 20.3592 68.7467 20.3471 68.7963 20.35H69.0997C69.2565 20.35 69.3162 20.4512 69.2494 20.5898L67.979 23.1124L69.296 25.7099Z" fill="#FEF5E4"/>
<path d="M73.7941 25.7251C73.8397 25.8597 73.7719 25.9497 73.6222 25.9497H73.338C73.2851 25.9541 73.2324 25.939 73.1897 25.9074C73.1471 25.8757 73.1175 25.8296 73.1063 25.7777L72.7392 24.4901H71.0065L70.6393 25.7777C70.6282 25.8296 70.5985 25.8757 70.5559 25.9074C70.5133 25.939 70.4606 25.9541 70.4077 25.9497H70.1234C69.9737 25.9497 69.906 25.8597 69.9515 25.7251L71.4333 20.5221C71.4444 20.4701 71.4741 20.4241 71.5167 20.3924C71.5594 20.3608 71.612 20.3457 71.665 20.3501H72.0918C72.1443 20.3437 72.1972 20.3582 72.2391 20.3903C72.2811 20.4225 72.3088 20.4697 72.3164 20.5221L73.7941 25.7251ZM72.5895 23.861L71.8814 21.3535L71.1622 23.861H72.5895Z" fill="#FEF5E4"/>
<path d="M77.7167 21.5932C77.7229 21.6206 77.7224 21.6492 77.7151 21.6763C77.7078 21.7035 77.694 21.7285 77.6749 21.7491C77.6557 21.7697 77.6318 21.7854 77.6053 21.7947C77.5787 21.804 77.5503 21.8067 77.5225 21.8026H77.2302C77.203 21.8046 77.1758 21.8012 77.15 21.7924C77.1242 21.7837 77.1004 21.7699 77.0801 21.7517C77.0598 21.7336 77.0434 21.7116 77.0318 21.6869C77.0202 21.6623 77.0137 21.6356 77.0127 21.6084C76.9379 21.1663 76.6385 20.9114 76.1974 20.9114C75.628 20.9114 75.3367 21.2715 75.3367 21.8026C75.3367 22.4014 75.718 22.5885 76.332 22.806C77.2899 23.1569 77.8816 23.5019 77.8816 24.4597C77.8816 25.538 77.1482 26.0245 76.2268 26.0245C75.3053 26.0245 74.6478 25.5076 74.5275 24.5872C74.5214 24.5597 74.5222 24.5311 74.5296 24.504C74.5371 24.4768 74.551 24.4519 74.5702 24.4313C74.5894 24.4107 74.6133 24.3951 74.6398 24.3858C74.6664 24.3765 74.6948 24.3737 74.7227 24.3778H75.014C75.0411 24.3757 75.0684 24.3792 75.0942 24.3879C75.12 24.3967 75.1438 24.4105 75.1641 24.4286C75.1844 24.4468 75.2008 24.4688 75.2124 24.4935C75.224 24.5181 75.2305 24.5448 75.2315 24.572C75.3215 25.0889 75.7028 25.3883 76.2268 25.3883C76.7507 25.3883 77.1928 25.1556 77.1928 24.4972C77.1928 23.8832 76.7962 23.7112 76.0801 23.4493C75.3023 23.1721 74.6509 22.8505 74.6509 21.8309C74.6509 20.962 75.2122 20.2732 76.2005 20.2732C77.036 20.2752 77.6115 20.7617 77.7167 21.5932Z" fill="#FEF5E4"/>
<path d="M28.3985 22.3539V23.9409C28.3985 25.2204 27.6905 26.0215 26.5192 26.0215C25.3479 26.0215 24.6479 25.2204 24.6479 23.9409V22.3539C24.6479 21.0885 25.3368 20.2722 26.5192 20.2722C27.7016 20.2722 28.3985 21.0915 28.3985 22.3539ZM25.3368 22.368V23.9257C25.3368 24.8532 25.7788 25.3853 26.5192 25.3853C27.2596 25.3853 27.6945 24.8532 27.6945 23.9257V22.368C27.6945 21.4577 27.2758 20.9084 26.5192 20.9084C25.7626 20.9084 25.3368 21.4577 25.3368 22.371V22.368Z" fill="#FEF5E4"/>
<path d="M32.1704 20.7769C32.1745 20.8044 32.1721 20.8325 32.1634 20.8589C32.1547 20.8854 32.1399 20.9094 32.1202 20.929C32.1006 20.9487 32.0766 20.9635 32.0502 20.9722C32.0237 20.9809 31.9957 20.9833 31.9681 20.9792H30.1869V22.8131H31.8417C31.8692 22.8092 31.8972 22.8118 31.9235 22.8206C31.9498 22.8293 31.9737 22.8441 31.9933 22.8638C32.0129 22.8834 32.0277 22.9073 32.0365 22.9336C32.0453 22.9599 32.0479 22.9879 32.044 23.0154V23.2318C32.0479 23.2593 32.0453 23.2873 32.0365 23.3136C32.0277 23.3399 32.0129 23.3638 31.9933 23.3834C31.9737 23.4031 31.9498 23.4179 31.9235 23.4266C31.8972 23.4354 31.8692 23.438 31.8417 23.4341H30.1869V25.7474C30.191 25.7749 30.1886 25.803 30.1799 25.8294C30.1712 25.8558 30.1564 25.8798 30.1367 25.8995C30.117 25.9192 30.093 25.934 30.0666 25.9427C30.0402 25.9514 30.0121 25.9538 29.9846 25.9497H29.7075C29.68 25.9536 29.652 25.951 29.6257 25.9422C29.5994 25.9334 29.5755 25.9186 29.5559 25.899C29.5362 25.8794 29.5214 25.8555 29.5127 25.8292C29.5039 25.8029 29.5013 25.7749 29.5052 25.7474V20.5524C29.5013 20.5249 29.5039 20.4969 29.5127 20.4706C29.5214 20.4443 29.5362 20.4204 29.5559 20.4008C29.5755 20.3811 29.5994 20.3664 29.6257 20.3576C29.652 20.3488 29.68 20.3462 29.7075 20.3501H31.9681C31.9957 20.346 32.0237 20.3484 32.0502 20.3571C32.0766 20.3658 32.1006 20.3806 32.1202 20.4003C32.1399 20.42 32.1547 20.444 32.1634 20.4704C32.1721 20.4968 32.1745 20.5249 32.1704 20.5524V20.7769Z" fill="#FEF5E4"/>
<path d="M37.5594 21.5932C37.5657 21.6206 37.5651 21.6492 37.5578 21.6763C37.5505 21.7035 37.5367 21.7285 37.5176 21.7491C37.4985 21.7697 37.4746 21.7854 37.448 21.7947C37.4215 21.804 37.3931 21.8067 37.3652 21.8026H37.0729C37.0459 21.8045 37.0187 21.8009 36.993 21.7921C36.9673 21.7833 36.9437 21.7695 36.9235 21.7513C36.9033 21.7332 36.887 21.7112 36.8755 21.6867C36.8639 21.6621 36.8575 21.6355 36.8565 21.6084C36.7816 21.1663 36.4822 20.9114 36.0402 20.9114C35.4717 20.9114 35.1794 21.2715 35.1794 21.8026C35.1794 22.4014 35.5607 22.5885 36.1747 22.806C37.1336 23.1569 37.7243 23.5019 37.7243 24.4597C37.7243 25.538 36.991 26.0245 36.0705 26.0245C35.1501 26.0245 34.4906 25.5076 34.3712 24.5872C34.365 24.5598 34.3656 24.5312 34.3729 24.504C34.3802 24.4769 34.394 24.4519 34.4131 24.4313C34.4322 24.4106 34.4561 24.395 34.4827 24.3857C34.5092 24.3764 34.5376 24.3737 34.5654 24.3778H34.8578C34.8848 24.3759 34.912 24.3794 34.9377 24.3882C34.9633 24.397 34.987 24.4109 35.0072 24.429C35.0274 24.4471 35.0437 24.4691 35.0552 24.4937C35.0667 24.5183 35.0732 24.5449 35.0742 24.572C35.1642 25.0889 35.5466 25.3883 36.0705 25.3883C36.5945 25.3883 37.0355 25.1556 37.0355 24.4972C37.0355 23.8832 36.639 23.7112 35.9229 23.4493C35.144 23.1721 34.4926 22.8505 34.4926 21.8309C34.4926 20.962 35.054 20.2732 36.0422 20.2732C36.8787 20.2752 37.4553 20.7617 37.5594 21.5932Z" fill="#FEF5E4"/>
<path d="M42.4176 22.3539V23.9409C42.4176 25.2204 41.7095 26.0215 40.5393 26.0215C39.369 26.0215 38.667 25.2204 38.667 23.9409V22.3539C38.667 21.0885 39.3558 20.2722 40.5393 20.2722C41.7227 20.2722 42.4176 21.0915 42.4176 22.3539ZM39.3558 22.368V23.9257C39.3558 24.8532 39.7978 25.3853 40.5393 25.3853C41.2807 25.3853 41.7136 24.8532 41.7136 23.9257V22.368C41.7136 21.4577 41.2948 20.9084 40.5393 20.9084C39.7837 20.9084 39.3558 21.4577 39.3558 22.371V22.368Z" fill="#FEF5E4"/>
<path d="M46.849 24.2656C46.849 25.4106 46.2047 26.0246 45.1719 26.0246C44.1392 26.0246 43.4878 25.4106 43.4878 24.2656V20.5524C43.484 20.525 43.4865 20.497 43.4953 20.4707C43.5041 20.4444 43.5189 20.4204 43.5385 20.4008C43.5581 20.3812 43.582 20.3664 43.6084 20.3576C43.6347 20.3488 43.6627 20.3463 43.6901 20.3501H43.9744C44.0018 20.3463 44.0298 20.3488 44.0561 20.3576C44.0825 20.3664 44.1064 20.3812 44.126 20.4008C44.1456 20.4204 44.1604 20.4444 44.1692 20.4707C44.178 20.497 44.1805 20.525 44.1767 20.5524V24.2353C44.1767 25.006 44.558 25.3884 45.1719 25.3884C45.7859 25.3884 46.1672 25.006 46.1672 24.2353V20.5524C46.1634 20.525 46.1659 20.497 46.1747 20.4707C46.1835 20.4444 46.1983 20.4204 46.2179 20.4008C46.2375 20.3812 46.2614 20.3664 46.2878 20.3576C46.3141 20.3488 46.3421 20.3463 46.3695 20.3501H46.6467C46.6741 20.3463 46.7021 20.3488 46.7285 20.3576C46.7548 20.3664 46.7787 20.3812 46.7983 20.4008C46.8179 20.4204 46.8327 20.4444 46.8415 20.4707C46.8503 20.497 46.8529 20.525 46.849 20.5524V24.2656Z" fill="#FEF5E4"/>
<path d="M51.2279 20.777C51.2318 20.8045 51.2292 20.8325 51.2204 20.8588C51.2116 20.8851 51.1968 20.909 51.1772 20.9286C51.1576 20.9482 51.1337 20.963 51.1074 20.9718C51.0811 20.9806 51.0531 20.9832 51.0256 20.9793H49.7653V25.7474C49.7692 25.7749 49.7666 25.8029 49.7578 25.8292C49.749 25.8555 49.7342 25.8794 49.7146 25.899C49.695 25.9187 49.6711 25.9335 49.6448 25.9423C49.6185 25.951 49.5905 25.9536 49.563 25.9497H49.2858C49.2584 25.9536 49.2304 25.951 49.2041 25.9423C49.1778 25.9335 49.1538 25.9187 49.1342 25.899C49.1146 25.8794 49.0998 25.8555 49.091 25.8292C49.0822 25.8029 49.0797 25.7749 49.0836 25.7474V20.9793H47.8293C47.8018 20.9832 47.7738 20.9806 47.7475 20.9718C47.7212 20.963 47.6973 20.9482 47.6777 20.9286C47.6581 20.909 47.6433 20.8851 47.6345 20.8588C47.6257 20.8325 47.6231 20.8045 47.627 20.777V20.5524C47.6231 20.525 47.6257 20.497 47.6345 20.4707C47.6433 20.4444 47.6581 20.4204 47.6777 20.4008C47.6973 20.3812 47.7212 20.3664 47.7475 20.3576C47.7738 20.3488 47.8018 20.3463 47.8293 20.3501H51.0256C51.0531 20.3463 51.0811 20.3488 51.1074 20.3576C51.1337 20.3664 51.1576 20.3812 51.1772 20.4008C51.1968 20.4204 51.2116 20.4444 51.2204 20.4707C51.2292 20.497 51.2318 20.525 51.2279 20.5524V20.777Z" fill="#FEF5E4"/>
<path d="M55.3738 25.7474C55.3777 25.7749 55.3751 25.8029 55.3663 25.8292C55.3575 25.8555 55.3428 25.8794 55.3231 25.899C55.3035 25.9187 55.2796 25.9335 55.2533 25.9423C55.227 25.951 55.199 25.9536 55.1715 25.9497H54.8873C54.8598 25.9536 54.8318 25.951 54.8055 25.9423C54.7792 25.9335 54.7553 25.9187 54.7357 25.899C54.7161 25.8794 54.7013 25.8555 54.6925 25.8292C54.6837 25.8029 54.6811 25.7749 54.685 25.7474V23.3593H52.7167V25.7474C52.7205 25.7749 52.718 25.8029 52.7092 25.8292C52.7004 25.8555 52.6856 25.8794 52.666 25.899C52.6464 25.9187 52.6225 25.9335 52.5961 25.9423C52.5698 25.951 52.5418 25.9536 52.5144 25.9497H52.2382C52.2108 25.9536 52.1828 25.951 52.1565 25.9423C52.1301 25.9335 52.1062 25.9187 52.0866 25.899C52.067 25.8794 52.0522 25.8555 52.0434 25.8292C52.0346 25.8029 52.0321 25.7749 52.0359 25.7474V20.5524C52.0321 20.525 52.0346 20.497 52.0434 20.4707C52.0522 20.4444 52.067 20.4204 52.0866 20.4008C52.1062 20.3812 52.1301 20.3664 52.1565 20.3576C52.1828 20.3488 52.2108 20.3463 52.2382 20.3501H52.5144C52.5418 20.3463 52.5698 20.3488 52.5961 20.3576C52.6225 20.3664 52.6464 20.3812 52.666 20.4008C52.6856 20.4204 52.7004 20.4444 52.7092 20.4707C52.718 20.497 52.7205 20.525 52.7167 20.5524V22.7312H54.685V20.5524C54.6811 20.525 54.6837 20.497 54.6925 20.4707C54.7013 20.4444 54.7161 20.4204 54.7357 20.4008C54.7553 20.3812 54.7792 20.3664 54.8055 20.3576C54.8318 20.3488 54.8598 20.3463 54.8873 20.3501H55.1715C55.199 20.3463 55.227 20.3488 55.2533 20.3576C55.2796 20.3664 55.3035 20.3812 55.3231 20.4008C55.3428 20.4204 55.3575 20.4444 55.3663 20.4707C55.3751 20.497 55.3777 20.525 55.3738 20.5524V25.7474Z" fill="#FEF5E4"/>
<path d="M61.3324 20.777C61.3363 20.8045 61.3337 20.8325 61.3249 20.8588C61.3161 20.8851 61.3013 20.909 61.2817 20.9286C61.2621 20.9482 61.2382 20.963 61.2119 20.9718C61.1856 20.9806 61.1576 20.9832 61.1301 20.9793H59.8728V25.7474C59.8767 25.7749 59.8741 25.8029 59.8653 25.8292C59.8566 25.8555 59.8418 25.8794 59.8221 25.899C59.8025 25.9187 59.7786 25.9335 59.7523 25.9423C59.726 25.951 59.698 25.9536 59.6705 25.9497H59.3934C59.3659 25.9536 59.3379 25.951 59.3116 25.9423C59.2853 25.9335 59.2614 25.9187 59.2418 25.899C59.2221 25.8794 59.2074 25.8555 59.1986 25.8292C59.1898 25.8029 59.1872 25.7749 59.1911 25.7474V20.9793H57.9338C57.9063 20.9832 57.8783 20.9806 57.852 20.9718C57.8257 20.963 57.8018 20.9482 57.7822 20.9286C57.7626 20.909 57.7478 20.8851 57.739 20.8588C57.7302 20.8325 57.7276 20.8045 57.7315 20.777V20.5524C57.7276 20.525 57.7302 20.497 57.739 20.4707C57.7478 20.4444 57.7626 20.4204 57.7822 20.4008C57.8018 20.3812 57.8257 20.3664 57.852 20.3576C57.8783 20.3488 57.9063 20.3463 57.9338 20.3501H61.1301C61.1576 20.3463 61.1856 20.3488 61.2119 20.3576C61.2382 20.3664 61.2621 20.3812 61.2817 20.4008C61.3013 20.4204 61.3161 20.4444 61.3249 20.4707C61.3337 20.497 61.3363 20.525 61.3324 20.5524V20.777Z" fill="#FEF5E4"/>
<path d="M64.8879 20.7769C64.8917 20.8044 64.8892 20.8324 64.8804 20.8587C64.8716 20.885 64.8568 20.9089 64.8372 20.9286C64.8176 20.9482 64.7937 20.963 64.7673 20.9718C64.741 20.9805 64.713 20.9831 64.6856 20.9792H62.8214V22.7584H64.5804C64.6078 22.7546 64.6358 22.7571 64.6621 22.7659C64.6885 22.7747 64.7124 22.7895 64.732 22.8091C64.7516 22.8287 64.7664 22.8526 64.7752 22.879C64.784 22.9053 64.7865 22.9333 64.7827 22.9607V23.1853C64.7868 23.2128 64.7844 23.2409 64.7756 23.2673C64.7669 23.2937 64.7521 23.3177 64.7325 23.3374C64.7128 23.3571 64.6888 23.3718 64.6624 23.3806C64.636 23.3893 64.6079 23.3917 64.5804 23.3876H62.8214V25.3266H64.6856C64.713 25.3227 64.741 25.3253 64.7673 25.3341C64.7937 25.3429 64.8176 25.3577 64.8372 25.3773C64.8568 25.3969 64.8716 25.4208 64.8804 25.4471C64.8892 25.4734 64.8917 25.5014 64.8879 25.5289V25.7535C64.8917 25.7809 64.8892 25.8089 64.8804 25.8352C64.8716 25.8615 64.8568 25.8855 64.8372 25.9051C64.8176 25.9247 64.7937 25.9395 64.7673 25.9483C64.741 25.9571 64.713 25.9596 64.6856 25.9558H62.3419C62.3144 25.9598 62.2863 25.9574 62.2599 25.9487C62.2335 25.94 62.2095 25.9252 62.1898 25.9056C62.1702 25.8859 62.1554 25.8619 62.1467 25.8355C62.1379 25.8091 62.1355 25.781 62.1396 25.7535V20.5524C62.1355 20.5249 62.1379 20.4968 62.1467 20.4704C62.1554 20.444 62.1702 20.42 62.1898 20.4003C62.2095 20.3806 62.2335 20.3658 62.2599 20.3571C62.2863 20.3484 62.3144 20.346 62.3419 20.3501H64.6856C64.713 20.3462 64.741 20.3488 64.7673 20.3576C64.7937 20.3664 64.8176 20.3811 64.8372 20.4008C64.8568 20.4204 64.8716 20.4443 64.8804 20.4706C64.8892 20.4969 64.8917 20.5249 64.8879 20.5524V20.7769Z" fill="#FEF5E4"/>
<path d="M69.296 25.7099C69.3637 25.8525 69.3031 25.9496 69.1463 25.9496H68.8317C68.7821 25.9525 68.7327 25.9405 68.69 25.9151C68.6472 25.8897 68.6131 25.852 68.592 25.807L67.4793 23.6364L66.3667 25.807C66.3456 25.852 66.3114 25.8897 66.2687 25.9151C66.226 25.9405 66.1766 25.9525 66.127 25.9496H65.8053C65.6485 25.9496 65.5878 25.8485 65.6556 25.7099L66.9807 23.1124L65.7082 20.5898C65.6404 20.4471 65.7001 20.35 65.8579 20.35H66.1614C66.211 20.3471 66.2604 20.3592 66.3031 20.3846C66.3458 20.41 66.3799 20.4477 66.4011 20.4927L67.4793 22.5885L68.5566 20.4927C68.5777 20.4477 68.6118 20.41 68.6546 20.3846C68.6973 20.3592 68.7467 20.3471 68.7963 20.35H69.0997C69.2565 20.35 69.3162 20.4512 69.2494 20.5898L67.979 23.1124L69.296 25.7099Z" fill="#FEF5E4"/>
<path d="M73.7941 25.7251C73.8397 25.8597 73.7719 25.9497 73.6222 25.9497H73.338C73.2851 25.9541 73.2324 25.939 73.1897 25.9074C73.1471 25.8757 73.1175 25.8296 73.1063 25.7777L72.7392 24.4901H71.0065L70.6393 25.7777C70.6282 25.8296 70.5985 25.8757 70.5559 25.9074C70.5133 25.939 70.4606 25.9541 70.4077 25.9497H70.1234C69.9737 25.9497 69.906 25.8597 69.9515 25.7251L71.4333 20.5221C71.4444 20.4701 71.4741 20.4241 71.5167 20.3924C71.5594 20.3608 71.612 20.3457 71.665 20.3501H72.0918C72.1443 20.3437 72.1972 20.3582 72.2391 20.3903C72.2811 20.4225 72.3088 20.4697 72.3164 20.5221L73.7941 25.7251ZM72.5895 23.861L71.8814 21.3535L71.1622 23.861H72.5895Z" fill="#FEF5E4"/>
<path d="M77.7167 21.5932C77.7229 21.6206 77.7224 21.6492 77.7151 21.6763C77.7078 21.7035 77.694 21.7285 77.6749 21.7491C77.6557 21.7697 77.6318 21.7854 77.6053 21.7947C77.5787 21.804 77.5503 21.8067 77.5225 21.8026H77.2302C77.203 21.8046 77.1758 21.8012 77.15 21.7924C77.1242 21.7837 77.1004 21.7699 77.0801 21.7517C77.0598 21.7336 77.0434 21.7116 77.0318 21.6869C77.0202 21.6623 77.0137 21.6356 77.0127 21.6084C76.9379 21.1663 76.6385 20.9114 76.1974 20.9114C75.628 20.9114 75.3367 21.2715 75.3367 21.8026C75.3367 22.4014 75.718 22.5885 76.332 22.806C77.2899 23.1569 77.8816 23.5019 77.8816 24.4597C77.8816 25.538 77.1482 26.0245 76.2268 26.0245C75.3053 26.0245 74.6478 25.5076 74.5275 24.5872C74.5214 24.5597 74.5222 24.5311 74.5296 24.504C74.5371 24.4768 74.551 24.4519 74.5702 24.4313C74.5894 24.4107 74.6133 24.3951 74.6398 24.3858C74.6664 24.3765 74.6948 24.3737 74.7227 24.3778H75.014C75.0411 24.3757 75.0684 24.3792 75.0942 24.3879C75.12 24.3967 75.1438 24.4105 75.1641 24.4286C75.1844 24.4468 75.2008 24.4688 75.2124 24.4935C75.224 24.5181 75.2305 24.5448 75.2315 24.572C75.3215 25.0889 75.7028 25.3883 76.2268 25.3883C76.7507 25.3883 77.1928 25.1556 77.1928 24.4972C77.1928 23.8832 76.7962 23.7112 76.0801 23.4493C75.3023 23.1721 74.6509 22.8505 74.6509 21.8309C74.6509 20.962 75.2122 20.2732 76.2005 20.2732C77.036 20.2752 77.6115 20.7617 77.7167 21.5932Z" fill="#FEF5E4"/>
</svg>
