<svg width="188" height="32" viewBox="0 0 188 32" fill="none" xmlns="http://www.w3.org/2000/svg">
<g clip-path="url(#clip0)">
<path d="M32.3444 2.5083C34.4252 2.5083 35.9568 3.74173 35.9568 5.78551V6.38547C35.9568 7.65705 35.3049 8.46623 34.6171 8.78182C35.5164 9.12861 36.2562 10.0337 36.2562 11.5307V12.2359C36.2562 14.4207 34.6529 15.69 32.2912 15.69H28.6256C28.2904 15.69 28.0973 15.4958 28.0973 15.1617V3.03658C28.0973 2.68401 28.2904 2.5083 28.6256 2.5083H32.3444ZM30.1943 8.02465H31.9918C33.0322 8.02465 33.8241 7.56225 33.8241 6.40627V6.08607C33.8241 4.94049 33.0311 4.42839 31.9745 4.42839H30.1943V8.02465ZM30.1943 13.7687H32.0438C33.2773 13.7687 34.1246 13.2058 34.1246 12.007V11.5839C34.1246 10.3852 33.3316 9.8222 32.0797 9.8222H30.1943V13.7687Z" fill="#655B6E"/>
<path d="M40.2213 3.58372C40.2211 3.73558 40.1908 3.88591 40.1321 4.02597C40.0734 4.16603 39.9875 4.29303 39.8793 4.39961C39.7711 4.50618 39.6428 4.59021 39.5019 4.6468C39.3609 4.7034 39.2102 4.73144 39.0583 4.7293C38.9073 4.73213 38.7572 4.70442 38.6171 4.64781C38.477 4.5912 38.3498 4.50686 38.2432 4.39987C38.1365 4.29287 38.0526 4.16542 37.9964 4.02517C37.9402 3.88492 37.9129 3.73477 37.9162 3.58372C37.9162 3.27713 38.038 2.9831 38.2548 2.76631C38.4716 2.54953 38.7656 2.42773 39.0722 2.42773C39.3788 2.42773 39.6728 2.54953 39.8896 2.76631C40.1064 2.9831 40.2282 3.27713 40.2282 3.58372H40.2213ZM40.0455 15.162C40.0455 15.4961 39.8687 15.6903 39.5173 15.6903H38.6006C38.2653 15.6903 38.0711 15.4961 38.0711 15.162V7.17882C38.0711 6.84359 38.2653 6.64938 38.6006 6.64938H39.5173C39.8513 6.64938 40.0455 6.82625 40.0455 7.17882V15.162Z" fill="#655B6E"/>
<path d="M49.0135 7.77736C49.0135 8.12415 48.8193 8.30564 48.4841 8.30564H48.0795C48.2866 8.66588 48.4013 9.07173 48.4136 9.48706V10.1922C48.4136 11.9898 47.142 13.1874 45.1884 13.1874C44.8262 13.193 44.4649 13.1518 44.1133 13.0648C44.0194 13.2313 43.9708 13.4194 43.9723 13.6104C43.9723 14.0867 44.3075 14.3156 45.0832 14.3156H45.5768C47.2853 14.3156 48.713 15.1965 48.713 16.9062V17.4703C48.713 19.1441 47.3258 20.166 45.2242 20.166C43.1088 20.166 41.717 19.1441 41.717 17.4703V17.0645C41.718 16.685 41.8119 16.3115 41.9904 15.9767C42.1689 15.6418 42.4267 15.3557 42.7412 15.1433C42.5588 14.9674 42.4136 14.7566 42.3143 14.5234C42.215 14.2903 42.1636 14.0396 42.1632 13.7862C42.1517 13.2408 42.3326 12.7087 42.6741 12.2834C42.1285 11.7724 41.8291 11.0499 41.8291 10.1864V9.48128C41.8291 7.66638 43.1504 6.48497 45.0716 6.48497C45.4129 6.48213 45.7523 6.53564 46.0762 6.64334H48.4899C48.8251 6.64334 49.0193 6.83755 49.0193 7.17278L49.0135 7.77736ZM44.852 15.9189C44.2174 15.9721 43.6891 16.3247 43.6891 17.0472V17.3824C43.6891 18.1049 44.3226 18.528 45.2219 18.528C46.1028 18.528 46.7374 18.1049 46.7374 17.3824V17.0298C46.7374 16.3074 46.1028 15.9189 45.3098 15.9189H44.852ZM46.438 9.56104C46.438 8.68018 45.9976 8.1334 45.1156 8.1334C44.2335 8.1334 43.7943 8.68018 43.7943 9.56104V10.1252C43.7943 11.006 44.2347 11.5528 45.1156 11.5528C45.9964 11.5528 46.438 11.006 46.438 10.1252V9.56104Z" fill="#655B6E"/>
<path d="M57.7205 2.5083C59.8013 2.5083 61.3341 3.74173 61.3341 5.78551V6.38547C61.3341 7.65705 60.6822 8.46623 59.9943 8.78182C60.8937 9.12861 61.6335 10.0337 61.6335 11.5307V12.2359C61.6335 14.4207 60.0302 15.69 57.6685 15.69H54.0029C53.6677 15.69 53.4734 15.4958 53.4734 15.1617V3.03658C53.4734 2.68401 53.6677 2.5083 54.0029 2.5083H57.7205ZM55.5716 8.02465H57.3691C58.4095 8.02465 59.2013 7.56225 59.2013 6.40627V6.08607C59.2013 4.94049 58.4083 4.42839 57.3518 4.42839H55.5716V8.02465ZM55.5716 13.7687H57.4211C58.6546 13.7687 59.5019 13.2058 59.5019 12.007V11.5839C59.5007 10.3852 58.7077 9.82567 57.4523 9.82567H55.5716V13.7687Z" fill="#655B6E"/>
<path d="M67.5904 7.1083V7.97644C67.5904 8.32901 67.5372 8.50472 67.4493 8.50472H67.291C66.4275 8.50472 65.4576 9.38558 65.4576 10.6202V15.1666C65.4576 15.5196 65.2815 15.6957 64.9293 15.6949H64.0126C63.6774 15.6949 63.4843 15.5007 63.4843 15.1666V7.17881C63.4843 6.84358 63.6774 6.64937 64.0126 6.64937H64.8218C65.157 6.64937 65.3512 6.82624 65.3512 7.17881V7.72444C65.6333 7.17881 66.4263 6.57886 67.2713 6.57886C67.2783 6.57886 67.5904 6.77306 67.5904 7.1083Z" fill="#655B6E"/>
<path d="M75.555 9.92746V12.4128C75.555 14.5098 74.1806 15.8669 72.0663 15.8669C69.952 15.8669 68.5764 14.5098 68.5764 12.4128V9.92746C68.5764 7.83051 69.9508 6.49072 72.0663 6.49072C74.1817 6.49072 75.555 7.83051 75.555 9.92746ZM70.5681 10.0153V12.3423C70.5681 13.452 71.1322 14.1572 72.0836 14.1572C73.035 14.1572 73.5864 13.452 73.5864 12.3423V10.0153C73.5864 8.92291 73.0396 8.20042 72.0836 8.20042C71.1276 8.20042 70.5681 8.92291 70.5681 10.0153Z" fill="#655B6E"/>
<path d="M79.8206 12.7159C79.8206 13.702 80.0842 14.073 80.7546 14.073C80.8371 14.0761 80.9197 14.0699 81.0008 14.0545C81.3708 14.0199 81.565 14.1436 81.565 14.495V15.1654C81.565 15.4822 81.4239 15.6937 81.1245 15.7642C80.8287 15.8251 80.5272 15.8545 80.2252 15.8521C78.7629 15.8521 77.8288 15.0764 77.8462 13.3147L77.8635 8.30932H77.104C76.7688 8.30932 76.5757 8.11627 76.5757 7.78103V7.17877C76.5757 6.82619 76.7688 6.64933 77.104 6.64933H77.8612L77.8797 4.10616C77.8797 3.75398 78.0558 3.57788 78.408 3.57788H79.342C79.6772 3.57788 79.8703 3.77093 79.8703 4.10616L79.853 6.64933H81.0517C81.3858 6.64933 81.58 6.82619 81.58 7.17877V7.77756C81.58 8.1128 81.4043 8.30585 81.0517 8.30585H79.8379L79.8206 12.7159Z" fill="#655B6E"/>
<path d="M85.0017 7.49554C85.2653 7.01927 85.8999 6.49099 87.0108 6.49099C88.6847 6.49099 89.6892 7.63657 89.6892 9.64566V15.162C89.6892 15.4961 89.5124 15.6903 89.1598 15.6903H88.2269C87.8917 15.6903 87.6975 15.4961 87.6975 15.162V10.0341C87.6975 9.04686 87.2744 8.39489 86.3935 8.39489C85.5843 8.39489 85.0063 9.08154 85.0063 10.0514V15.162C85.0063 15.4961 84.8295 15.6903 84.4769 15.6903H83.5614C83.2261 15.6903 83.0319 15.4961 83.0319 15.162V2.73751C83.0319 2.38494 83.2261 2.20923 83.5614 2.20923H84.4769C84.8121 2.20923 85.0063 2.38494 85.0063 2.73751L85.0017 7.49554Z" fill="#655B6E"/>
<path d="M93.319 12.5183C93.319 13.5229 93.8299 14.1575 94.6934 14.1575C95.4344 14.1575 95.8748 13.8396 96.0159 13.2408C96.1037 12.9241 96.2471 12.7472 96.58 12.7472H97.4955C97.8481 12.7472 98.0596 12.9587 97.9891 13.3113C97.6897 14.88 96.5268 15.8672 94.7293 15.8672C92.667 15.8672 91.3457 14.5447 91.3457 12.4131V9.94162C91.3457 7.82733 92.6173 6.48755 94.7293 6.48755C96.81 6.48755 98.0816 7.86201 98.0816 10.048V11.3381C98.0816 11.6721 97.9059 11.8663 97.5533 11.8663H93.319V12.5183ZM93.319 9.85955V10.3358H96.0864V9.85724C96.0864 8.81685 95.646 8.20072 94.7119 8.20072C93.8299 8.20072 93.319 8.83535 93.319 9.85724V9.85955Z" fill="#655B6E"/>
<path d="M103.911 7.1083V7.97644C103.911 8.32901 103.858 8.50472 103.77 8.50472H103.611C102.747 8.50472 101.778 9.38558 101.778 10.6202V15.1666C101.778 15.5192 101.602 15.6949 101.25 15.6949H100.339C100.004 15.6949 99.8098 15.5007 99.8098 15.1666V7.17881C99.8098 6.84358 100.004 6.64937 100.339 6.64937H101.148C101.484 6.64937 101.677 6.82624 101.677 7.17881V7.72444C101.959 7.17881 102.752 6.57886 103.598 6.57886C103.593 6.57886 103.911 6.77306 103.911 7.1083Z" fill="#655B6E"/>
<path d="M111.012 8.92291C111.066 9.2697 110.871 9.46969 110.519 9.46969H109.674C109.339 9.46969 109.198 9.31016 109.096 8.99342C109.036 8.76065 108.899 8.55523 108.706 8.41106C108.514 8.26689 108.278 8.19259 108.038 8.20042C107.333 8.20042 106.98 8.49982 106.98 9.16913C106.98 9.92746 107.65 10.0511 108.62 10.3332C110.219 10.7736 111.206 11.3898 111.206 13.0116C111.206 14.7733 110.077 15.8669 108.139 15.8669C106.36 15.8669 105.178 14.8265 104.949 13.3815C104.879 13.029 105.09 12.8348 105.443 12.8348H106.306C106.623 12.8348 106.769 12.9943 106.871 13.311C107.046 13.8393 107.523 14.1572 108.142 14.1572C108.794 14.1572 109.305 13.8393 109.305 13.1353C109.305 12.377 108.794 12.1481 107.825 11.8834C106.116 11.4083 105.094 10.8962 105.094 9.20497C105.094 7.53111 106.134 6.49072 108.107 6.49072C109.779 6.49072 110.784 7.49527 111.012 8.92291Z" fill="#655B6E"/>
<path d="M120.423 2.5083C122.504 2.5083 124.036 3.74173 124.036 5.78551V6.38547C124.036 7.65705 123.384 8.46623 122.697 8.78182C123.595 9.12861 124.335 10.0337 124.335 11.5307V12.2359C124.335 14.4207 122.732 15.69 120.37 15.69H116.704C116.37 15.69 116.176 15.4958 116.176 15.1617V3.03658C116.176 2.68401 116.37 2.5083 116.704 2.5083H120.423ZM118.273 8.02465H120.071C121.111 8.02465 121.904 7.56225 121.904 6.40627V6.08607C121.904 4.94049 121.111 4.42839 120.055 4.42839H118.274L118.273 8.02465ZM118.273 13.7687H120.123C121.356 13.7687 122.204 13.2058 122.204 12.007V11.5839C122.204 10.3852 121.41 9.8222 120.159 9.8222H118.273V13.7687Z" fill="#655B6E"/>
<path d="M128.301 3.58372C128.301 3.73564 128.271 3.88599 128.212 4.02605C128.153 4.16612 128.067 4.29311 127.959 4.39967C127.85 4.50623 127.722 4.59024 127.581 4.64682C127.44 4.7034 127.289 4.73144 127.137 4.7293C126.986 4.73245 126.836 4.70497 126.695 4.6485C126.555 4.59203 126.427 4.50774 126.321 4.40072C126.214 4.29369 126.129 4.16613 126.073 4.02572C126.017 3.88532 125.99 3.73496 125.993 3.58372C125.993 3.27713 126.115 2.9831 126.331 2.76631C126.548 2.54953 126.842 2.42773 127.149 2.42773C127.455 2.42773 127.749 2.54953 127.966 2.76631C128.183 2.9831 128.305 3.27713 128.305 3.58372H128.301ZM128.124 15.162C128.124 15.4961 127.949 15.6903 127.596 15.6903H126.679C126.344 15.6903 126.151 15.4961 126.151 15.162V7.17882C126.151 6.84359 126.344 6.64938 126.679 6.64938H127.596C127.931 6.64938 128.124 6.82625 128.124 7.17882V15.162Z" fill="#655B6E"/>
<path d="M137.1 7.77744C137.1 8.12423 136.905 8.30572 136.57 8.30572H136.165C136.373 8.66567 136.489 9.07164 136.501 9.48714V10.1923C136.501 11.9898 135.229 13.1874 133.276 13.1874C132.913 13.1932 132.552 13.152 132.2 13.0649C132.106 13.2311 132.057 13.4194 132.059 13.6105C132.059 14.0868 132.394 14.3157 133.169 14.3157H133.663C135.372 14.3157 136.8 15.1965 136.8 16.9062V17.4704C136.8 19.1442 135.413 20.1661 133.31 20.1661C131.196 20.1661 129.803 19.1442 129.803 17.4704V17.0646C129.804 16.6854 129.898 16.3122 130.076 15.9775C130.254 15.6428 130.512 15.3568 130.826 15.1445C130.644 14.9686 130.499 14.7578 130.399 14.5246C130.3 14.2915 130.249 14.0408 130.248 13.7874C130.236 13.2417 130.417 12.7094 130.76 12.2846C130.213 11.7737 129.914 11.0512 129.914 10.1877V9.48251C129.914 7.66762 131.235 6.48621 133.151 6.48621C133.492 6.48317 133.831 6.53669 134.155 6.64458H136.569C136.904 6.64458 137.098 6.83878 137.098 7.17402L137.1 7.77744ZM132.938 15.919C132.303 15.9722 131.775 16.3248 131.775 17.0473V17.3825C131.775 18.105 132.41 18.5281 133.308 18.5281C134.189 18.5281 134.823 18.105 134.823 17.3825V17.0299C134.823 16.3074 134.189 15.919 133.396 15.919H132.938ZM134.524 9.56112C134.524 8.68026 134.084 8.13348 133.203 8.13348C132.322 8.13348 131.88 8.68026 131.88 9.56112V10.1252C131.88 11.0061 132.321 11.5529 133.203 11.5529C134.085 11.5529 134.524 11.0061 134.524 10.1252V9.56112Z" fill="#655B6E"/>
<path d="M149.026 5.60995C149.06 5.95674 148.866 6.15673 148.514 6.15673H147.421C147.105 6.15673 146.946 5.97986 146.876 5.64462C146.699 4.76376 146.117 4.25745 145.236 4.25745C144.126 4.25745 143.544 4.95104 143.544 6.02031C143.544 7.20057 144.285 7.60633 145.66 8.08144C147.932 8.87444 149.377 9.79113 149.377 12.0649C149.377 14.6728 147.598 15.8716 145.307 15.8716C143.016 15.8716 141.43 14.6197 141.145 12.347C141.111 12.0002 141.304 11.8002 141.656 11.8002H142.749C143.067 11.8002 143.225 11.9759 143.296 12.3112C143.507 13.3515 144.264 13.9503 145.305 13.9503C146.38 13.9503 147.243 13.488 147.243 12.206C147.243 11.0072 146.45 10.6015 144.882 10.0558C142.996 9.40388 141.414 8.57504 141.414 6.12551C141.414 4.01122 142.841 2.33619 145.238 2.33619C147.351 2.33157 148.761 3.53033 149.026 5.60995Z" fill="#655B6E"/>
<path d="M153.096 3.58372C153.096 3.73558 153.066 3.88591 153.007 4.02597C152.948 4.16603 152.862 4.29303 152.754 4.39961C152.646 4.50618 152.518 4.59021 152.377 4.6468C152.236 4.7034 152.085 4.73144 151.933 4.7293C151.782 4.73261 151.631 4.70524 151.491 4.64884C151.35 4.59245 151.223 4.50819 151.116 4.40114C151.009 4.2941 150.924 4.16649 150.868 4.026C150.812 3.88552 150.784 3.73506 150.788 3.58372C150.788 3.27713 150.909 2.9831 151.126 2.76631C151.343 2.54953 151.637 2.42773 151.943 2.42773C152.25 2.42773 152.544 2.54953 152.761 2.76631C152.978 2.9831 153.099 3.27713 153.099 3.58372H153.096ZM152.92 15.162C152.92 15.4961 152.743 15.6903 152.391 15.6903H151.475C151.14 15.6903 150.946 15.4961 150.946 15.162V7.17882C150.946 6.84359 151.14 6.64938 151.475 6.64938H152.391C152.726 6.64938 152.92 6.82625 152.92 7.17882V15.162Z" fill="#655B6E"/>
<path d="M160.603 8.92291C160.656 9.2697 160.463 9.46969 160.11 9.46969H159.264C158.929 9.46969 158.788 9.31016 158.686 8.99342C158.627 8.76055 158.489 8.555 158.297 8.4108C158.105 8.2666 157.869 8.19238 157.629 8.20042C156.923 8.20042 156.571 8.49982 156.571 9.16913C156.571 9.92746 157.241 10.0511 158.21 10.3332C159.813 10.7736 160.801 11.3898 160.801 13.0116C160.801 14.7733 159.672 15.8669 157.735 15.8669C155.955 15.8669 154.773 14.8265 154.544 13.3815C154.474 13.029 154.685 12.8348 155.038 12.8348H155.902C156.218 12.8348 156.364 12.9943 156.466 13.311C156.641 13.8393 157.118 14.1572 157.737 14.1572C158.389 14.1572 158.9 13.8393 158.9 13.1353C158.9 12.377 158.389 12.1481 157.419 11.8834C155.71 11.4083 154.688 10.8962 154.688 9.20497C154.688 7.53111 155.728 6.49072 157.701 6.49072C159.369 6.49072 160.374 7.49527 160.603 8.92291Z" fill="#655B6E"/>
<path d="M164.903 12.7159C164.903 13.702 165.168 14.073 165.837 14.073C165.92 14.0761 166.003 14.0699 166.085 14.0545C166.455 14.0199 166.649 14.1436 166.649 14.495V15.1654C166.649 15.4822 166.508 15.6937 166.208 15.7642C165.912 15.8251 165.611 15.8545 165.309 15.8521C163.847 15.8521 162.913 15.0764 162.93 13.3147L162.947 8.30932H162.19C161.855 8.30932 161.661 8.11627 161.661 7.78103V7.17877C161.661 6.82619 161.855 6.64933 162.19 6.64933H162.947L162.965 4.10616C162.965 3.75398 163.141 3.57788 163.494 3.57788H164.428C164.762 3.57788 164.956 3.77093 164.956 4.10616L164.939 6.64933H166.138C166.472 6.64933 166.666 6.82619 166.666 7.17877V7.77756C166.666 8.1128 166.489 8.30585 166.138 8.30585H164.922L164.903 12.7159Z" fill="#655B6E"/>
<path d="M169.838 12.5183C169.838 13.5229 170.349 14.1575 171.213 14.1575C171.952 14.1575 172.394 13.8396 172.534 13.2408C172.623 12.9241 172.765 12.7472 173.098 12.7472H174.015C174.367 12.7472 174.579 12.9587 174.508 13.3113C174.209 14.88 173.046 15.8672 171.248 15.8672C169.186 15.8672 167.865 14.5447 167.865 12.4131V9.94162C167.865 7.82733 169.136 6.48755 171.248 6.48755C173.329 6.48755 174.601 7.86201 174.601 10.048V11.3381C174.601 11.6721 174.425 11.8663 174.072 11.8663H169.843L169.838 12.5183ZM169.838 9.85955V10.3358H172.604V9.85724C172.604 8.81685 172.164 8.20072 171.23 8.20072C170.349 8.20072 169.838 8.83535 169.838 9.85724V9.85955Z" fill="#655B6E"/>
<path d="M180.57 7.1083V7.97644C180.57 8.32901 180.518 8.50472 180.429 8.50472H180.271C179.407 8.50472 178.439 9.38558 178.439 10.6202V15.1666C178.439 15.5196 178.262 15.6957 177.909 15.6949H176.994C176.658 15.6949 176.464 15.5007 176.464 15.1666V7.17881C176.464 6.84358 176.658 6.64937 176.994 6.64937H177.803C178.137 6.64937 178.331 6.82624 178.331 7.17881V7.72444C178.613 7.17881 179.406 6.57886 180.252 6.57886C180.253 6.57886 180.57 6.77306 180.57 7.1083Z" fill="#655B6E"/>
<path d="M187.673 8.92291C187.726 9.2697 187.532 9.46969 187.179 9.46969H186.333C185.999 9.46969 185.858 9.31016 185.755 8.99342C185.695 8.76064 185.558 8.55512 185.366 8.41091C185.174 8.2667 184.938 8.19243 184.698 8.20042C183.993 8.20042 183.64 8.49982 183.64 9.16913C183.64 9.92746 184.31 10.0511 185.28 10.3332C186.883 10.7736 187.87 11.3898 187.87 13.0116C187.87 14.7733 186.742 15.8669 184.803 15.8669C183.023 15.8669 181.843 14.8265 181.614 13.3815C181.544 13.029 181.755 12.8348 182.108 12.8348H182.97C183.288 12.8348 183.432 12.9943 183.534 13.311C183.711 13.8393 184.186 14.1572 184.806 14.1572C185.458 14.1572 185.969 13.8393 185.969 13.1353C185.969 12.377 185.458 12.1481 184.489 11.8834C182.779 11.4083 181.757 10.8962 181.757 9.20497C181.757 7.53111 182.798 6.49072 184.77 6.49072C186.439 6.49072 187.444 7.49527 187.673 8.92291Z" fill="#655B6E"/>
<path d="M11.5922 32.0001H0V0.000244141H1.50278V30.4951H11.5899C13.8013 30.4951 15.9653 29.9009 17.6831 28.8224C20.2262 27.2283 21.6781 24.7232 21.6781 21.9512C21.6781 19.1791 20.2297 16.6753 17.6865 15.0812C15.9699 14.0015 13.8059 13.4085 11.5945 13.4085H10.0339V11.9069H11.5922C14.0833 11.9069 16.5305 12.582 18.4853 13.8096C21.4724 15.6858 23.1855 18.6543 23.1855 21.9547C23.1855 25.255 21.4724 28.2247 18.4853 30.1009C16.5305 31.3274 14.0833 32.0001 11.5922 32.0001Z" fill="#655B6E"/>
<path d="M11.5922 28.6556H3.34424V0H4.85511V27.1506H11.598C13.1886 27.1506 14.7191 26.7379 15.9121 25.9946C17.4553 25.0247 18.3396 23.5531 18.3396 21.9556C18.3396 20.358 17.4553 18.883 15.9063 17.9177C14.7145 17.1687 13.1828 16.7617 11.5922 16.7617H10.0339V15.259H11.5922C13.4626 15.259 15.2786 15.7526 16.7062 16.6461C18.698 17.8969 19.8401 19.8332 19.8401 21.9637C19.8401 24.0941 18.698 26.0258 16.7062 27.2812C15.2786 28.1609 13.4626 28.6556 11.5922 28.6556Z" fill="#655B6E"/>
<path d="M11.5922 25.316H6.6897V0H8.19248V23.8051H11.5899C13.5932 23.8051 14.9885 22.8283 14.9885 21.9556C14.9885 21.0828 13.5932 20.106 11.5899 20.106H10.0339V18.6032H11.5922C14.3423 18.6032 16.4959 20.0794 16.4959 21.9625C16.4959 23.8456 14.3423 25.316 11.5922 25.316Z" fill="#655B6E"/>
<path d="M15.9063 6.01091C17.4495 6.98078 18.3339 8.45234 18.3339 10.0499C18.3341 10.5424 18.2492 11.0313 18.083 11.4949C18.5415 11.7121 18.9873 11.9552 19.4182 12.2232C19.6966 11.5325 19.8395 10.7946 19.839 10.0499C19.839 7.92406 18.6969 5.98779 16.7051 4.73239C15.2775 3.83535 13.4614 3.34521 11.591 3.34521H10.0339V4.85493H11.5922C13.1782 4.85493 14.7145 5.26183 15.9063 6.01091Z" fill="#655B6E"/>
<path d="M17.6865 3.1778C20.2297 4.77189 21.6804 7.28269 21.6804 10.049C21.682 11.1838 21.4313 12.3048 20.9464 13.3308C21.349 13.6702 21.7293 14.035 22.085 14.4232C22.8106 13.0796 23.1889 11.576 23.1855 10.049C23.1855 6.74747 21.4724 3.77891 18.4853 1.90275C16.5305 0.67625 14.0833 0 11.5922 0H10.0339V1.50278H11.5922C13.8036 1.50278 15.9676 2.09926 17.6865 3.1778Z" fill="#655B6E"/>
<path d="M14.9908 10.049C14.99 10.1772 14.9641 10.3041 14.9145 10.4224C15.4081 10.531 15.8947 10.6617 16.371 10.8166C16.4533 10.569 16.4954 10.3099 16.4959 10.049C16.4959 8.16473 14.3423 6.6897 11.5922 6.6897H10.0339V8.19247H11.5922C13.4025 8.19479 14.9908 9.06062 14.9908 10.049Z" fill="#655B6E"/>
<path d="M32.4553 25.5472V27.361C32.4553 28.8233 31.6461 29.7388 30.3074 29.7388C28.9688 29.7388 28.1689 28.8233 28.1689 27.361V25.5472C28.1689 24.1011 28.9561 23.1682 30.3074 23.1682C31.6588 23.1682 32.4553 24.1046 32.4553 25.5472ZM28.9561 25.5634V27.3436C28.9561 28.4037 29.4613 29.0117 30.3074 29.0117C31.1536 29.0117 31.6507 28.4037 31.6507 27.3436V25.5634C31.6507 24.523 31.1721 23.8953 30.3074 23.8953C29.4428 23.8953 28.9561 24.523 28.9561 25.5669V25.5634Z" fill="#655B6E"/>
<path d="M36.766 23.7449C36.7707 23.7764 36.7679 23.8085 36.758 23.8387C36.748 23.8688 36.7311 23.8963 36.7086 23.9188C36.6862 23.9412 36.6587 23.9581 36.6285 23.9681C36.5984 23.9781 36.5663 23.9808 36.5348 23.9761H34.4991V26.0719H36.3903C36.4217 26.0675 36.4537 26.0704 36.4838 26.0805C36.5138 26.0905 36.5412 26.1074 36.5636 26.1298C36.586 26.1523 36.6029 26.1796 36.613 26.2097C36.623 26.2397 36.6259 26.2717 36.6215 26.3031V26.5505C36.6259 26.5819 36.623 26.6139 36.613 26.644C36.6029 26.674 36.586 26.7014 36.5636 26.7238C36.5412 26.7462 36.5138 26.7631 36.4838 26.7731C36.4537 26.7832 36.4217 26.7861 36.3903 26.7817H34.4991V29.4254C34.5038 29.4569 34.5011 29.489 34.4911 29.5192C34.4811 29.5493 34.4642 29.5768 34.4418 29.5992C34.4193 29.6217 34.3918 29.6386 34.3617 29.6486C34.3315 29.6585 34.2994 29.6613 34.2679 29.6566H33.9512C33.9198 29.661 33.8878 29.6581 33.8577 29.6481C33.8277 29.638 33.8003 29.6211 33.7779 29.5987C33.7555 29.5763 33.7386 29.549 33.7285 29.5189C33.7185 29.4888 33.7156 29.4568 33.72 29.4254V23.4883C33.7156 23.4569 33.7185 23.4249 33.7285 23.3948C33.7386 23.3648 33.7555 23.3374 33.7779 23.315C33.8003 23.2926 33.8277 23.2757 33.8577 23.2656C33.8878 23.2556 33.9198 23.2527 33.9512 23.2571H36.5348C36.5663 23.2524 36.5984 23.2552 36.6285 23.2651C36.6587 23.2751 36.6862 23.292 36.7086 23.3145C36.7311 23.337 36.748 23.3644 36.758 23.3946C36.7679 23.4248 36.7707 23.4569 36.766 23.4883V23.7449Z" fill="#655B6E"/>
<path d="M42.9251 24.6777C42.9322 24.7091 42.9316 24.7417 42.9232 24.7728C42.9149 24.8038 42.8991 24.8324 42.8773 24.856C42.8554 24.8795 42.8281 24.8974 42.7978 24.9081C42.7674 24.9187 42.7349 24.9218 42.7031 24.917H42.3691C42.3381 24.9192 42.3071 24.9152 42.2777 24.9051C42.2484 24.8951 42.2214 24.8792 42.1983 24.8585C42.1752 24.8378 42.1566 24.8127 42.1434 24.7846C42.1302 24.7565 42.1228 24.7261 42.1217 24.6951C42.0361 24.1899 41.694 23.8986 41.1888 23.8986C40.5391 23.8986 40.2051 24.3101 40.2051 24.917C40.2051 25.6014 40.6409 25.8152 41.3425 26.0638C42.4384 26.4649 43.1135 26.8591 43.1135 27.9538C43.1135 29.1861 42.2754 29.7421 41.2235 29.7421C40.1715 29.7421 39.4178 29.1514 39.2814 28.0995C39.2743 28.0681 39.2749 28.0355 39.2833 28.0044C39.2916 27.9734 39.3074 27.9448 39.3293 27.9212C39.3511 27.8977 39.3784 27.8798 39.4088 27.8691C39.4391 27.8585 39.4716 27.8554 39.5034 27.8602H39.8375C39.8684 27.858 39.8994 27.862 39.9288 27.8721C39.9581 27.8821 39.9851 27.898 40.0082 27.9187C40.0313 27.9394 40.05 27.9645 40.0631 27.9926C40.0763 28.0207 40.0837 28.0511 40.0848 28.0821C40.1877 28.6728 40.6247 29.015 41.2235 29.015C41.8223 29.015 42.3263 28.7491 42.3263 27.9966C42.3263 27.2949 41.8731 27.0984 41.0547 26.799C40.1646 26.4822 39.4201 26.1146 39.4201 24.9494C39.4201 23.9564 40.0617 23.1692 41.1911 23.1692C42.1471 23.1715 42.806 23.7275 42.9251 24.6777Z" fill="#655B6E"/>
<path d="M48.4773 25.5472V27.361C48.4773 28.8233 47.6681 29.7388 46.3306 29.7388C44.9932 29.7388 44.1909 28.8233 44.1909 27.361V25.5472C44.1909 24.1011 44.9781 23.1682 46.3306 23.1682C47.6831 23.1682 48.4773 24.1046 48.4773 25.5472ZM44.9781 25.5634V27.3436C44.9781 28.4037 45.4833 29.0117 46.3306 29.0117C47.178 29.0117 47.6727 28.4037 47.6727 27.3436V25.5634C47.6727 24.523 47.1942 23.8953 46.3306 23.8953C45.4671 23.8953 44.9781 24.523 44.9781 25.5669V25.5634Z" fill="#655B6E"/>
<path d="M53.5417 27.7322C53.5417 29.0408 52.8054 29.7424 51.6251 29.7424C50.4449 29.7424 49.7004 29.0408 49.7004 27.7322V23.4886C49.696 23.4572 49.6989 23.4252 49.709 23.3951C49.719 23.365 49.7359 23.3377 49.7583 23.3153C49.7808 23.2929 49.8081 23.276 49.8381 23.2659C49.8682 23.2559 49.9002 23.2529 49.9316 23.2574H50.2564C50.2878 23.2529 50.3198 23.2559 50.3499 23.2659C50.38 23.276 50.4073 23.2929 50.4297 23.3153C50.4521 23.3377 50.469 23.365 50.4791 23.3951C50.4891 23.4252 50.4921 23.4572 50.4876 23.4886V27.6975C50.4876 28.5784 50.9234 29.0153 51.6251 29.0153C52.3268 29.0153 52.7626 28.5784 52.7626 27.6975V23.4886C52.7582 23.4572 52.7611 23.4252 52.7712 23.3951C52.7812 23.365 52.7981 23.3377 52.8205 23.3153C52.843 23.2929 52.8703 23.276 52.9003 23.2659C52.9304 23.2559 52.9624 23.2529 52.9938 23.2574H53.3105C53.3419 23.2529 53.3739 23.2559 53.404 23.2659C53.4341 23.276 53.4614 23.2929 53.4838 23.3153C53.5062 23.3377 53.5231 23.365 53.5332 23.3951C53.5432 23.4252 53.5462 23.4572 53.5417 23.4886V27.7322Z" fill="#655B6E"/>
<path d="M58.5459 23.7452C58.5503 23.7766 58.5474 23.8086 58.5373 23.8387C58.5273 23.8687 58.5104 23.8961 58.4879 23.9185C58.4655 23.9409 58.4382 23.9578 58.4081 23.9679C58.3781 23.9779 58.3461 23.9808 58.3147 23.9764H56.8743V29.4257C56.8787 29.4571 56.8758 29.4891 56.8658 29.5192C56.8557 29.5492 56.8388 29.5766 56.8164 29.599C56.794 29.6214 56.7667 29.6383 56.7366 29.6484C56.7065 29.6584 56.6745 29.6613 56.6431 29.6569H56.3264C56.295 29.6613 56.263 29.6584 56.2329 29.6484C56.2028 29.6383 56.1755 29.6214 56.1531 29.599C56.1307 29.5766 56.1138 29.5492 56.1037 29.5192C56.0937 29.4891 56.0908 29.4571 56.0952 29.4257V23.9764H54.6618C54.6304 23.9808 54.5984 23.9779 54.5683 23.9679C54.5382 23.9578 54.5109 23.9409 54.4885 23.9185C54.4661 23.8961 54.4492 23.8687 54.4391 23.8387C54.4291 23.8086 54.4261 23.7766 54.4306 23.7452V23.4886C54.4261 23.4572 54.4291 23.4252 54.4391 23.3951C54.4492 23.365 54.4661 23.3377 54.4885 23.3153C54.5109 23.2929 54.5382 23.276 54.5683 23.2659C54.5984 23.2559 54.6304 23.2529 54.6618 23.2574H58.3147C58.3461 23.2529 58.3781 23.2559 58.4081 23.2659C58.4382 23.276 58.4655 23.2929 58.4879 23.3153C58.5104 23.3377 58.5273 23.365 58.5373 23.3951C58.5474 23.4252 58.5503 23.4572 58.5459 23.4886V23.7452Z" fill="#655B6E"/>
<path d="M63.2842 29.4257C63.2887 29.4571 63.2858 29.4891 63.2757 29.5192C63.2657 29.5492 63.2487 29.5766 63.2263 29.599C63.2039 29.6214 63.1766 29.6383 63.1465 29.6484C63.1164 29.6584 63.0844 29.6613 63.0531 29.6569H62.7282C62.6968 29.6613 62.6648 29.6584 62.6348 29.6484C62.6047 29.6383 62.5774 29.6214 62.5549 29.599C62.5325 29.5766 62.5156 29.5492 62.5056 29.5192C62.4955 29.4891 62.4926 29.4571 62.497 29.4257V26.6964H60.2475V29.4257C60.2519 29.4571 60.249 29.4891 60.2389 29.5192C60.2289 29.5492 60.212 29.5766 60.1896 29.599C60.1671 29.6214 60.1398 29.6383 60.1097 29.6484C60.0797 29.6584 60.0477 29.6613 60.0163 29.6569H59.7007C59.6693 29.6613 59.6373 29.6584 59.6072 29.6484C59.5772 29.6383 59.5498 29.6214 59.5274 29.599C59.505 29.5766 59.4881 29.5492 59.4781 29.5192C59.468 29.4891 59.4651 29.4571 59.4695 29.4257V23.4886C59.4651 23.4572 59.468 23.4252 59.4781 23.3951C59.4881 23.365 59.505 23.3377 59.5274 23.3153C59.5498 23.2929 59.5772 23.276 59.6072 23.2659C59.6373 23.2559 59.6693 23.2529 59.7007 23.2574H60.0163C60.0477 23.2529 60.0797 23.2559 60.1097 23.2659C60.1398 23.276 60.1671 23.2929 60.1896 23.3153C60.212 23.3377 60.2289 23.365 60.2389 23.3951C60.249 23.4252 60.2519 23.4572 60.2475 23.4886V25.9786H62.497V23.4886C62.4926 23.4572 62.4955 23.4252 62.5056 23.3951C62.5156 23.365 62.5325 23.3377 62.5549 23.3153C62.5774 23.2929 62.6047 23.276 62.6348 23.2659C62.6648 23.2559 62.6968 23.2529 62.7282 23.2574H63.0531C63.0844 23.2529 63.1164 23.2559 63.1465 23.2659C63.1766 23.276 63.2039 23.2929 63.2263 23.3153C63.2487 23.3377 63.2657 23.365 63.2757 23.3951C63.2858 23.4252 63.2887 23.4572 63.2842 23.4886V29.4257Z" fill="#655B6E"/>
<path d="M70.0941 23.7452C70.0985 23.7766 70.0957 23.8086 70.0856 23.8387C70.0756 23.8687 70.0586 23.8961 70.0362 23.9185C70.0137 23.9409 69.9864 23.9578 69.9563 23.9679C69.9263 23.9779 69.8943 23.9808 69.8629 23.9764H68.4261V29.4257C68.4305 29.4571 68.4276 29.4891 68.4175 29.5192C68.4075 29.5492 68.3906 29.5766 68.3682 29.599C68.3457 29.6214 68.3183 29.6383 68.2883 29.6484C68.2582 29.6584 68.2262 29.6613 68.1948 29.6569H67.8781C67.8467 29.6613 67.8147 29.6584 67.7846 29.6484C67.7545 29.6383 67.7273 29.6214 67.7049 29.599C67.6825 29.5766 67.6656 29.5492 67.6555 29.5192C67.6455 29.4891 67.6425 29.4571 67.647 29.4257V23.9764H66.21C66.1786 23.9808 66.1466 23.9779 66.1165 23.9679C66.0864 23.9578 66.0591 23.9409 66.0367 23.9185C66.0143 23.8961 65.9974 23.8687 65.9873 23.8387C65.9773 23.8086 65.9743 23.7766 65.9788 23.7452V23.4886C65.9743 23.4572 65.9773 23.4252 65.9873 23.3951C65.9974 23.365 66.0143 23.3377 66.0367 23.3153C66.0591 23.2929 66.0864 23.276 66.1165 23.2659C66.1466 23.2559 66.1786 23.2529 66.21 23.2574H69.8629C69.8943 23.2529 69.9263 23.2559 69.9563 23.2659C69.9864 23.276 70.0137 23.2929 70.0362 23.3153C70.0586 23.3377 70.0756 23.365 70.0856 23.3951C70.0957 23.4252 70.0985 23.4572 70.0941 23.4886V23.7452Z" fill="#655B6E"/>
<path d="M74.1574 23.7449C74.1619 23.7763 74.1589 23.8083 74.1489 23.8384C74.1388 23.8685 74.1219 23.8958 74.0995 23.9182C74.0771 23.9406 74.0498 23.9575 74.0197 23.9676C73.9896 23.9776 73.9576 23.9806 73.9262 23.9761H71.7958V26.0095H73.806C73.8374 26.0051 73.8694 26.008 73.8995 26.018C73.9295 26.0281 73.9569 26.045 73.9793 26.0674C74.0017 26.0898 74.0186 26.1172 74.0287 26.1472C74.0387 26.1773 74.0416 26.2093 74.0372 26.2407V26.4973C74.0419 26.5288 74.0391 26.5609 74.0292 26.591C74.0192 26.6212 74.0023 26.6487 73.9798 26.6711C73.9574 26.6936 73.9299 26.7105 73.8997 26.7205C73.8695 26.7304 73.8374 26.7332 73.806 26.7285H71.7958V28.9445H73.9262C73.9576 28.9401 73.9896 28.943 74.0197 28.9531C74.0498 28.9631 74.0771 28.98 74.0995 29.0025C74.1219 29.0249 74.1388 29.0522 74.1489 29.0823C74.1589 29.1123 74.1619 29.1443 74.1574 29.1757V29.4324C74.1619 29.4638 74.1589 29.4957 74.1489 29.5258C74.1388 29.5559 74.1219 29.5832 74.0995 29.6056C74.0771 29.6281 74.0498 29.645 74.0197 29.655C73.9896 29.6651 73.9576 29.668 73.9262 29.6636H71.2478C71.2164 29.6682 71.1843 29.6655 71.1541 29.6555C71.1239 29.6456 71.0965 29.6287 71.074 29.6062C71.0515 29.5837 71.0346 29.5563 71.0247 29.5261C71.0147 29.4959 71.0119 29.4638 71.0166 29.4324V23.4883C71.0119 23.4569 71.0147 23.4248 71.0247 23.3946C71.0346 23.3644 71.0515 23.337 71.074 23.3145C71.0965 23.292 71.1239 23.2751 71.1541 23.2651C71.1843 23.2552 71.2164 23.2524 71.2478 23.2571H73.9262C73.9576 23.2527 73.9896 23.2556 74.0197 23.2656C74.0498 23.2757 74.0771 23.2926 74.0995 23.315C74.1219 23.3374 74.1388 23.3648 74.1489 23.3948C74.1589 23.4249 74.1619 23.4569 74.1574 23.4883V23.7449Z" fill="#655B6E"/>
<path d="M79.1952 29.3826C79.2726 29.5456 79.2033 29.6566 79.0241 29.6566H78.6646C78.6078 29.6599 78.5514 29.6461 78.5026 29.6171C78.4538 29.588 78.4148 29.545 78.3906 29.4936L77.119 27.0129L75.8474 29.4936C75.8233 29.545 75.7843 29.588 75.7354 29.6171C75.6866 29.6461 75.6302 29.6599 75.5735 29.6566H75.2059C75.0267 29.6566 74.9573 29.541 75.0348 29.3826L76.5491 26.4141L75.0949 23.531C75.0174 23.368 75.0856 23.2571 75.266 23.2571H75.6128C75.6695 23.2538 75.7259 23.2675 75.7747 23.2966C75.8236 23.3256 75.8626 23.3686 75.8867 23.4201L77.119 25.8153L78.3501 23.4201C78.3743 23.3686 78.4133 23.3256 78.4621 23.2966C78.511 23.2675 78.5674 23.2538 78.6241 23.2571H78.9709C79.1501 23.2571 79.2183 23.3727 79.142 23.531L77.6901 26.4141L79.1952 29.3826Z" fill="#655B6E"/>
<path d="M84.3357 29.4002C84.3878 29.5539 84.3103 29.6568 84.1392 29.6568H83.8144C83.7539 29.6618 83.6937 29.6446 83.645 29.6085C83.5963 29.5723 83.5624 29.5196 83.5497 29.4603L83.13 27.9887H81.1499L80.7302 29.4603C80.7175 29.5196 80.6836 29.5723 80.6349 29.6085C80.5862 29.6446 80.526 29.6618 80.4655 29.6568H80.1407C79.9696 29.6568 79.8921 29.5539 79.9442 29.4002L81.6377 23.4538C81.6504 23.3945 81.6843 23.3418 81.733 23.3057C81.7817 23.2695 81.8419 23.2523 81.9024 23.2573H82.3902C82.4502 23.25 82.5106 23.2665 82.5586 23.3033C82.6065 23.34 82.6382 23.394 82.6468 23.4538L84.3357 29.4002ZM82.959 27.2697L82.1498 24.404L81.3279 27.2697H82.959Z" fill="#655B6E"/>
<path d="M88.8187 24.6777C88.8259 24.7091 88.8252 24.7417 88.8169 24.7728C88.8086 24.8038 88.7928 24.8324 88.7709 24.856C88.749 24.8795 88.7217 24.8974 88.6914 24.9081C88.6611 24.9187 88.6286 24.9218 88.5968 24.917H88.2627C88.2317 24.9194 88.2005 24.9155 88.171 24.9055C88.1416 24.8955 88.1144 24.8797 88.0912 24.8589C88.068 24.8382 88.0492 24.813 88.036 24.7849C88.0227 24.7567 88.0153 24.7262 88.0142 24.6951C87.9286 24.1899 87.5865 23.8986 87.0824 23.8986C86.4316 23.8986 86.0987 24.3101 86.0987 24.917C86.0987 25.6014 86.5345 25.8152 87.2362 26.0638C88.3309 26.4649 89.0072 26.8591 89.0072 27.9538C89.0072 29.1861 88.1691 29.7421 87.116 29.7421C86.0629 29.7421 85.3115 29.1514 85.1739 28.0995C85.167 28.068 85.1679 28.0354 85.1764 28.0044C85.1849 27.9733 85.2008 27.9448 85.2227 27.9213C85.2447 27.8978 85.272 27.8799 85.3023 27.8693C85.3327 27.8586 85.3652 27.8555 85.397 27.8602H85.7299C85.761 27.8578 85.7922 27.8617 85.8216 27.8717C85.8511 27.8817 85.8782 27.8975 85.9014 27.9183C85.9247 27.939 85.9434 27.9642 85.9567 27.9923C85.9699 28.0205 85.9773 28.051 85.9785 28.0821C86.0814 28.6728 86.5172 29.015 87.116 29.015C87.7148 29.015 88.2199 28.7491 88.2199 27.9966C88.2199 27.2949 87.7668 27.0984 86.9484 26.799C86.0594 26.4822 85.315 26.1146 85.315 24.9494C85.315 23.9564 85.9565 23.1692 87.0859 23.1692C88.0408 23.1715 88.6985 23.7275 88.8187 24.6777Z" fill="#655B6E"/>
<path d="M32.4553 25.5472V27.361C32.4553 28.8233 31.6461 29.7388 30.3074 29.7388C28.9688 29.7388 28.1689 28.8233 28.1689 27.361V25.5472C28.1689 24.1011 28.9561 23.1682 30.3074 23.1682C31.6588 23.1682 32.4553 24.1046 32.4553 25.5472ZM28.9561 25.5634V27.3436C28.9561 28.4037 29.4613 29.0117 30.3074 29.0117C31.1536 29.0117 31.6507 28.4037 31.6507 27.3436V25.5634C31.6507 24.523 31.1721 23.8953 30.3074 23.8953C29.4428 23.8953 28.9561 24.523 28.9561 25.5669V25.5634Z" fill="#655B6E"/>
<path d="M36.766 23.7449C36.7707 23.7764 36.7679 23.8085 36.758 23.8387C36.748 23.8688 36.7311 23.8963 36.7086 23.9188C36.6862 23.9412 36.6587 23.9581 36.6285 23.9681C36.5984 23.9781 36.5663 23.9808 36.5348 23.9761H34.4991V26.0719H36.3903C36.4217 26.0675 36.4537 26.0704 36.4838 26.0805C36.5138 26.0905 36.5412 26.1074 36.5636 26.1298C36.586 26.1523 36.6029 26.1796 36.613 26.2097C36.623 26.2397 36.6259 26.2717 36.6215 26.3031V26.5505C36.6259 26.5819 36.623 26.6139 36.613 26.644C36.6029 26.674 36.586 26.7014 36.5636 26.7238C36.5412 26.7462 36.5138 26.7631 36.4838 26.7731C36.4537 26.7832 36.4217 26.7861 36.3903 26.7817H34.4991V29.4254C34.5038 29.4569 34.5011 29.489 34.4911 29.5192C34.4811 29.5493 34.4642 29.5768 34.4418 29.5992C34.4193 29.6217 34.3918 29.6386 34.3617 29.6486C34.3315 29.6585 34.2994 29.6613 34.2679 29.6566H33.9512C33.9198 29.661 33.8878 29.6581 33.8577 29.6481C33.8277 29.638 33.8003 29.6211 33.7779 29.5987C33.7555 29.5763 33.7386 29.549 33.7285 29.5189C33.7185 29.4888 33.7156 29.4568 33.72 29.4254V23.4883C33.7156 23.4569 33.7185 23.4249 33.7285 23.3948C33.7386 23.3648 33.7555 23.3374 33.7779 23.315C33.8003 23.2926 33.8277 23.2757 33.8577 23.2656C33.8878 23.2556 33.9198 23.2527 33.9512 23.2571H36.5348C36.5663 23.2524 36.5984 23.2552 36.6285 23.2651C36.6587 23.2751 36.6862 23.292 36.7086 23.3145C36.7311 23.337 36.748 23.3644 36.758 23.3946C36.7679 23.4248 36.7707 23.4569 36.766 23.4883V23.7449Z" fill="#655B6E"/>
<path d="M42.9251 24.6777C42.9322 24.7091 42.9316 24.7417 42.9232 24.7728C42.9149 24.8038 42.8991 24.8324 42.8773 24.856C42.8554 24.8795 42.8281 24.8974 42.7978 24.9081C42.7674 24.9187 42.7349 24.9218 42.7031 24.917H42.3691C42.3381 24.9192 42.3071 24.9152 42.2777 24.9051C42.2484 24.8951 42.2214 24.8792 42.1983 24.8585C42.1752 24.8378 42.1566 24.8127 42.1434 24.7846C42.1302 24.7565 42.1228 24.7261 42.1217 24.6951C42.0361 24.1899 41.694 23.8986 41.1888 23.8986C40.5391 23.8986 40.2051 24.3101 40.2051 24.917C40.2051 25.6014 40.6409 25.8152 41.3425 26.0638C42.4384 26.4649 43.1135 26.8591 43.1135 27.9538C43.1135 29.1861 42.2754 29.7421 41.2235 29.7421C40.1715 29.7421 39.4178 29.1514 39.2814 28.0995C39.2743 28.0681 39.2749 28.0355 39.2833 28.0044C39.2916 27.9734 39.3074 27.9448 39.3293 27.9212C39.3511 27.8977 39.3784 27.8798 39.4088 27.8691C39.4391 27.8585 39.4716 27.8554 39.5034 27.8602H39.8375C39.8684 27.858 39.8994 27.862 39.9288 27.8721C39.9581 27.8821 39.9851 27.898 40.0082 27.9187C40.0313 27.9394 40.05 27.9645 40.0631 27.9926C40.0763 28.0207 40.0837 28.0511 40.0848 28.0821C40.1877 28.6728 40.6247 29.015 41.2235 29.015C41.8223 29.015 42.3263 28.7491 42.3263 27.9966C42.3263 27.2949 41.8731 27.0984 41.0547 26.799C40.1646 26.4822 39.4201 26.1146 39.4201 24.9494C39.4201 23.9564 40.0617 23.1692 41.1911 23.1692C42.1471 23.1715 42.806 23.7275 42.9251 24.6777Z" fill="#655B6E"/>
<path d="M48.4773 25.5472V27.361C48.4773 28.8233 47.6681 29.7388 46.3306 29.7388C44.9932 29.7388 44.1909 28.8233 44.1909 27.361V25.5472C44.1909 24.1011 44.9781 23.1682 46.3306 23.1682C47.6831 23.1682 48.4773 24.1046 48.4773 25.5472ZM44.9781 25.5634V27.3436C44.9781 28.4037 45.4833 29.0117 46.3306 29.0117C47.178 29.0117 47.6727 28.4037 47.6727 27.3436V25.5634C47.6727 24.523 47.1942 23.8953 46.3306 23.8953C45.4671 23.8953 44.9781 24.523 44.9781 25.5669V25.5634Z" fill="#655B6E"/>
<path d="M53.5417 27.7322C53.5417 29.0408 52.8054 29.7424 51.6251 29.7424C50.4449 29.7424 49.7004 29.0408 49.7004 27.7322V23.4886C49.696 23.4572 49.6989 23.4252 49.709 23.3951C49.719 23.365 49.7359 23.3377 49.7583 23.3153C49.7808 23.2929 49.8081 23.276 49.8381 23.2659C49.8682 23.2559 49.9002 23.2529 49.9316 23.2574H50.2564C50.2878 23.2529 50.3198 23.2559 50.3499 23.2659C50.38 23.276 50.4073 23.2929 50.4297 23.3153C50.4521 23.3377 50.469 23.365 50.4791 23.3951C50.4891 23.4252 50.4921 23.4572 50.4876 23.4886V27.6975C50.4876 28.5784 50.9234 29.0153 51.6251 29.0153C52.3268 29.0153 52.7626 28.5784 52.7626 27.6975V23.4886C52.7582 23.4572 52.7611 23.4252 52.7712 23.3951C52.7812 23.365 52.7981 23.3377 52.8205 23.3153C52.843 23.2929 52.8703 23.276 52.9003 23.2659C52.9304 23.2559 52.9624 23.2529 52.9938 23.2574H53.3105C53.3419 23.2529 53.3739 23.2559 53.404 23.2659C53.4341 23.276 53.4614 23.2929 53.4838 23.3153C53.5062 23.3377 53.5231 23.365 53.5332 23.3951C53.5432 23.4252 53.5462 23.4572 53.5417 23.4886V27.7322Z" fill="#655B6E"/>
<path d="M58.5459 23.7452C58.5503 23.7766 58.5474 23.8086 58.5373 23.8387C58.5273 23.8687 58.5104 23.8961 58.4879 23.9185C58.4655 23.9409 58.4382 23.9578 58.4081 23.9679C58.3781 23.9779 58.3461 23.9808 58.3147 23.9764H56.8743V29.4257C56.8787 29.4571 56.8758 29.4891 56.8658 29.5192C56.8557 29.5492 56.8388 29.5766 56.8164 29.599C56.794 29.6214 56.7667 29.6383 56.7366 29.6484C56.7065 29.6584 56.6745 29.6613 56.6431 29.6569H56.3264C56.295 29.6613 56.263 29.6584 56.2329 29.6484C56.2028 29.6383 56.1755 29.6214 56.1531 29.599C56.1307 29.5766 56.1138 29.5492 56.1037 29.5192C56.0937 29.4891 56.0908 29.4571 56.0952 29.4257V23.9764H54.6618C54.6304 23.9808 54.5984 23.9779 54.5683 23.9679C54.5382 23.9578 54.5109 23.9409 54.4885 23.9185C54.4661 23.8961 54.4492 23.8687 54.4391 23.8387C54.4291 23.8086 54.4261 23.7766 54.4306 23.7452V23.4886C54.4261 23.4572 54.4291 23.4252 54.4391 23.3951C54.4492 23.365 54.4661 23.3377 54.4885 23.3153C54.5109 23.2929 54.5382 23.276 54.5683 23.2659C54.5984 23.2559 54.6304 23.2529 54.6618 23.2574H58.3147C58.3461 23.2529 58.3781 23.2559 58.4081 23.2659C58.4382 23.276 58.4655 23.2929 58.4879 23.3153C58.5104 23.3377 58.5273 23.365 58.5373 23.3951C58.5474 23.4252 58.5503 23.4572 58.5459 23.4886V23.7452Z" fill="#655B6E"/>
<path d="M63.2842 29.4257C63.2887 29.4571 63.2858 29.4891 63.2757 29.5192C63.2657 29.5492 63.2487 29.5766 63.2263 29.599C63.2039 29.6214 63.1766 29.6383 63.1465 29.6484C63.1164 29.6584 63.0844 29.6613 63.0531 29.6569H62.7282C62.6968 29.6613 62.6648 29.6584 62.6348 29.6484C62.6047 29.6383 62.5774 29.6214 62.5549 29.599C62.5325 29.5766 62.5156 29.5492 62.5056 29.5192C62.4955 29.4891 62.4926 29.4571 62.497 29.4257V26.6964H60.2475V29.4257C60.2519 29.4571 60.249 29.4891 60.2389 29.5192C60.2289 29.5492 60.212 29.5766 60.1896 29.599C60.1671 29.6214 60.1398 29.6383 60.1097 29.6484C60.0797 29.6584 60.0477 29.6613 60.0163 29.6569H59.7007C59.6693 29.6613 59.6373 29.6584 59.6072 29.6484C59.5772 29.6383 59.5498 29.6214 59.5274 29.599C59.505 29.5766 59.4881 29.5492 59.4781 29.5192C59.468 29.4891 59.4651 29.4571 59.4695 29.4257V23.4886C59.4651 23.4572 59.468 23.4252 59.4781 23.3951C59.4881 23.365 59.505 23.3377 59.5274 23.3153C59.5498 23.2929 59.5772 23.276 59.6072 23.2659C59.6373 23.2559 59.6693 23.2529 59.7007 23.2574H60.0163C60.0477 23.2529 60.0797 23.2559 60.1097 23.2659C60.1398 23.276 60.1671 23.2929 60.1896 23.3153C60.212 23.3377 60.2289 23.365 60.2389 23.3951C60.249 23.4252 60.2519 23.4572 60.2475 23.4886V25.9786H62.497V23.4886C62.4926 23.4572 62.4955 23.4252 62.5056 23.3951C62.5156 23.365 62.5325 23.3377 62.5549 23.3153C62.5774 23.2929 62.6047 23.276 62.6348 23.2659C62.6648 23.2559 62.6968 23.2529 62.7282 23.2574H63.0531C63.0844 23.2529 63.1164 23.2559 63.1465 23.2659C63.1766 23.276 63.2039 23.2929 63.2263 23.3153C63.2487 23.3377 63.2657 23.365 63.2757 23.3951C63.2858 23.4252 63.2887 23.4572 63.2842 23.4886V29.4257Z" fill="#655B6E"/>
<path d="M70.0941 23.7452C70.0985 23.7766 70.0957 23.8086 70.0856 23.8387C70.0756 23.8687 70.0586 23.8961 70.0362 23.9185C70.0137 23.9409 69.9864 23.9578 69.9563 23.9679C69.9263 23.9779 69.8943 23.9808 69.8629 23.9764H68.4261V29.4257C68.4305 29.4571 68.4276 29.4891 68.4175 29.5192C68.4075 29.5492 68.3906 29.5766 68.3682 29.599C68.3457 29.6214 68.3183 29.6383 68.2883 29.6484C68.2582 29.6584 68.2262 29.6613 68.1948 29.6569H67.8781C67.8467 29.6613 67.8147 29.6584 67.7846 29.6484C67.7545 29.6383 67.7273 29.6214 67.7049 29.599C67.6825 29.5766 67.6656 29.5492 67.6555 29.5192C67.6455 29.4891 67.6425 29.4571 67.647 29.4257V23.9764H66.21C66.1786 23.9808 66.1466 23.9779 66.1165 23.9679C66.0864 23.9578 66.0591 23.9409 66.0367 23.9185C66.0143 23.8961 65.9974 23.8687 65.9873 23.8387C65.9773 23.8086 65.9743 23.7766 65.9788 23.7452V23.4886C65.9743 23.4572 65.9773 23.4252 65.9873 23.3951C65.9974 23.365 66.0143 23.3377 66.0367 23.3153C66.0591 23.2929 66.0864 23.276 66.1165 23.2659C66.1466 23.2559 66.1786 23.2529 66.21 23.2574H69.8629C69.8943 23.2529 69.9263 23.2559 69.9563 23.2659C69.9864 23.276 70.0137 23.2929 70.0362 23.3153C70.0586 23.3377 70.0756 23.365 70.0856 23.3951C70.0957 23.4252 70.0985 23.4572 70.0941 23.4886V23.7452Z" fill="#655B6E"/>
<path d="M74.1574 23.7449C74.1619 23.7763 74.1589 23.8083 74.1489 23.8384C74.1388 23.8685 74.1219 23.8958 74.0995 23.9182C74.0771 23.9406 74.0498 23.9575 74.0197 23.9676C73.9896 23.9776 73.9576 23.9806 73.9262 23.9761H71.7958V26.0095H73.806C73.8374 26.0051 73.8694 26.008 73.8995 26.018C73.9295 26.0281 73.9569 26.045 73.9793 26.0674C74.0017 26.0898 74.0186 26.1172 74.0287 26.1472C74.0387 26.1773 74.0416 26.2093 74.0372 26.2407V26.4973C74.0419 26.5288 74.0391 26.5609 74.0292 26.591C74.0192 26.6212 74.0023 26.6487 73.9798 26.6711C73.9574 26.6936 73.9299 26.7105 73.8997 26.7205C73.8695 26.7304 73.8374 26.7332 73.806 26.7285H71.7958V28.9445H73.9262C73.9576 28.9401 73.9896 28.943 74.0197 28.9531C74.0498 28.9631 74.0771 28.98 74.0995 29.0025C74.1219 29.0249 74.1388 29.0522 74.1489 29.0823C74.1589 29.1123 74.1619 29.1443 74.1574 29.1757V29.4324C74.1619 29.4638 74.1589 29.4957 74.1489 29.5258C74.1388 29.5559 74.1219 29.5832 74.0995 29.6056C74.0771 29.6281 74.0498 29.645 74.0197 29.655C73.9896 29.6651 73.9576 29.668 73.9262 29.6636H71.2478C71.2164 29.6682 71.1843 29.6655 71.1541 29.6555C71.1239 29.6456 71.0965 29.6287 71.074 29.6062C71.0515 29.5837 71.0346 29.5563 71.0247 29.5261C71.0147 29.4959 71.0119 29.4638 71.0166 29.4324V23.4883C71.0119 23.4569 71.0147 23.4248 71.0247 23.3946C71.0346 23.3644 71.0515 23.337 71.074 23.3145C71.0965 23.292 71.1239 23.2751 71.1541 23.2651C71.1843 23.2552 71.2164 23.2524 71.2478 23.2571H73.9262C73.9576 23.2527 73.9896 23.2556 74.0197 23.2656C74.0498 23.2757 74.0771 23.2926 74.0995 23.315C74.1219 23.3374 74.1388 23.3648 74.1489 23.3948C74.1589 23.4249 74.1619 23.4569 74.1574 23.4883V23.7449Z" fill="#655B6E"/>
<path d="M79.1952 29.3826C79.2726 29.5456 79.2033 29.6566 79.0241 29.6566H78.6646C78.6078 29.6599 78.5514 29.6461 78.5026 29.6171C78.4538 29.588 78.4148 29.545 78.3906 29.4936L77.119 27.0129L75.8474 29.4936C75.8233 29.545 75.7843 29.588 75.7354 29.6171C75.6866 29.6461 75.6302 29.6599 75.5735 29.6566H75.2059C75.0267 29.6566 74.9573 29.541 75.0348 29.3826L76.5491 26.4141L75.0949 23.531C75.0174 23.368 75.0856 23.2571 75.266 23.2571H75.6128C75.6695 23.2538 75.7259 23.2675 75.7747 23.2966C75.8236 23.3256 75.8626 23.3686 75.8867 23.4201L77.119 25.8153L78.3501 23.4201C78.3743 23.3686 78.4133 23.3256 78.4621 23.2966C78.511 23.2675 78.5674 23.2538 78.6241 23.2571H78.9709C79.1501 23.2571 79.2183 23.3727 79.142 23.531L77.6901 26.4141L79.1952 29.3826Z" fill="#655B6E"/>
<path d="M84.3357 29.4002C84.3878 29.5539 84.3103 29.6568 84.1392 29.6568H83.8144C83.7539 29.6618 83.6937 29.6446 83.645 29.6085C83.5963 29.5723 83.5624 29.5196 83.5497 29.4603L83.13 27.9887H81.1499L80.7302 29.4603C80.7175 29.5196 80.6836 29.5723 80.6349 29.6085C80.5862 29.6446 80.526 29.6618 80.4655 29.6568H80.1407C79.9696 29.6568 79.8921 29.5539 79.9442 29.4002L81.6377 23.4538C81.6504 23.3945 81.6843 23.3418 81.733 23.3057C81.7817 23.2695 81.8419 23.2523 81.9024 23.2573H82.3902C82.4502 23.25 82.5106 23.2665 82.5586 23.3033C82.6065 23.34 82.6382 23.394 82.6468 23.4538L84.3357 29.4002ZM82.959 27.2697L82.1498 24.404L81.3279 27.2697H82.959Z" fill="#655B6E"/>
<path d="M88.8187 24.6777C88.8259 24.7091 88.8252 24.7417 88.8169 24.7728C88.8086 24.8038 88.7928 24.8324 88.7709 24.856C88.749 24.8795 88.7217 24.8974 88.6914 24.9081C88.6611 24.9187 88.6286 24.9218 88.5968 24.917H88.2627C88.2317 24.9194 88.2005 24.9155 88.171 24.9055C88.1416 24.8955 88.1144 24.8797 88.0912 24.8589C88.068 24.8382 88.0492 24.813 88.036 24.7849C88.0227 24.7567 88.0153 24.7262 88.0142 24.6951C87.9286 24.1899 87.5865 23.8986 87.0824 23.8986C86.4316 23.8986 86.0987 24.3101 86.0987 24.917C86.0987 25.6014 86.5345 25.8152 87.2362 26.0638C88.3309 26.4649 89.0072 26.8591 89.0072 27.9538C89.0072 29.1861 88.1691 29.7421 87.116 29.7421C86.0629 29.7421 85.3115 29.1514 85.1739 28.0995C85.167 28.068 85.1679 28.0354 85.1764 28.0044C85.1849 27.9733 85.2008 27.9448 85.2227 27.9213C85.2447 27.8978 85.272 27.8799 85.3023 27.8693C85.3327 27.8586 85.3652 27.8555 85.397 27.8602H85.7299C85.761 27.8578 85.7922 27.8617 85.8216 27.8717C85.8511 27.8817 85.8782 27.8975 85.9014 27.9183C85.9247 27.939 85.9434 27.9642 85.9567 27.9923C85.9699 28.0205 85.9773 28.051 85.9785 28.0821C86.0814 28.6728 86.5172 29.015 87.116 29.015C87.7148 29.015 88.2199 28.7491 88.2199 27.9966C88.2199 27.2949 87.7668 27.0984 86.9484 26.799C86.0594 26.4822 85.315 26.1146 85.315 24.9494C85.315 23.9564 85.9565 23.1692 87.0859 23.1692C88.0408 23.1715 88.6985 23.7275 88.8187 24.6777Z" fill="#655B6E"/>
</g>
<defs>
<clipPath id="clip0">
<rect width="188" height="32" fill="white"/>
</clipPath>
</defs>
</svg>
