<svg width="129" height="32" viewBox="0 0 129 32" fill="none" xmlns="http://www.w3.org/2000/svg">
<path fill-rule="evenodd" clip-rule="evenodd" d="M29.028 18.625C28.9999 18.5904 28.9664 18.563 28.9294 18.5447C28.8924 18.5264 28.8528 18.5177 28.8129 18.5188C28.773 18.52 28.7337 18.5311 28.6975 18.5515C28.6612 18.5719 28.6288 18.6011 28.6021 18.6374L28.5818 18.6625C28.0544 19.4367 27.3342 19.961 26.5329 20.1483H26.5127C26.2646 20.1985 26.0136 20.2236 25.7621 20.2233H25.7012C25.62 20.2233 25.5288 20.2233 25.4476 20.2107C24.3116 20.1483 23.3887 19.6239 22.6584 18.6374C22.6178 18.5877 22.5772 18.5252 22.5467 18.4752C21.8672 17.4764 21.5223 16.2775 21.5021 14.8418V14.4922C21.5731 13.3559 21.928 12.2696 22.5264 11.3955C22.5468 11.3705 22.5646 11.3424 22.5824 11.3142C22.6001 11.2862 22.6178 11.2582 22.6381 11.2333C23.3582 10.2469 24.2914 9.72252 25.4274 9.66001C25.4679 9.66001 25.511 9.6569 25.5541 9.6538L25.5542 9.65378C25.5973 9.65067 25.6404 9.64757 25.6809 9.64757H25.7418C25.9953 9.64757 26.2387 9.67247 26.4924 9.72252H26.5127C27.3138 9.90979 28.0341 10.4341 28.5614 11.2083L28.6223 11.3082C28.7339 11.4706 28.9266 11.483 29.0484 11.3581L29.0585 11.3457L29.1803 11.1958L29.4946 10.8212L30.7929 9.28548L30.8031 9.27303C30.9248 9.13557 30.9248 8.89836 30.8132 8.74858L30.7726 8.69865C30.6205 8.49881 30.4683 8.31153 30.306 8.13671L30.2958 8.12427C30.0622 7.87474 29.8148 7.64532 29.5555 7.43758L29.4945 7.38752C28.7643 6.80069 27.9529 6.37622 27.0908 6.15147C26.5532 6.03892 26.0156 5.97665 25.4679 5.97665C24.555 6.03903 23.6524 6.28881 22.8105 6.72585C22.3439 6.9755 21.8976 7.27521 21.4716 7.63729C21.1775 7.88706 20.8936 8.16174 20.6298 8.46132C19.1489 10.1345 18.4085 12.3071 18.4085 14.9666C18.4085 17.6262 19.1186 19.7861 20.5385 21.4345C20.8327 21.7714 21.1471 22.0836 21.4716 22.3707C22.1918 22.9825 22.9931 23.4196 23.8552 23.6695H23.8654C24.4434 23.8316 25.0319 23.9066 25.6201 23.9066C25.7621 23.9066 25.9041 23.9066 26.0359 23.8942C26.0867 23.8942 26.1272 23.8942 26.1779 23.8816L26.2692 23.8693L26.3504 23.8567L26.4924 23.8442L26.5837 23.8318H26.6141L26.675 23.8192L26.7661 23.8068L26.8474 23.7943L26.9488 23.7817H27.0198L27.0604 23.7691H27.1213C27.9732 23.5445 28.7846 23.1199 29.5251 22.533L29.586 22.4832C29.8395 22.271 30.093 22.0462 30.3263 21.7966L30.3365 21.784C30.4988 21.6092 30.6508 21.4219 30.8031 21.222C30.8945 21.0971 30.8945 20.8975 30.7929 20.7849L30.7828 20.7726L29.028 18.625ZM37.7945 14.3092V23.5214C37.7945 23.7324 37.6626 23.8943 37.4904 23.8943H35.0575C34.8853 23.8943 34.7534 23.7324 34.7534 23.5214V0.373042C34.7534 0.161494 34.8853 0 35.0575 0H37.4904C37.6626 0 37.7945 0.161618 37.7945 0.372918V8.3418C39.2339 6.2781 40.6835 6.02958 41.6768 6.02958C43.3088 6.02958 44.7786 6.43973 45.9342 7.65809C47.0087 8.78942 48.0528 10.7412 48.0528 13.0535V23.5337C48.0528 23.745 47.921 23.9066 47.7487 23.9066H45.3158C45.1435 23.9066 45.0117 23.745 45.0117 23.5337V14.1847C45.0117 10.9276 43.6127 9.69687 41.403 9.69687C40.3488 9.69687 39.548 10.0326 38.798 10.9152C38.0884 11.7482 37.7944 12.6682 37.7944 14.3092H37.7945ZM76.9864 9.27303C76.9864 9.48521 76.8549 9.64757 76.683 9.64757C75.2571 9.68492 74.1752 10.2843 73.437 11.4455C72.6787 12.6567 72.3044 14.2674 72.3044 16.2901V23.5321C72.3044 23.7442 72.173 23.9066 72.0011 23.9066H69.5742C69.4023 23.9066 69.2707 23.7442 69.2707 23.5321V6.35119C69.2707 6.13903 69.4023 5.97665 69.5742 5.97665H72.0011C72.173 5.97665 72.3044 6.13903 72.3044 6.35119V8.29908C73.4472 6.33875 75.5606 6.03916 76.6527 5.9891C76.6931 5.98565 76.7335 5.99247 76.7717 6.00914C76.8097 6.02582 76.8447 6.05199 76.8741 6.08599C76.9035 6.12001 76.9269 6.16113 76.9428 6.20676C76.9586 6.25241 76.9667 6.30158 76.9663 6.35119V6.36364C76.9762 7.06292 76.9864 8.56132 76.9864 9.27303ZM99.6257 23.9066H97.1892C97.0166 23.9066 96.8846 23.7444 96.8846 23.5326V6.36314C96.8846 6.15121 97.0166 5.9891 97.1791 5.97665H99.6257C99.7983 5.97665 99.9302 6.13877 99.9302 6.3507V23.5199C99.9302 23.7321 99.7983 23.9066 99.6257 23.9066ZM127.949 6.00156C128.123 6.00156 128.254 6.1633 128.254 6.37472V22.5333C128.245 22.8693 128.235 23.2052 128.214 23.5284C128.209 23.5657 128.206 23.5999 128.204 23.6342C128.201 23.6684 128.199 23.7026 128.193 23.7399C128.163 24.0759 128.133 24.3991 128.082 24.7227C128.071 24.7723 128.062 24.8223 128.062 24.8721L128.058 24.9001C128.049 24.9679 128.039 25.0428 128.021 25.1083L128.01 25.1705C128.001 25.2452 127.991 25.3074 127.97 25.3819C127.757 26.5761 127.33 27.7081 126.74 28.6908C126.72 28.722 126.702 28.7499 126.684 28.778C126.673 28.7957 126.661 28.8135 126.649 28.8321C126.642 28.8428 126.635 28.8537 126.628 28.8651C126.557 28.977 126.486 29.089 126.404 29.1884L126.385 29.2133C126.343 29.2631 126.303 29.3127 126.273 29.3627C126.253 29.3953 126.224 29.4279 126.195 29.4606C126.18 29.4777 126.165 29.4948 126.151 29.5118C126.141 29.5233 126.131 29.5349 126.121 29.5465C126.11 29.5584 126.099 29.5705 126.088 29.5825C126.064 29.6087 126.04 29.635 126.019 29.6612C125.999 29.6849 125.977 29.7087 125.955 29.7324C125.931 29.7584 125.907 29.7844 125.886 29.8102C125.846 29.8602 125.794 29.9099 125.754 29.9472C125.735 29.965 125.713 29.9887 125.691 30.0124C125.667 30.0384 125.643 30.0647 125.621 30.0842C125.53 30.1712 125.438 30.2582 125.337 30.3454L125.194 30.4697L125.093 30.5567C124.767 30.8181 124.422 31.0295 124.066 31.2161L123.944 31.2783C123.822 31.3406 123.7 31.3903 123.578 31.44L123.426 31.5022L123.365 31.5271L123.304 31.5518L123.192 31.5893C123.157 31.6015 123.124 31.6107 123.092 31.6199C123.058 31.6294 123.025 31.6389 122.988 31.6514L122.938 31.664C122.898 31.6709 122.862 31.6816 122.826 31.6919C122.799 31.7002 122.771 31.7082 122.744 31.7137L122.716 31.7194C122.662 31.7302 122.601 31.7423 122.542 31.7633L122.45 31.7759L122.277 31.8006C122.246 31.8069 122.216 31.8101 122.185 31.8132C122.155 31.8162 122.124 31.8193 122.094 31.8255L121.993 31.838L121.871 31.8505C121.83 31.8567 121.787 31.8598 121.743 31.8629C121.7 31.8661 121.657 31.8692 121.616 31.8754H121.128C119.522 31.8754 118.108 31.3903 116.889 30.4324C116.872 30.4181 116.853 30.4038 116.835 30.3893C116.788 30.353 116.739 30.315 116.696 30.2706C116.665 30.2457 116.635 30.2209 116.604 30.1836C116.58 30.1547 116.563 30.1407 116.542 30.1243C116.536 30.1195 116.53 30.1145 116.523 30.1088C116.507 30.0964 116.495 30.0839 116.482 30.0715V30.0714C116.469 30.0591 116.457 30.0466 116.441 30.0343L116.431 30.0218C116.37 29.9721 116.309 29.9099 116.258 29.8478C116.233 29.8166 116.205 29.7886 116.177 29.7604C116.149 29.7324 116.121 29.7045 116.096 29.6736C116.08 29.6549 116.065 29.6394 116.05 29.6238C116.035 29.6082 116.019 29.5926 116.004 29.574C115.99 29.5564 115.971 29.5361 115.951 29.5143C115.928 29.4898 115.904 29.4635 115.883 29.4372L115.699 29.2134C115.638 29.1387 115.578 29.064 115.526 28.977C115.492 28.9191 115.459 28.8722 115.425 28.8255C115.414 28.81 115.403 28.7945 115.392 28.7785C115.386 28.7702 115.38 28.7617 115.374 28.7531C115.324 28.6794 115.264 28.5817 115.204 28.4837L115.201 28.4794C115.157 28.4078 115.124 28.3489 115.089 28.2891L115.048 28.2181L115.047 28.2165C114.997 28.13 114.947 28.0436 114.907 27.9569C114.889 27.9189 114.869 27.8785 114.849 27.8379C114.823 27.7854 114.797 27.7323 114.774 27.6833C114.734 27.5838 114.692 27.4967 114.642 27.3973C114.591 27.2976 114.56 27.2106 114.53 27.1234C114.53 27.1195 114.53 27.1168 114.53 27.1151C114.53 27.114 114.529 27.1132 114.529 27.1127C114.528 27.1111 114.525 27.1111 114.52 27.1111L114.519 27.1093C114.479 27.0102 114.439 26.9114 114.408 26.8126C114.378 26.7129 114.337 26.6011 114.296 26.5014C114.287 26.4708 114.284 26.4375 114.287 26.4052C114.291 26.3726 114.301 26.3417 114.316 26.315C114.316 26.3093 114.318 26.3062 114.321 26.3033C114.322 26.3017 114.323 26.3001 114.324 26.2981C114.326 26.296 114.326 26.2935 114.326 26.2901L114.347 26.2651C114.352 26.2588 114.36 26.2527 114.367 26.2465C114.375 26.2402 114.382 26.2341 114.387 26.2278L116.777 24.9466C116.828 24.9217 116.879 24.9217 116.919 24.959L116.94 24.9839C116.95 24.9964 116.959 25.0089 116.959 25.0212C116.965 25.0274 116.967 25.0337 116.97 25.0399C116.972 25.0462 116.975 25.0524 116.98 25.0586C116.99 25.096 117.003 25.1302 117.016 25.1644V25.1646C117.028 25.1986 117.041 25.2329 117.051 25.27C117.064 25.3152 117.08 25.3558 117.095 25.3946C117.105 25.4199 117.115 25.4444 117.123 25.4689C117.142 25.5312 117.163 25.5812 117.194 25.6433L117.214 25.693C117.224 25.7242 117.237 25.7521 117.249 25.7802C117.262 25.8081 117.275 25.8361 117.285 25.8671C117.309 25.9158 117.331 25.9644 117.353 26.0124V26.0126C117.387 26.0871 117.421 26.1598 117.458 26.2279C117.473 26.2529 117.486 26.2778 117.499 26.3026C117.511 26.3275 117.524 26.3522 117.54 26.3771C117.601 26.4891 117.672 26.6135 117.753 26.713C117.768 26.738 117.786 26.7631 117.804 26.7881C117.822 26.8128 117.84 26.8377 117.855 26.8623C117.885 26.9121 117.925 26.9618 117.967 26.9991C118.037 27.0959 118.116 27.1834 118.2 27.2604L118.322 27.3849L118.444 27.4967L118.566 27.6087C118.607 27.646 118.668 27.6959 118.729 27.733C118.756 27.7556 118.792 27.778 118.829 27.8005L118.84 27.8078C118.852 27.815 118.865 27.8234 118.879 27.8322C118.911 27.8534 118.947 27.8772 118.983 27.8948C119.009 27.9073 119.031 27.9228 119.054 27.9385C119.077 27.9541 119.1 27.9696 119.125 27.982C119.146 27.9921 119.164 28.0023 119.18 28.0117C119.203 28.0251 119.223 28.0368 119.247 28.0441L119.318 28.0814C119.461 28.1559 119.613 28.2057 119.766 28.2555L119.888 28.2928C120.111 28.3551 120.345 28.4048 120.579 28.4297C120.594 28.4297 120.608 28.4304 120.623 28.4315C120.639 28.4326 120.655 28.4342 120.67 28.4359C120.701 28.439 120.731 28.4421 120.762 28.4421C120.792 28.4421 120.823 28.4453 120.853 28.4484C120.873 28.4503 120.893 28.4524 120.913 28.4535C120.924 28.4543 120.934 28.4546 120.945 28.4546H121.128C123.761 28.4546 125.114 26.402 125.184 22.297V21.5134C123.727 24.5275 120.264 23.8373 119.609 23.7068C119.585 23.702 119.564 23.698 119.548 23.6949C119.538 23.6929 119.529 23.6913 119.522 23.6902C116.482 22.8816 114.204 19.7718 113.88 15.9778C113.88 15.9591 113.877 15.9374 113.874 15.9157V15.9154C113.872 15.8938 113.869 15.872 113.869 15.8533C113.849 15.5472 113.838 15.2401 113.838 14.9329V6.34982C113.838 6.1384 113.971 5.97665 114.143 5.97665H116.584C116.757 5.97665 116.889 6.1384 116.889 6.34982V14.0373C116.879 14.1867 116.879 14.622 116.889 15.0325C116.898 15.3311 116.909 15.6048 116.929 15.7538C117.062 16.7989 117.428 17.7817 117.976 18.5777C118.718 19.6601 119.715 20.2073 120.966 20.2073C121.057 20.2073 121.138 20.2073 121.219 20.1948C122.359 20.1326 123.283 19.6102 124.015 18.6276C124.056 18.5776 124.097 18.5156 124.127 18.4658C124.809 17.4831 125.154 16.2764 125.175 14.846V6.34982C125.175 6.1384 125.306 5.97665 125.48 5.97665L127.949 6.00156ZM107.142 6.05759V8.3337H110.649C110.822 8.3337 110.954 8.49545 110.954 8.70686V10.9582C110.954 11.1697 110.822 11.3314 110.649 11.3314H107.142V23.5334C107.142 23.7449 107.01 23.9066 106.837 23.9066H104.397C104.225 23.9066 104.092 23.7449 104.092 23.5334V6.15695C104.092 4.25388 104.581 2.76134 105.546 1.67919C106.512 0.609494 107.63 0.0373541 109.135 0H111.604C111.777 0 111.91 0.174194 111.91 0.373168C111.91 0.435424 111.899 0.497557 111.869 0.559689L110.558 3.34593C110.507 3.45799 110.405 3.53246 110.293 3.53246H109.399C107.894 3.53246 107.142 4.37828 107.142 6.05759ZM85.52 20.3703C85.2672 20.3703 85.0243 20.3456 84.7815 20.2958H84.7614C83.9622 20.1089 83.2438 19.586 82.7179 18.814C81.9795 17.7557 81.6151 16.4981 81.6151 15.0412C81.605 13.6965 81.9795 12.3766 82.6876 11.3432C83.2337 10.5588 83.9723 10.0233 84.8017 9.83658C85.0446 9.78677 85.2975 9.76187 85.5503 9.77433H85.8639C86.9363 9.82412 87.9378 10.4218 88.6458 11.4055C88.6865 11.4552 88.7268 11.5175 88.7572 11.5673C89.3539 12.4389 89.7079 13.5222 89.779 14.6553V15.0164C89.7586 16.4482 89.4045 17.656 88.7369 18.6398C88.7165 18.6647 88.6987 18.6929 88.6809 18.7211C88.6633 18.7489 88.6458 18.7767 88.6257 18.8015C87.9075 19.7852 86.9766 20.3082 85.8437 20.3703H85.52ZM89.7687 6.47471V8.41712C88.2965 5.45174 84.8726 6.14517 84.2447 6.27233C84.2082 6.27973 84.1811 6.28521 84.1644 6.28794C83.3116 6.51317 82.4991 6.92662 81.7668 7.50817L81.7062 7.55797C81.4535 7.76965 81.2004 7.99377 80.9678 8.24281L80.9476 8.25525C80.7857 8.42958 80.6339 8.61635 80.4822 8.81557C79.5819 10.0109 78.985 11.5051 78.7624 13.1238C78.6614 13.7847 78.6106 14.4559 78.6107 15.1285C78.6107 17.5689 79.2278 19.6234 80.4517 21.267C80.6035 21.4661 80.7552 21.6529 80.9172 21.8272L80.9376 21.8398C81.1701 22.0886 81.4129 22.3129 81.6758 22.5244L81.7365 22.5744C82.465 23.1719 83.2742 23.5829 84.1341 23.8194C84.1521 23.8223 84.1813 23.8282 84.2209 23.8361C84.8722 23.9669 88.3097 24.6574 89.7687 21.6405V22.425C89.7586 23.3961 89.6474 24.3675 89.4147 25.3013L89.3538 25.5253V25.5377C88.7673 27.5674 87.5635 28.5759 85.7224 28.5759H85.5403C85.4796 28.5759 85.4189 28.5759 85.3581 28.5634C85.2975 28.5509 85.2367 28.5509 85.176 28.5509C84.9435 28.5262 84.7108 28.4763 84.4882 28.4142L84.3668 28.3767C84.215 28.3268 84.0633 28.2646 83.9217 28.2023L83.8509 28.1652C83.8304 28.1525 83.81 28.143 83.7896 28.1335C83.7695 28.1243 83.7495 28.1151 83.7295 28.1028C83.7167 28.0949 83.7029 28.0871 83.6885 28.0789C83.657 28.0609 83.6224 28.0412 83.5877 28.0156C83.5427 27.9817 83.4953 27.9525 83.4462 27.9284C83.4161 27.9136 83.3967 27.8987 83.3774 27.8839C83.3643 27.8738 83.3512 27.8639 83.3348 27.8538L83.3275 27.8484C83.2794 27.8127 83.2308 27.7766 83.1731 27.7294C83.1328 27.6961 83.1104 27.6741 83.088 27.6521C83.0767 27.6409 83.0653 27.6297 83.0517 27.6171L82.9302 27.5051L82.928 27.5031V27.503C82.8884 27.4663 82.8487 27.4294 82.809 27.3806C82.768 27.3366 82.7297 27.2926 82.6914 27.2485C82.6538 27.2054 82.6162 27.1622 82.5762 27.119C82.5609 27.0939 82.5431 27.072 82.5252 27.0501C82.5076 27.0284 82.4901 27.0069 82.4749 26.9822C82.4351 26.9329 82.4051 26.8838 82.3749 26.8346L82.3738 26.8326L82.1615 26.4965C82.1463 26.4716 82.1336 26.4468 82.121 26.4218L82.1209 26.4215C82.1083 26.3968 82.0957 26.3719 82.0805 26.3471C82.0172 26.2313 81.9598 26.1106 81.9085 25.9861C81.8984 25.9552 81.8859 25.9273 81.8733 25.8993C81.8606 25.8711 81.8479 25.843 81.8378 25.8116L81.8175 25.7618C81.8075 25.731 81.7949 25.7031 81.7824 25.6753H81.7823C81.7696 25.6471 81.7569 25.619 81.7468 25.5876C81.7366 25.5564 81.724 25.5222 81.7113 25.488C81.6987 25.4537 81.686 25.4194 81.6758 25.3883C81.6686 25.3658 81.66 25.3418 81.651 25.3167L81.6509 25.3164V25.3163C81.635 25.2719 81.618 25.2242 81.6051 25.1767C81.6051 25.1643 81.595 25.1518 81.5848 25.1393C81.5798 25.133 81.5772 25.1269 81.5747 25.1207C81.5722 25.1145 81.5696 25.1082 81.5645 25.1019L81.5444 25.077C81.4938 25.0396 81.4433 25.0272 81.3926 25.0646L79.0659 26.3098L79.0457 26.3221L79.0052 26.3471C78.9854 26.3594 78.9754 26.3716 78.9653 26.3836L78.9647 26.3844C78.9585 26.3844 78.9561 26.3892 78.9529 26.3957C78.9508 26.3998 78.9484 26.4046 78.9445 26.4094C78.941 26.4137 78.9387 26.4166 78.9372 26.419C78.9362 26.4206 78.9356 26.4219 78.9352 26.4234C78.9344 26.4261 78.9344 26.429 78.9344 26.4342C78.9041 26.4842 78.9041 26.5588 78.9141 26.621C78.9445 26.7333 78.985 26.8326 79.0255 26.9323C79.0458 26.9823 79.0635 27.0324 79.0813 27.0825C79.099 27.1321 79.1166 27.1817 79.1367 27.2313L79.1469 27.2436C79.1611 27.2785 79.1753 27.3121 79.1891 27.3446C79.2145 27.4046 79.2385 27.461 79.2582 27.5175C79.2884 27.6048 79.339 27.7042 79.3896 27.8039C79.4147 27.8654 79.4435 27.922 79.4713 27.9769C79.4823 27.9985 79.4931 28.0198 79.5035 28.041C79.5095 28.0533 79.5154 28.0656 79.5211 28.0778C79.5617 28.1652 79.6123 28.2646 79.6628 28.3393C79.6967 28.3894 79.7306 28.4507 79.7646 28.512V28.5121C79.7813 28.5422 79.7979 28.5722 79.8146 28.601C79.8687 28.6951 79.9261 28.7866 79.9865 28.8747C80.0276 28.9337 80.0594 28.9813 80.0914 29.0292L80.1383 29.0991C80.1889 29.1737 80.2494 29.2607 80.3102 29.3354L80.4924 29.5595L80.4948 29.5625C80.5344 29.6113 80.574 29.6601 80.6138 29.6965C80.6339 29.7152 80.6491 29.7339 80.663 29.751C80.6769 29.7681 80.6896 29.7836 80.7047 29.7962C80.7299 29.8272 80.7578 29.8553 80.7856 29.8832V29.8833C80.8135 29.9114 80.8413 29.9394 80.8666 29.9705C80.8989 30.0103 80.9352 30.0449 80.9731 30.0809L80.9733 30.0811C80.9947 30.1014 81.0166 30.1223 81.0385 30.1447L81.0486 30.1574C81.069 30.182 81.0993 30.207 81.1297 30.232C81.1499 30.2567 81.1803 30.2818 81.2105 30.3067C81.2215 30.3157 81.2325 30.3263 81.2439 30.3374C81.2641 30.3569 81.2858 30.3778 81.3116 30.3937C81.3337 30.4119 81.3559 30.4318 81.3785 30.4521H81.3786C81.418 30.4874 81.4589 30.5241 81.5039 30.5556C82.7178 31.5145 84.1239 32 85.7223 32H86.2079C86.2888 32 86.3799 31.9876 86.4608 31.975L86.5822 31.9628L86.6834 31.9503C86.7137 31.944 86.744 31.9409 86.7744 31.9377C86.8047 31.9346 86.8351 31.9316 86.8654 31.9253L87.0374 31.9004L87.1387 31.888L87.3408 31.8383C87.3761 31.832 87.409 31.8226 87.4417 31.8133C87.4748 31.8039 87.5077 31.7946 87.5432 31.7883L87.5939 31.776C87.6296 31.7634 87.6627 31.754 87.6959 31.7445H87.696C87.7286 31.7353 87.7611 31.726 87.7962 31.7137L87.9075 31.6763L87.958 31.6514L88.0186 31.6265L88.1703 31.5642L88.1752 31.5622C88.295 31.5131 88.4149 31.464 88.5347 31.4025L88.6559 31.3402C89.01 31.1535 89.3539 30.9417 89.6777 30.6801L89.779 30.5931L89.7815 30.5913C89.8311 30.5543 89.8807 30.5175 89.9204 30.4686C89.9662 30.4247 90.0145 30.3809 90.0629 30.3371C90.1106 30.2937 90.1584 30.2503 90.2038 30.207L90.2257 30.1856L90.2258 30.1855C90.2664 30.1458 90.3008 30.1124 90.3352 30.07C90.3757 30.0203 90.4262 29.9705 90.4668 29.933L90.5982 29.7838C90.6185 29.7589 90.6413 29.7339 90.6641 29.7089C90.6868 29.6841 90.7096 29.6591 90.7298 29.6342L90.7589 29.5984L90.8511 29.4848C90.8917 29.4351 90.932 29.3852 90.9624 29.3354C90.9624 29.323 90.9725 29.323 90.9826 29.3105C91.0631 29.2116 91.1333 29.1006 91.2036 28.9892L91.2037 28.989L91.2052 28.9867C91.2255 28.9556 91.2432 28.9275 91.2609 28.8994C91.2786 28.8715 91.2963 28.8436 91.3165 28.8126C91.9133 27.8288 92.3282 26.6958 92.5405 25.5004C92.5456 25.4631 92.5531 25.4289 92.5607 25.3948L92.5608 25.3946C92.5684 25.3604 92.576 25.3262 92.5811 25.2887C92.5811 25.2763 92.5836 25.267 92.5861 25.2576C92.5886 25.2482 92.591 25.2389 92.591 25.2265V25.2016C92.5939 25.1803 92.5968 25.16 92.5997 25.1402C92.6019 25.1252 92.6041 25.1105 92.6063 25.0958C92.6114 25.0615 92.6165 25.0272 92.6215 24.9899C92.6317 24.9402 92.6416 24.8902 92.6416 24.8405C92.66 24.7499 92.6702 24.6492 92.6795 24.5568L92.6823 24.5291C92.7126 24.3051 92.7328 24.0933 92.7529 23.8569C92.7581 23.8191 92.7606 23.7845 92.7632 23.7498C92.7657 23.7159 92.7682 23.6821 92.7732 23.6452C92.7935 23.3214 92.8138 22.9977 92.8237 22.6491V6.47471C92.8237 6.26303 92.6923 6.10117 92.5202 6.10117H90.062C89.9103 6.10117 89.7789 6.27548 89.7687 6.47471ZM12.4858 15.5424C12.3589 15.6066 12.223 15.6395 12.0858 15.639H8.61282C8.47561 15.6394 8.33967 15.6065 8.21283 15.5424C8.08599 15.4782 7.97077 15.3839 7.87377 15.2649C7.77678 15.1458 7.69993 15.0044 7.64765 14.8487C7.59539 14.6932 7.56872 14.5265 7.56918 14.358V11.8162C7.56918 11.6861 7.5366 11.5559 7.48766 11.4459C7.32462 11.0956 6.95772 10.9755 6.66422 11.1757L1.24267 15.459C1.172 15.5084 1.09801 15.5653 1.02408 15.6219C0.680155 15.8858 0.337708 16.1486 0.337708 15.6791V9.39427C0.337708 8.60361 0.68826 7.87308 1.25901 7.50278L12.2082 0.207151C12.5995 -0.0529579 13.1294 0.337392 13.1294 0.877781V14.358C13.1299 14.5265 13.1032 14.6932 13.051 14.8489C12.9988 15.0044 12.9219 15.1458 12.8249 15.2649C12.7279 15.384 12.6126 15.4783 12.4858 15.5424ZM0.337708 17.7115C0.337708 17.0038 0.80227 16.4359 1.38135 16.4359H4.8543C5.43318 16.4359 5.89793 17.0038 5.89793 17.7115V20.2428C5.89793 20.3723 5.93052 20.502 5.97946 20.6117C6.1425 20.9604 6.5094 21.0799 6.80289 20.8806L12.1511 16.9242C12.5587 16.6352 13.1213 16.406 13.1294 18.0303V22.6447C13.1259 23.0305 13.0387 23.4085 12.8767 23.7393C12.7149 24.0703 12.4841 24.3425 12.2082 24.5281L1.25901 31.7932C0.867649 32.0523 0.337708 31.6638 0.337708 31.1255V17.7115ZM99.6257 0H97.1891C97.0267 0 96.8845 0.17432 96.8845 0.373541V3.36186C96.8845 3.57354 97.0165 3.73541 97.1891 3.73541H99.6257C99.7983 3.73541 99.9302 3.57354 99.9302 3.36186V0.373541C99.9302 0.161868 99.7983 0 99.6257 0ZM62.328 14.842V14.7047V14.4928C62.2568 13.3582 61.9005 12.2734 61.2998 11.4006C61.2692 11.3505 61.2285 11.2883 61.1878 11.2385C60.4547 10.2534 59.5283 9.72962 58.388 9.66736C58.3065 9.65491 58.2149 9.65491 58.1335 9.65491H58.0723C57.828 9.65491 57.5735 9.67994 57.3291 9.72975H57.3089C56.5045 9.91676 55.7816 10.4403 55.2522 11.2136C54.5191 12.2109 54.1222 13.5078 54.1222 14.8544C54.1222 16.3257 54.4887 17.585 55.2216 18.6448C55.7511 19.418 56.4739 19.9415 57.2783 20.1286H57.3088C57.543 20.191 57.7771 20.2407 58.0214 20.2533H58.4186C59.5486 20.191 60.4445 19.6172 61.1674 18.6324C61.1879 18.6074 61.2058 18.5791 61.2237 18.5509C61.2414 18.523 61.2592 18.495 61.2794 18.4702C61.9514 17.4729 62.3078 16.2757 62.328 14.842ZM65.1074 5.97665C65.2805 6.00156 65.4129 6.17612 65.4129 6.38817L65.4028 15.0788V23.5326C65.4028 23.7445 65.2704 23.9066 65.0974 23.9066H62.6233C62.4502 23.9066 62.3179 23.7445 62.3179 23.5326L62.328 21.5376C60.8602 24.5569 57.4038 23.8678 56.7455 23.7365C56.7052 23.7285 56.6754 23.7225 56.6571 23.7196C55.802 23.4825 54.9773 23.0588 54.2444 22.4726L54.1832 22.4226C53.9229 22.2153 53.6745 21.9862 53.44 21.737L53.4197 21.7247C53.2567 21.55 53.104 21.363 52.9514 21.1634C51.7194 19.5175 51.0984 17.4603 51.0984 15.0165C51.0983 14.3429 51.1493 13.6708 51.2511 13.009C51.4751 11.388 52.0757 9.89186 52.9819 8.69479C53.1345 8.49532 53.2872 8.3083 53.4502 8.13372L53.4706 8.12128C53.7047 7.87188 53.9592 7.64751 54.2137 7.43546L54.2749 7.38565C55.0124 6.80298 55.8299 6.38897 56.6878 6.16368C56.7045 6.16094 56.7318 6.15545 56.7686 6.14804C57.4009 6.02066 60.8464 5.32657 62.328 8.29584V6.3507C62.328 6.13877 62.4604 5.97665 62.6334 5.97665H65.1074Z" fill="#655B6E"/>
</svg>
