<svg width="100" height="34" viewBox="0 0 100 34" fill="none" xmlns="http://www.w3.org/2000/svg">
<path d="M7.12869 15.5029C9.20676 15.5029 10.7338 16.345 11.7854 17.3714L10.7066 18.7665C9.65497 17.8449 8.54899 17.2938 7.20824 17.2938C4.26092 17.2938 2.23523 19.2943 2.23523 22.2397C2.23523 25.1598 4.20853 27.1331 7.15585 27.1331C8.73526 27.1331 10.0508 26.423 11.1296 25.5285L12.0765 26.9236C10.6814 28.1867 8.89243 28.924 6.99869 28.924C2.99971 28.924 0 26.4773 0 22.2416C0 17.9497 3.26166 15.5029 7.12869 15.5029Z" fill="#655B6E"/>
<path d="M20.0803 27.1312C22.527 27.1312 24.1588 25.1579 24.1588 22.2377C24.1588 19.2904 22.527 17.2919 20.0803 17.2919C17.6336 17.2919 16.0018 19.2924 16.0018 22.2377C16.0018 25.1598 17.6336 27.1312 20.0803 27.1312ZM20.0803 15.5029C23.4487 15.5029 26.3941 17.9497 26.3941 22.2377C26.3941 26.4734 23.4467 28.9202 20.0803 28.9202C16.7119 28.9202 13.7665 26.4734 13.7665 22.2377C13.7646 17.9497 16.7119 15.5029 20.0803 15.5029Z" fill="#655B6E"/>
<path d="M34.7356 27.1061C35.9987 27.1061 37.2095 26.4484 38.3407 25.1852V18.8171C37.1823 17.7383 36.0783 17.3173 34.9723 17.3173C32.7623 17.3173 30.9733 19.2906 30.9733 22.2107C30.9733 25.2648 32.3664 27.1061 34.7356 27.1061ZM34.5512 15.5031C36.1035 15.5031 37.2347 16.1356 38.4183 17.1601L38.3387 14.7929V9.87231H40.4963V28.606H38.7074L38.523 26.9218H38.4435C37.3918 28.0006 35.8648 28.9223 34.2854 28.9223C30.9442 28.9223 28.7342 26.5027 28.7342 22.2398C28.7361 18.0818 31.5244 15.5031 34.5512 15.5031Z" fill="#655B6E"/>
<path d="M53.5835 21.1861C53.5835 18.6346 52.1632 17.2123 49.7941 17.2123C47.716 17.2123 45.8204 18.685 45.4789 21.1861H53.5835ZM49.7689 15.5029C53.4264 15.5029 55.584 17.8973 55.584 21.5024C55.584 21.9486 55.5568 22.424 55.5044 22.7383H45.506C45.6108 25.4489 47.6113 27.1855 50.3995 27.1855C51.8993 27.1855 53.1101 26.7392 54.2937 26.0019L55.0562 27.4222C53.7931 28.2372 52.1885 28.9221 50.1356 28.9221C46.3462 28.9221 43.2689 26.423 43.2689 22.2397C43.2708 18.0544 46.4529 15.5029 49.7689 15.5029Z" fill="#655B6E"/>
<path opacity="0.64" d="M69.7036 28.6059H67.9398L67.7555 26.3688H67.6507C66.3624 27.8686 64.8625 28.9203 62.8892 28.9203C59.8371 28.9203 58.442 27.1313 58.442 23.7629V15.8174H60.6268V23.4738C60.6268 25.8953 61.4417 27.0518 63.5741 27.0518C65.0468 27.0518 66.1256 26.3416 67.5479 24.6846V15.8174H69.7055V28.6059H69.7036Z" fill="#655B6E"/>
<path opacity="0.64" d="M78.7339 27.106C81.0235 27.106 82.6805 25.1851 82.6805 22.0282C82.6805 19.2128 81.6269 17.3191 79.0754 17.3191C77.9442 17.3191 76.6287 17.9244 75.3131 19.24V25.6061C76.5239 26.6849 77.8646 27.106 78.7339 27.106ZM75.3131 29.6846V33.9999H73.1555V15.8192H74.9445L75.1288 17.451H75.2084C76.3919 16.3198 78.0509 15.5029 79.6284 15.5029C83.0744 15.5029 84.9157 18.0544 84.9157 22.0282C84.9157 26.3687 82.1799 28.9221 79.1006 28.9221C77.917 28.9221 76.4172 28.3167 75.2588 27.2651L75.3131 29.6846Z" fill="#655B6E"/>
<path d="M90.1969 6.22645H80.084L81.0949 3.11419H92.4593L94.7217 0H78.8325L75.7979 9.34064H87.9364L90.1969 6.22645Z" fill="#655B6E"/>
<path opacity="0.64" d="M94.722 0L92.4596 3.11419L95.9715 13.9217L93.323 15.8465L90.1972 6.22645L87.9367 9.34064L91.6873 20.8835L99.6309 15.1111L94.722 0Z" fill="#655B6E"/>
</svg>
