<svg width="32" height="32" viewBox="0 0 32 32" fill="none" xmlns="http://www.w3.org/2000/svg">
<path d="M32 16C32 7.16344 24.8366 0 16 0C7.16344 0 0 7.16344 0 16C0 24.8366 7.16344 32 16 32C24.8366 32 32 24.8366 32 16Z" fill="#FEF5E4"/>
<path fill-rule="evenodd" clip-rule="evenodd" d="M24.64 16.2044C24.64 15.5662 24.5827 14.9526 24.4764 14.3635H16V17.8449H20.8436C20.635 18.9699 20.0009 19.9231 19.0477 20.5613V22.8194H21.9564C23.6582 21.2526 24.64 18.9453 24.64 16.2044Z" fill="#4285F4"/>
<path fill-rule="evenodd" clip-rule="evenodd" d="M15.9998 25C18.4298 25 20.4671 24.1941 21.9562 22.8195L19.0475 20.5613C18.2416 21.1013 17.2107 21.4204 15.9998 21.4204C13.6557 21.4204 11.6716 19.8372 10.9638 17.71H7.95703V20.0418C9.43794 22.9831 12.4816 25 15.9998 25Z" fill="#34A853"/>
<path fill-rule="evenodd" clip-rule="evenodd" d="M10.9641 17.7101C10.7841 17.1701 10.6818 16.5933 10.6818 16.0001C10.6818 15.4069 10.7841 14.8301 10.9641 14.2901V11.9583H7.95727C7.34773 13.1733 7 14.5478 7 16.0001C7 17.4523 7.34773 18.8269 7.95727 20.0419L10.9641 17.7101Z" fill="#FBBC05"/>
<path fill-rule="evenodd" clip-rule="evenodd" d="M15.9998 10.5796C17.3212 10.5796 18.5075 11.0336 19.4403 11.9254L22.0216 9.34409C20.463 7.89182 18.4257 7 15.9998 7C12.4816 7 9.43794 9.01682 7.95703 11.9582L10.9638 14.29C11.6716 12.1627 13.6557 10.5796 15.9998 10.5796Z" fill="#EA4335"/>
</svg>
