<svg width="32" height="32" viewBox="0 0 32 32" fill="none" xmlns="http://www.w3.org/2000/svg">
<path fill-rule="evenodd" clip-rule="evenodd" d="M16 32C24.8366 32 32 24.8366 32 16C32 7.16344 24.8366 0 16 0C7.16344 0 0 7.16344 0 16C0 24.8366 7.16344 32 16 32ZM12.0199 22.3688H9.05207V13.3633H12.0199V22.3688ZM10.5355 12.1229C11.4937 12.1229 12.271 11.3797 12.271 10.4615C12.271 9.54421 11.4937 8.8 10.5355 8.8C9.57722 8.8 8.8 9.54421 8.8 10.4625C8.8 11.3797 9.57722 12.1229 10.5355 12.1229ZM16.9393 14.3936C17.1873 14.0265 18.0456 13.0302 20.0561 13.0302C22.5218 13.0302 23.2 15.3388 23.2 17.0513V22.4078H20.2322V17.3294C20.2322 16.9213 19.9881 15.4689 18.5917 15.4689C17.1963 15.4689 16.9393 17.0513 16.9393 17.0513V22.3698H13.9714V13.3623H16.9393V14.3936Z" fill="black"/>
</svg>
