<svg width="110" height="32" viewBox="0 0 110 32" fill="none" xmlns="http://www.w3.org/2000/svg">
<path fill-rule="evenodd" clip-rule="evenodd" d="M81.0774 11.2801H84.002V11.281V23.8149C84.002 26.3697 83.7711 27.4523 82.9251 28.6908C81.8473 30.3161 79.9226 31.1668 77.7679 31.1668C73.9955 31.1668 71.6098 28.7678 71.6098 24.8994H74.4574C74.5344 25.9829 74.6114 26.4467 74.9193 26.9885C75.4582 27.9171 76.6131 28.4589 77.7679 28.4589C79.9226 28.4589 81.0004 27.1434 81.0004 24.4346V22.6553C79.8456 23.9708 78.6138 24.5125 76.998 24.5125C73.6115 24.5125 71.0709 21.7257 71.0709 17.8573C71.0709 13.833 73.6115 10.9702 77.075 10.9702C78.6148 10.9702 80.0766 11.589 81.0774 12.7504V11.2801ZM81.1544 17.6254C81.1544 15.2264 79.7686 13.5232 77.6139 13.5232V13.5241C75.4582 13.5241 74.0725 15.2264 74.0725 17.7024C74.0725 20.1784 75.4582 21.8037 77.6139 21.8037C79.6916 21.8037 81.1544 20.1014 81.1544 17.6254ZM27.1962 24.1257V11.2801H30.1217V12.4406C31.1986 11.2021 31.8915 10.8932 33.1233 10.8932C34.5091 10.8932 35.74 11.512 36.5098 12.7504C37.4337 11.589 38.7425 10.8932 40.2823 10.8932C43.1299 10.8932 44.5926 12.6725 44.5926 16.155V24.2797H41.6671V17.1606C41.6671 14.6847 41.1282 13.756 39.7424 13.756C38.0506 13.756 37.3567 14.9166 37.3567 17.6254V24.2027H34.4321V17.0836C34.4321 14.7626 33.8162 13.6791 32.5074 13.6791C30.8146 13.6791 30.1217 14.8396 30.1217 17.5484V24.1257H27.1962ZM55.5991 12.7504V11.2801H58.5247V24.0477H55.5991V22.7332C54.2143 23.9708 53.2134 24.4346 51.6737 24.4346C48.1332 24.4346 45.5925 21.5718 45.5925 17.5475C45.5925 13.756 48.1332 10.8932 51.5976 10.8932C53.2134 10.8932 54.2913 11.435 55.5991 12.7504ZM55.7531 17.6254C55.7531 15.2264 54.2913 13.5232 52.1356 13.5232V13.5241C50.1348 13.5241 48.5951 15.3034 48.5951 17.6254C48.5951 20.1014 50.0579 21.8037 52.1356 21.8037C54.2913 21.8037 55.7531 20.1014 55.7531 17.6254ZM60.9103 11.2801H63.8359V24.1257H60.9103V11.2801ZM61.6314 4.22689C61.8663 4.13019 62.1181 4.08131 62.3722 4.0831H62.3731C62.6272 4.08118 62.8791 4.12997 63.1141 4.22661C63.3491 4.32326 63.5625 4.46581 63.7417 4.64593C63.921 4.82605 64.0625 5.04011 64.1579 5.27559C64.2534 5.51106 64.301 5.76322 64.2978 6.0173C64.3011 6.27146 64.2537 6.52373 64.1582 6.75931C64.0628 6.9949 63.9213 7.20908 63.7421 7.3893C63.5628 7.56952 63.3494 7.71215 63.1144 7.80886C62.8793 7.90556 62.6273 7.95438 62.3731 7.95246C62.1189 7.95438 61.8669 7.90556 61.6319 7.80886C61.3968 7.71215 61.1834 7.56952 61.0042 7.3893C60.8249 7.20908 60.6834 6.9949 60.588 6.75931C60.4926 6.52373 60.4451 6.27146 60.4484 6.0173C60.4452 5.7633 60.4928 5.51122 60.5882 5.27581C60.6836 5.0404 60.825 4.82638 61.0042 4.64627C61.1833 4.46617 61.3965 4.32359 61.6314 4.22689ZM69.4541 0.833435H66.5295V24.0477H69.4541V0.833435ZM85.7728 11.2801H88.6974V18.631C88.6974 20.7981 89.4672 21.8037 91.161 21.8037C92.9307 21.8037 93.7006 20.7981 93.7006 18.631V11.2801H96.6262V18.7089C96.6262 20.7201 96.3182 21.8037 95.3174 22.8872C94.2405 23.9708 92.8547 24.5125 91.161 24.5125C89.5442 24.5125 88.0824 23.9708 87.0815 22.8872C86.1577 21.8037 85.7728 20.7201 85.7728 18.7089V11.2801ZM98.6269 24.1257V11.2801H101.475V12.4406C102.629 11.2801 103.553 10.8932 104.939 10.8932C108.095 10.8932 109.557 12.6725 109.557 16.232V24.1257H106.632V16.9287C106.632 14.4527 106.094 13.6011 104.246 13.6011C102.245 13.6011 101.552 14.7616 101.552 17.9343V24.1257H98.6269ZM7.67262 15.7594C7.67262 13.2083 9.75986 11.1981 12.233 11.1981C14.7061 11.1981 16.7924 13.2083 16.7924 15.7594C16.7924 18.3095 14.7061 20.3197 12.233 20.3197C11.6326 20.3252 11.0371 20.2109 10.4814 19.9837C9.92562 19.7565 9.42072 19.4207 8.99616 18.9962C8.5716 18.5716 8.2359 18.0667 8.00865 17.511C7.7814 16.9552 7.66717 16.3598 7.67262 15.7594ZM12.156 8.64794C8.29138 8.64794 5.12251 11.8168 5.12251 15.6814L5.12156 15.6833C5.11842 16.6079 5.2982 17.5239 5.65056 18.3786C6.00291 19.2334 6.52087 20.01 7.17462 20.6638C7.82836 21.3175 8.60498 21.8355 9.45974 22.1878C10.3145 22.5402 11.2305 22.72 12.155 22.7168C14.7052 22.7168 16.9473 21.4033 18.1839 19.393C18.5707 19.9338 19.2655 20.4756 20.3481 20.4756C22.8982 20.4756 24.1348 18.3104 24.1348 15.6824C24.1348 9.11177 18.8017 3.70074 12.233 3.70074C5.58539 3.70074 0.253247 9.11082 0.253247 15.6805C0.247724 17.2553 0.55376 18.8157 1.15374 20.2718C1.75371 21.7279 2.63578 23.0509 3.74915 24.1648C4.86252 25.2786 6.18521 26.1612 7.64106 26.7617C9.09692 27.3623 10.6572 27.6689 12.232 27.664C15.7108 27.664 18.9566 26.1176 21.0429 23.6435L19.1115 22.0201C17.4111 23.9524 14.938 25.112 12.156 25.112C6.97688 25.112 2.72732 20.8615 2.72732 15.6814C2.72732 10.5023 6.97688 6.25085 12.156 6.25085C17.3332 6.25085 21.5847 10.5023 21.5847 15.6814C21.5847 16.2232 21.4307 17.6907 20.2711 17.6907C19.5754 17.6907 19.0336 17.1499 19.1115 16.4551C19.1885 16.2232 19.1885 15.9133 19.1885 15.6814C19.1885 11.8168 16.0197 8.64794 12.156 8.64794ZM14.3193 15.6814C14.3193 14.522 13.3919 13.5944 12.2325 13.5942C12.2327 13.5942 12.2328 13.5942 12.233 13.5942H12.232C12.2322 13.5942 12.2323 13.5942 12.2325 13.5942C11.0732 13.5944 10.1457 14.522 10.1457 15.6814C10.1446 15.9558 10.1978 16.2278 10.3023 16.4815C10.4068 16.7353 10.5605 16.9658 10.7546 17.1598C10.9486 17.3539 11.1791 17.5076 11.4329 17.6121C11.6866 17.7166 11.9586 17.7698 12.233 17.7687C13.3916 17.7687 14.3193 16.841 14.3193 15.6814Z" fill="#655B6E"/>
</svg>
