<svg width="131" height="32" viewBox="0 0 131 32" fill="none" xmlns="http://www.w3.org/2000/svg">
<path fill-rule="evenodd" clip-rule="evenodd" d="M14.3181 0L10.9824 2.87159V1.02653H4.31036V8.61536L0.557373 11.8462L1.78604 13.8572L14.3182 3.09742L26.8508 13.8572L28.0794 11.8462L14.3181 0ZM8.94547 3.31111V4.62513L6.34729 6.86182V3.31111H8.94547ZM4.31036 28.741H23.9094V12.8308H16.4034V8.21175H9.73139V12.8308H4.31036V28.741ZM15.5694 26.2193V21.0426H14.7355H9.73139H6.391V26.2193H15.5694ZM14.7355 18.4764H11.3994V10.2647H15.1524V18.4764H14.7355ZM6.391 18.4764H9.73139V15.3527H6.391V18.4764ZM17.6545 26.2193H21.8288V15.3527H17.6545V26.2193ZM47.1718 6.22401V25.7818C47.1718 26.0446 47.0313 26.2201 46.8199 26.2201H43.4885C43.3008 26.2201 43.1603 26.1323 43.0664 25.928L37.2952 13.0551V25.7818C37.2952 26.0446 37.1542 26.2201 36.9428 26.2201H34.0104C33.799 26.2201 33.6585 26.0446 33.6585 25.7818V6.22401C33.6585 5.96123 33.799 5.78622 34.0104 5.78622H37.3185C37.5061 5.78622 37.6467 5.87346 37.7405 6.07877L43.5356 18.9804V6.22401C43.5356 5.96123 43.6761 5.78622 43.8871 5.78622H46.8199C47.0313 5.78622 47.1718 5.96123 47.1718 6.22401ZM52.5678 17.7835H57.3066C57.0723 16.1196 56.1107 15.3318 54.9843 15.3318C53.8113 15.3318 52.8259 16.1196 52.5678 17.7835ZM59.5826 20.5566H52.6145C52.9669 22.1039 53.9989 22.9215 55.571 22.9215C56.3217 22.9215 56.9784 22.7167 57.7995 22.0747C58.0105 21.9002 58.1514 21.9289 58.3157 22.1332L59.5355 23.5929C59.6765 23.797 59.6765 24.0014 59.4888 24.2348C58.9315 24.9317 58.2667 25.4843 57.5334 25.8602C56.8 26.2362 56.0131 26.4277 55.2187 26.4238C51.6058 26.4238 49.1192 23.1253 49.1192 19.0096C49.1192 14.8935 51.6058 11.6242 54.9605 11.6242C58.2924 11.6242 60.4275 14.8935 60.4275 18.7468C60.4275 19.9438 60.3098 20.5566 59.5826 20.5566ZM65.4244 11.9163C65.6354 11.9163 65.7759 12.0918 65.7759 12.3541V25.7818C65.7759 26.0446 65.6354 26.2201 65.4244 26.2201H62.6088C62.3978 26.2201 62.2568 26.0446 62.2568 25.7818V12.3541C62.2568 12.0918 62.3978 11.9163 62.6088 11.9163H65.4244ZM62.1397 7.07084C62.1397 5.75697 62.9612 4.70638 64.0161 4.70638C65.0724 4.70638 65.8935 5.75697 65.8935 7.07084C65.8935 8.35495 65.072 9.40604 64.0166 9.40604C62.9607 9.40604 62.1397 8.35495 62.1397 7.07084ZM73.5883 15.566C75.0666 15.566 76.1695 17.171 76.1695 18.9226C76.1695 20.6737 75.0666 22.3084 73.5887 22.3084C72.0871 22.3084 70.9845 20.7908 70.9845 18.9226C70.9845 17.0837 72.0871 15.566 73.5883 15.566ZM79.7591 26.1038V12.3542C79.7591 12.092 79.6181 11.9165 79.4071 11.9165H76.8497C76.6387 11.9165 76.5215 12.092 76.4977 12.3542L76.4277 13.4932C75.6062 12.3542 74.5036 11.5957 73.1429 11.5957C69.952 11.5957 67.6064 14.923 67.606 18.9519C67.606 22.9802 69.952 26.3081 73.1429 26.3081C74.5974 26.3081 75.7238 25.5198 76.5215 24.3813V25.7239C76.5215 27.9134 74.5741 28.439 73.3539 28.439C71.9933 28.439 70.8907 28.1177 69.8115 27.3294C69.6005 27.1836 69.4833 27.2714 69.3424 27.5049L68.4271 29.5481C68.3337 29.7815 68.357 29.9858 68.5213 30.1321C69.7415 31.2412 71.618 32.0002 73.6354 32.0002C76.2634 32.0002 79.7591 30.6869 79.7591 26.1038ZM93.2955 17.7542V25.7817C93.2955 26.0444 93.1549 26.2199 92.9435 26.2199H90.1288C89.9173 26.2199 89.7764 26.0444 89.7764 25.7817V18.6303C89.7764 16.3243 88.7443 15.6535 87.8056 15.6535C86.2335 15.6535 85.5768 17.5797 85.5768 18.2802V25.7822C85.5768 26.0449 85.4362 26.2204 85.2252 26.2204H82.4096C82.1986 26.2204 82.0577 26.0449 82.0577 25.7822V5.34832C82.0577 5.08554 82.1986 4.91053 82.4096 4.91053H85.2252C85.4362 4.91053 85.5768 5.08554 85.5768 5.34832V14.1641C86.304 12.6752 87.477 11.5949 89.1196 11.5949C91.4423 11.5949 93.2955 13.9306 93.2955 17.7542ZM104.181 19.0681C104.181 17.0249 103.079 15.6233 101.577 15.6233C100.029 15.6233 98.9963 17.1414 98.9963 19.0681C98.9963 21.0235 100.029 22.4246 101.577 22.4246C103.078 22.4246 104.181 21.0532 104.181 19.0681ZM107.559 19.0974C107.559 23.1836 105.213 26.4242 101.999 26.4242C100.498 26.4242 99.4421 25.6646 98.7148 24.5561L98.5739 25.7822C98.5505 26.0444 98.4329 26.2199 98.2219 26.2199H95.8292C95.6177 26.2199 95.4772 26.0444 95.4772 25.7822V5.3478C95.4772 5.08503 95.6177 4.9095 95.8292 4.9095H98.6443C98.8558 4.9095 98.9963 5.08503 98.9963 5.3478V13.229C99.7235 12.2657 100.732 11.6241 101.999 11.6241C105.213 11.6241 107.559 14.9227 107.559 19.0974ZM117.39 19.0681C117.39 17.0828 116.241 15.6524 114.786 15.6524C113.355 15.6524 112.181 17.0828 112.181 19.0681C112.181 21.0235 113.355 22.4538 114.786 22.4538C116.241 22.4538 117.39 21.024 117.39 19.0681ZM108.803 19.0681C108.803 14.8939 111.478 11.5954 114.786 11.5954C118.117 11.5954 120.792 14.8939 120.792 19.0681C120.792 23.2134 118.117 26.5114 114.786 26.5114C111.478 26.5114 108.803 23.2134 108.803 19.0681ZM129.894 15.4784L130.668 12.9676C130.739 12.7634 130.739 12.5298 130.551 12.3257C130.223 11.9458 129.636 11.5958 128.956 11.5958C127.548 11.5958 126.586 12.6171 126 14.0187L125.906 12.3548C125.882 12.0921 125.765 11.9166 125.554 11.9166H122.856C122.645 11.9166 122.504 12.0921 122.504 12.3548V25.7825C122.504 26.0453 122.645 26.2203 122.856 26.2203H125.671C125.882 26.2203 126.023 26.0453 126.023 25.7825V18.6599C126.023 16.9083 126.891 15.5657 128.346 15.5657C128.72 15.5657 128.978 15.6687 129.191 15.7535C129.231 15.7696 129.27 15.7851 129.308 15.7991C129.59 15.8869 129.801 15.8284 129.894 15.4784Z" fill="#655B6E"/>
</svg>
