<svg width="72" height="32" viewBox="0 0 72 32" fill="none" xmlns="http://www.w3.org/2000/svg">
<path fill-rule="evenodd" clip-rule="evenodd" d="M57.544 9.31958V10.1634H60.48C60.59 10.1653 60.6789 10.2952 60.6802 10.456V14.5624C60.6789 14.7227 60.5896 14.8518 60.48 14.8518H57.7417C57.6321 14.8536 57.5438 14.9841 57.544 15.1443V30.8728C57.544 31.0324 57.4553 31.162 57.3461 31.162H53.9261C53.8167 31.162 53.7282 31.0324 53.7282 30.8728V15.1476C53.7282 15.0701 53.7071 14.9956 53.6696 14.9408C53.6322 14.8861 53.5813 14.8551 53.5281 14.8551H51.7972C51.7443 14.8561 51.6934 14.826 51.6558 14.7716C51.6182 14.7174 51.5971 14.6433 51.5971 14.5658V10.456C51.5971 10.2945 51.6867 10.1634 51.7972 10.1634H53.7282V9.31958C53.7282 3.43037 55.9153 -0.0603119 60.4894 0.262901C60.5957 0.271837 60.6792 0.399753 60.6802 0.555499V5.31863C60.6803 5.399 60.6576 5.47581 60.6173 5.53068C60.5772 5.58556 60.5232 5.61349 60.4684 5.60781C58.6164 5.49555 57.544 6.48218 57.544 9.31958ZM28.4406 24.1601L31.5884 21.4689C31.639 21.4225 31.7013 21.4116 31.758 21.4392C31.8148 21.4669 31.8601 21.5303 31.8815 21.6119C32.6447 24.2452 34.0802 25.9293 36.5581 25.9293C39.0359 25.9293 39.8711 24.4154 39.8711 22.7278C39.8711 20.479 38.4752 19.6148 35.404 18.305C32.2399 16.9645 29.1618 15.0183 29.1618 9.26522C29.1618 3.51205 32.419 0.266293 35.9671 0.266293C39.3011 0.266293 41.8697 2.71932 43.2797 6.81219C43.3257 6.95093 43.2914 7.11824 43.2005 7.19666L40.1131 9.80274C40.0652 9.8408 40.0087 9.84893 39.9565 9.82527C39.9044 9.8016 39.8611 9.74802 39.8362 9.67683C39.0963 7.53688 37.9749 6.06373 35.9671 6.06373C34.2501 6.06373 33.2449 7.36338 33.2449 9.09178C33.2449 10.9528 34.043 11.9462 37.1792 13.3308L37.1908 13.3361C40.4702 14.8487 43.952 16.4545 43.952 22.6326C43.952 28.2973 40.8483 31.7574 36.4394 31.7574C32.2818 31.7574 29.5247 28.8758 28.3638 24.5072C28.3317 24.3795 28.3635 24.2363 28.4406 24.1601ZM7.33979 13.5907C7.33979 16.2259 5.85605 18.3619 4.02574 18.3619C2.19542 18.3619 0.71167 16.2259 0.71167 13.5907C0.71167 10.9555 2.19542 8.81945 4.02574 8.81945C5.85605 8.81945 7.33979 10.9555 7.33979 13.5907ZM16.3858 13.5907C16.3858 16.2259 14.902 18.3619 13.0717 18.3619C11.2414 18.3619 9.75764 16.2259 9.75764 13.5907C9.75764 10.9555 11.2414 8.81945 13.0717 8.81945C14.902 8.81945 16.3858 10.9555 16.3858 13.5907ZM22.1035 18.3619C23.9339 18.3619 25.4176 16.2259 25.4176 13.5907C25.4176 10.9555 23.9339 8.81945 22.1035 8.81945C20.2732 8.81945 18.7894 10.9555 18.7894 13.5907C18.7894 16.2259 20.2732 18.3619 22.1035 18.3619ZM16.3858 26.5059C16.3858 29.1411 14.902 31.2772 13.0717 31.2772C11.2414 31.2772 9.75764 29.1411 9.75764 26.5059C9.75764 23.8708 11.2414 21.7347 13.0717 21.7347C14.902 21.7347 16.3858 23.8708 16.3858 26.5059ZM46.0739 1.49111C46.0866 1.47213 46.1007 1.45503 46.1158 1.44007C47.9886 -0.471979 50.0035 1.59317 50.0035 4.16188C49.9807 6.04941 48.9283 7.56255 47.6373 7.5641C45.7645 7.5709 44.3452 4.22992 46.0739 1.49111ZM45.9412 10.1634H49.3614C49.471 10.1653 49.5591 10.2958 49.5591 10.456V30.8695C49.5591 31.0291 49.4706 31.1585 49.3614 31.1585H45.9412C45.8888 31.1585 45.8385 31.1281 45.8014 31.0739C45.7643 31.0196 45.7435 30.9462 45.7435 30.8695V10.456C45.7432 10.3009 45.826 10.1725 45.932 10.1634H45.9412ZM68.6209 15.1441C68.6209 14.984 68.709 14.8535 68.8186 14.8516H71.7642C71.8734 14.8516 71.9619 14.7222 71.9619 14.5623V10.4558C71.9619 10.2957 71.8738 10.1652 71.7642 10.1633H68.8186C68.7094 10.1633 68.6209 10.0338 68.6209 9.87401V4.31484C68.6201 4.22023 68.5882 4.13196 68.5351 4.07792C68.482 4.02389 68.4143 4.01075 68.3534 4.04266L64.9356 5.85606C64.8568 5.89887 64.8049 6.0089 64.8053 6.13164V9.87401C64.804 10.0344 64.7148 10.1633 64.6052 10.1633H62.4297C62.3199 10.1652 62.231 10.2951 62.2297 10.4558V14.5658C62.231 14.7261 62.3201 14.855 62.4297 14.855H64.6029C64.7129 14.8567 64.8017 14.9867 64.803 15.1476V23.8948C64.803 29.6683 66.5688 31.9751 71.7828 31.1926C71.8845 31.1752 71.9614 31.0497 71.9619 30.9V26.409C71.962 26.3293 71.9395 26.2529 71.9 26.1982C71.8603 26.1435 71.807 26.1152 71.7525 26.1198C69.7005 26.2762 68.6209 26.1572 68.6209 23.8948V15.1441Z" fill="#655B6E"/>
</svg>
