<svg width="32" height="32" viewBox="0 0 32 32" fill="none" xmlns="http://www.w3.org/2000/svg">
<path fill-rule="evenodd" clip-rule="evenodd" d="M16 32C24.8366 32 32 24.8366 32 16C32 7.16344 24.8366 0 16 0C7.16344 0 0 7.16344 0 16C0 24.8366 7.16344 32 16 32ZM22.4913 12.2966C22.9848 12.2102 23.4885 12.0811 23.9459 11.8672C23.9813 11.8507 23.9936 11.8397 23.9979 11.8423C24.0007 11.844 23.9999 11.8515 23.9999 11.8672V11.8802C23.9999 11.8821 23.9999 11.8842 23.9999 11.8864C24.0002 11.9277 24.0007 12.0171 23.9287 12.1166C23.5925 12.5847 23.2335 13.0035 22.7823 13.353C22.7696 13.3628 22.7553 13.3727 22.7405 13.3829C22.6782 13.4259 22.6063 13.4756 22.6063 13.5531C22.6063 16.009 21.9987 18.4615 20.2641 20.2403C18.0556 22.504 14.7421 23.1206 11.8 22.2821C11.2307 22.1199 10.6856 21.8923 10.1632 21.6066C9.99035 21.5089 9.82064 21.408 9.65328 21.2943C9.61105 21.2595 9.57977 21.2273 9.61575 21.2031C9.65172 21.1853 9.67909 21.1837 9.81126 21.2031C10.6332 21.287 11.4809 21.1611 12.2591 20.8802C12.2814 20.8722 12.305 20.8638 12.3298 20.8549C12.7815 20.6935 13.6203 20.3937 13.8716 19.9981C13.8748 19.9933 13.8779 19.9909 13.881 19.9885C13.8842 19.986 13.8873 19.9836 13.8904 19.9788C13.829 19.964 13.7679 19.9577 13.7067 19.9513C13.6609 19.9466 13.6151 19.9419 13.569 19.9336C12.7697 19.6979 11.703 19.2839 11.2088 17.8934C11.1767 17.8127 11.2088 17.7699 11.2901 17.7861C11.9486 17.8393 12.1848 17.8022 12.4139 17.7505C12.2849 17.7271 12.1527 17.6819 12.0338 17.6303C11.0266 17.2348 10.2907 16.2212 10.1569 15.1253C10.1413 14.9994 10.1319 14.8912 10.1382 14.7742C10.1444 14.6935 10.1788 14.6677 10.2484 14.7137C10.7661 14.9889 11.3472 15.0542 11.3941 15.0445C11.2651 14.9396 11.1462 14.8266 11.0289 14.7137C10.1561 13.859 9.81751 12.1231 10.5159 11.0416C10.573 10.9545 10.6097 10.9545 10.6801 11.0352C12.2763 12.9132 14.2439 13.7904 16.6166 14.1544C16.68 14.1633 16.6862 14.1544 16.6768 14.0826C16.6151 13.6516 16.6065 13.2287 16.7081 12.8026C16.8148 12.3587 17.0151 11.9445 17.2947 11.5896C17.564 11.2475 17.8983 10.9657 18.2769 10.7616C18.6544 10.5571 19.0691 10.4362 19.4945 10.4065C19.9327 10.3767 20.3717 10.4496 20.7787 10.6196C21.0834 10.7485 21.3659 10.9272 21.6155 11.149C21.6697 11.1982 21.7201 11.2516 21.7664 11.3088C21.7813 11.3253 21.8005 11.3371 21.8217 11.3428C21.8429 11.3485 21.8652 11.3479 21.886 11.341C22.4869 11.1886 23.067 10.9592 23.6128 10.6583C23.6386 10.6454 23.6597 10.6389 23.691 10.6518C23.716 10.672 23.7059 10.7043 23.6941 10.7301C23.5896 11.0624 23.4251 11.3713 23.2093 11.6405C23.0708 11.818 22.726 12.2554 22.4913 12.2966Z" fill="black"/>
</svg>
