<svg width="107" height="32" viewBox="0 0 107 32" fill="none" xmlns="http://www.w3.org/2000/svg">
<path fill-rule="evenodd" clip-rule="evenodd" d="M78.6375 24.327H80.4086C80.6211 24.327 80.7628 24.1526 80.7628 23.891V0.435967C80.7628 0.174386 80.6211 0 80.4086 0H78.6375C78.4249 0 78.2832 0.174386 78.2832 0.435967V23.891C78.2832 24.1526 78.4249 24.327 78.6375 24.327ZM74.6702 3.57499C74.6702 4.09814 74.5285 4.6213 74.1743 4.97008C73.8909 5.31886 73.4658 5.49324 73.0408 5.49324C72.6157 5.49324 72.1906 5.31886 71.9072 4.88288C71.6239 4.53412 71.4113 4.01095 71.4113 3.48779C71.4113 2.96463 71.553 2.44146 71.9072 2.0927C72.1906 1.74393 72.6157 1.48234 73.0408 1.56954C73.4658 1.56954 73.8909 1.74393 74.1743 2.0927C74.5285 2.52866 74.6702 3.05183 74.6702 3.57499ZM73.9617 24.327H72.1906C71.9781 24.327 71.8364 24.1526 71.8364 23.8911V9.50414C71.8364 9.24256 71.9781 9.06817 72.1906 9.06817H73.9617C74.1743 9.06817 74.316 9.24256 74.316 9.50414V23.8911C74.316 24.1526 74.1743 24.327 73.9617 24.327ZM13.8855 5.84195H4.46321C1.98365 5.84195 0 8.28336 0 11.2479V22.1471C0 25.1989 1.98365 27.6402 4.46321 27.6402H13.8855C16.3651 27.6402 18.3487 25.1989 18.3487 22.1471V11.3351C18.3487 8.28336 16.3651 5.84195 13.8855 5.84195ZM3.89647 21.4496C3.82563 22.3216 4.10901 23.1935 4.53407 23.8038C5.10083 24.4142 5.73843 24.763 6.51772 24.4142C7.58039 24.4142 8.50137 23.9782 9.20982 23.0191C10.06 21.7984 10.7684 20.4033 11.1226 18.8338C11.0872 19.3134 11.0518 19.7711 11.0164 20.2289L11.0163 20.229C10.9809 20.6868 10.9455 21.1445 10.9101 21.624C10.8392 22.4087 11.1226 23.1935 11.5477 23.7167C12.0436 24.2398 12.752 24.5886 13.4605 24.5014C14.0272 24.5014 14.594 24.327 15.0899 23.9782C15.6567 23.5423 16.2234 22.9319 16.6485 22.2343C16.861 21.9728 16.9319 21.5369 16.9319 21.1008C16.9319 20.9264 16.861 20.6649 16.7902 20.4905C16.7902 20.3161 16.6485 20.2289 16.5068 20.2289C16.3651 20.2289 16.1526 20.3161 16.0817 20.4905C15.7275 21.0137 15.3733 21.4496 14.9482 21.8855C14.6649 22.1472 14.3106 22.3216 13.9564 22.3216C13.673 22.3216 13.3896 22.1472 13.1771 21.8855C12.9646 21.624 12.8937 21.1881 12.8937 20.7521C12.9292 20.4905 12.9469 20.2289 12.9646 19.9674C12.9823 19.7057 13 19.4442 13.0354 19.1826C13.1771 17.6132 13.3896 15.8693 13.673 13.951C13.7623 13.3467 13.8235 12.8116 13.8742 12.3675C13.904 12.1068 13.9302 11.8775 13.9564 11.684C13.9564 11.466 13.9741 11.248 13.9918 11.03C14.0095 10.812 14.0272 10.594 14.0272 10.3761C14.0272 9.8529 13.9564 9.41694 13.7439 9.06816C13.5313 8.80657 13.248 8.71939 12.9646 8.71939C12.6812 8.71939 12.3978 8.89377 12.1853 9.15535C12.0436 9.50412 11.9019 10.0273 11.9019 10.4633C11.6894 12.8175 11.3352 15.0846 10.6976 17.2644C10.3433 18.6594 9.77657 19.9674 8.99728 21.1008C8.57222 21.7984 7.86377 22.2343 7.15532 22.3216C6.87195 22.3216 6.58857 22.2343 6.37603 21.9728C6.1635 21.7113 6.09266 21.3625 6.09266 21.0137C6.09266 20.8828 6.11037 20.7521 6.12808 20.6213C6.14579 20.4905 6.1635 20.3598 6.1635 20.2289C6.19892 20.0981 6.21663 19.9674 6.23434 19.8366C6.25206 19.7057 6.26977 19.575 6.30519 19.4442L6.37603 18.8338L6.94279 15.3461C7.0172 14.8423 7.09162 14.4108 7.15577 14.0388C7.21377 13.7024 7.26338 13.4146 7.29701 13.1663C7.36786 12.5559 7.36786 12.0327 7.36786 11.4224V11.4224C7.4387 10.7248 7.22617 10.0273 6.87195 9.41694C6.51772 8.98096 5.95097 8.71939 5.45505 8.71939C3.96732 8.80657 2.62127 9.76571 1.84198 11.3352C1.5586 11.684 1.41691 12.2071 1.41691 12.6431C1.41691 12.8175 1.48776 12.9919 1.5586 13.079C1.62945 13.2534 1.77114 13.3407 1.91283 13.3407C2.12536 13.3407 2.33789 13.1663 2.40874 12.9919C2.76296 12.3815 3.18803 11.8584 3.68394 11.4224C3.96732 11.1608 4.32154 10.8992 4.74661 10.8992C4.95914 10.8992 5.10083 10.9864 5.17168 11.1608C5.18645 11.2153 5.20122 11.2661 5.21535 11.3146L5.21538 11.3147L5.21539 11.3148C5.26901 11.499 5.31336 11.6514 5.31336 11.8584C5.31336 12.3815 5.24252 12.9046 5.17168 13.3407C5.13625 13.5586 5.10083 13.733 5.07427 13.8638C5.0477 13.9946 5.02999 14.0817 5.02999 14.1254L4.10901 19.4442C3.96732 20.1417 3.89647 20.7521 3.89647 21.4496ZM27.6294 12.6431C27.4877 12.8175 27.2752 12.7302 27.1335 12.5558C26.8501 12.1199 26.5667 11.7711 26.2125 11.5968C25.7166 11.248 25.079 11.0736 24.5122 11.0736C24.2289 11.0736 23.9455 11.0736 23.6621 11.1608C23.3787 11.248 23.1662 11.3352 22.9537 11.5096C22.7411 11.6839 22.5994 11.8583 22.4577 12.1199C22.3161 12.3815 22.2452 12.6431 22.2452 12.9919C22.2452 13.6022 22.5286 14.1253 22.9537 14.387C23.6621 14.8229 24.3706 15.0844 25.079 15.2588C25.6458 15.4332 26.2125 15.6076 26.7084 15.8692C27.2043 16.0436 27.6294 16.3924 28.0545 16.7412C28.4087 17.09 28.6921 17.5259 28.9046 18.0491C29.1171 18.5722 29.2588 19.1825 29.188 19.793C29.188 20.5777 29.0463 21.3625 28.7629 22.0599C28.4795 22.6703 28.0545 23.1935 27.5586 23.6294C27.0626 24.0654 26.5667 24.327 26 24.5014C25.4332 24.6758 24.7956 24.763 24.158 24.763C23.237 24.763 22.2452 24.5014 21.3951 24.0654C20.6158 23.7167 19.9073 23.1062 19.4114 22.3215C19.2697 22.1472 19.2697 21.8855 19.4114 21.7111L20.6158 20.4033C20.7575 20.2289 20.97 20.3161 21.1117 20.4905C21.4659 20.9264 21.8201 21.3625 22.2452 21.624C22.812 22.0599 23.5204 22.2343 24.158 22.2343C24.4414 22.2343 24.7956 22.2343 25.079 22.1472C25.3624 22.0599 25.6458 21.9728 25.8583 21.7984C26.0708 21.624 26.2834 21.3625 26.425 21.1008C26.5667 20.752 26.6376 20.4033 26.6376 20.0545C26.6376 19.3569 26.3542 18.7466 25.8583 18.485C25.079 18.0491 24.2997 17.7003 23.4496 17.5259C23.0245 17.4386 22.5994 17.2644 22.1744 17.09C21.7493 16.9156 21.3951 16.6539 21.0409 16.3052C20.6866 15.9564 20.4033 15.6076 20.1907 15.0844C19.9782 14.5614 19.8365 13.951 19.8365 13.3406C19.8365 12.6431 19.9782 11.8583 20.2616 11.248C20.5449 10.6376 20.8992 10.2016 21.3242 9.76569C21.7493 9.32972 22.3161 9.06814 22.812 8.89375C23.3787 8.71936 23.9455 8.63217 24.5122 8.63217C25.3624 8.63217 26.2834 8.80656 27.0626 9.24252C27.7002 9.5913 28.3378 10.1145 28.7629 10.812C28.9046 10.9864 28.8338 11.248 28.6921 11.4224L27.6294 12.6431ZM43.4986 17.1771V16.5668C43.4986 15.4332 43.4277 14.387 43.286 13.3406C43.0026 12.3815 42.6484 11.5096 42.0817 10.812C41.5149 10.1145 40.8773 9.5913 40.1688 9.24252C38.5394 8.45778 36.7683 8.45778 35.1389 9.24252C34.3596 9.5913 33.6512 10.2016 33.0844 10.8992C32.5176 11.5967 32.0217 12.4687 31.7383 13.4278C31.3841 14.4741 31.2424 15.5205 31.2424 16.6539C31.2424 17.7874 31.3841 18.921 31.7383 19.9673C32.3051 21.8855 33.5803 23.455 35.1389 24.1526C36.9808 25.0245 38.9645 24.9374 40.7356 23.9782C41.5857 23.455 42.2942 22.7575 42.8609 21.8855C42.9318 21.7111 42.9318 21.4496 42.7901 21.2752L41.5857 20.1417C41.4441 20.0545 41.2315 20.0545 41.0898 20.2289C40.8065 20.752 40.3814 21.1881 39.8855 21.5367C39.177 22.0599 38.4686 22.2343 37.6893 22.2343C36.6266 22.2343 35.6348 21.7984 34.8555 20.9264C34.5013 20.4905 34.2179 19.9673 34.0054 19.4442C33.7928 19.0082 33.722 18.5722 33.6512 18.1362H33.6511V18.0491C33.6511 17.7874 33.7928 17.613 34.0054 17.613H43.1443C43.3569 17.613 43.4986 17.4386 43.4986 17.1771ZM40.9481 14.9102C40.9481 15.1717 40.8065 15.3461 40.5939 15.3461H34.0054H33.9345C33.722 15.2588 33.6511 15.0844 33.6511 14.8229C33.722 14.387 33.8637 13.951 34.0054 13.6022C34.2179 13.079 34.5013 12.5558 34.8555 12.2071C35.2097 11.7711 35.6348 11.4224 36.0599 11.248C36.5558 10.9864 37.0517 10.8992 37.5476 10.8992C38.0435 10.8992 38.5394 11.0736 39.0353 11.248C39.8146 11.6839 40.4522 12.5558 40.7356 13.6022C40.771 13.8202 40.8064 14.0164 40.8419 14.2126C40.8773 14.4087 40.9127 14.6049 40.9481 14.8229V14.9102ZM46.474 10.812C46.474 10.376 46.474 9.94003 46.4032 9.59126C46.4032 9.32967 46.5449 9.15529 46.7574 9.15529H48.3868C48.5994 9.15529 48.7411 9.32967 48.7411 9.50406C48.7411 9.62545 48.7563 9.76561 48.7727 9.91584V9.91589C48.7916 10.0894 48.8119 10.2763 48.8119 10.4632V11.6839H48.8828C49.237 10.812 49.7329 10.0272 50.4413 9.50406C51.0789 8.9809 51.9291 8.63214 52.7084 8.71932C52.9209 8.71932 53.1334 8.71932 53.346 8.80651C53.4877 8.80651 53.6293 8.9809 53.6293 9.24249L53.5585 11.1607C53.5585 11.4223 53.4168 11.5967 53.2043 11.5967C52.9917 11.5095 52.7084 11.5095 52.4958 11.5095C51.9999 11.5095 51.4332 11.5967 50.9372 11.9455C50.5122 12.2071 50.158 12.5558 49.8746 12.9918C49.5912 13.4278 49.3787 13.9509 49.237 14.5612C49.0953 15.1717 49.0244 15.782 49.0244 16.3924V23.9782C49.0244 24.2398 48.8828 24.4142 48.6702 24.4142H46.8991C46.6866 24.4142 46.5449 24.2398 46.5449 23.9782V12.3814C46.5449 11.9455 46.5449 11.4223 46.474 10.812ZM55.9672 32H57.7383C57.9509 32 58.0926 31.8256 58.0926 31.5641V21.9728H58.1634C58.5885 22.8447 59.2261 23.5423 60.0054 23.9782C60.7847 24.4142 61.6348 24.6758 62.4849 24.6758C63.4059 24.6758 64.256 24.5014 65.1062 24.0654C65.8855 23.6294 66.5231 23.1062 67.0898 22.3215C67.6566 21.5367 68.0816 20.6649 68.365 19.7057C68.6484 18.7466 68.7901 17.613 68.7901 16.5668C68.7901 15.5205 68.6484 14.4741 68.365 13.515C68.0816 12.6431 67.6566 11.7711 67.0898 10.9864C66.5231 10.2888 65.8146 9.67849 65.1062 9.24252C64.256 8.80656 63.4059 8.63217 62.5558 8.63217C61.6348 8.63217 60.7138 8.89375 59.8637 9.41691C59.1552 9.85287 58.5176 10.5504 58.0926 11.4224H58.0217V9.5041C58.0217 9.24252 57.88 9.06814 57.6675 9.06814H55.9672C55.7547 9.06814 55.613 9.24252 55.613 9.5041V31.5641C55.613 31.8256 55.7547 32 55.9672 32ZM65.9563 14.5614C66.1688 15.2588 66.2397 15.9564 66.2397 16.6539C66.2397 17.3515 66.1688 18.0491 65.9563 18.7466C65.8146 19.3569 65.5312 19.9673 65.177 20.4905C64.8228 21.0137 64.3977 21.4496 63.9018 21.7111C63.3351 21.9728 62.7683 22.1472 62.1307 22.1472C61.5639 22.1472 60.9972 21.9728 60.4304 21.7111C59.9345 21.4496 59.4386 21.0137 59.0844 20.4905C58.7302 19.9673 58.4468 19.3569 58.2342 18.7466C57.8092 17.3515 57.8092 15.8692 58.2342 14.5614C58.4468 13.951 58.7302 13.3406 59.0844 12.8175C59.5094 12.2943 59.9345 11.8583 60.4304 11.5968C60.9263 11.3352 61.5639 11.1608 62.1307 11.1608C62.6974 11.1608 63.3351 11.248 63.9018 11.5968C64.3977 11.8583 64.8228 12.2943 65.177 12.8175C65.5312 13.3406 65.8146 13.951 65.9563 14.5614ZM97.1988 16.6539C97.1988 17.7874 97.0571 18.8338 96.7029 19.8801C96.3487 20.8393 95.9236 21.7111 95.286 22.4087C94.6484 23.1062 93.9399 23.7167 93.1607 24.0654C91.4604 24.8501 89.5476 24.8501 87.9182 24.0654C86.2887 23.3679 85.0135 21.7984 84.3759 19.793C84.0217 18.7466 83.88 17.7003 83.88 16.5668C83.88 15.4332 84.0217 14.387 84.3759 13.3406C84.7301 12.3815 85.1552 11.5096 85.7928 10.812C86.4304 10.1145 87.1389 9.50411 87.9182 9.15534C89.6184 8.3706 91.4604 8.3706 93.1607 9.15534C93.9399 9.50411 94.6484 10.1145 95.286 10.812C95.9236 11.5096 96.3487 12.3815 96.7029 13.3406C96.9863 14.4741 97.1988 15.5205 97.1988 16.6539ZM94.6484 16.6539C94.6484 15.9564 94.5776 15.2588 94.365 14.5614C94.2233 13.951 93.9399 13.3406 93.5857 12.8175C93.2315 12.2943 92.8064 11.8583 92.3105 11.5968C91.177 10.9864 89.9018 10.9864 88.7683 11.5968C88.2724 11.8583 87.8473 12.2943 87.4931 12.8175C87.1389 13.3406 86.8555 13.951 86.7138 14.5614C86.3596 15.9564 86.3596 17.3515 86.7138 18.7466V18.7467C86.9264 19.357 87.1389 19.9674 87.4931 20.4905C87.8473 21.0137 88.2724 21.4496 88.7683 21.7111C89.9018 22.3215 91.177 22.3215 92.3105 21.7111C92.8064 21.4496 93.2315 21.0137 93.5857 20.4905C93.9399 19.9673 94.2233 19.3569 94.365 18.7466V18.7465C94.5067 18.049 94.6484 17.3515 94.6484 16.6539ZM103.291 11.5095H105.913C106.125 11.5095 106.267 11.3352 106.338 10.9864V9.3297C106.338 9.06812 106.196 8.89374 105.983 8.89374H103.362C103.15 8.89374 103.008 8.71935 103.008 8.45777V4.97003C103.008 4.70846 102.866 4.53407 102.654 4.53407H100.883C100.67 4.53407 100.528 4.70846 100.528 4.97003V8.45777C100.528 8.71935 100.387 8.89374 100.174 8.89374H98.474C98.2614 8.89374 98.1197 9.06812 98.1197 9.3297V10.9864C98.1197 11.248 98.2614 11.4223 98.474 11.4223H100.174C100.387 11.4223 100.528 11.5967 100.528 11.8583V19.7057C100.458 21.0137 100.741 22.3215 101.449 23.2806C102.158 24.1526 103.15 24.5886 104.142 24.5014C104.567 24.5014 104.921 24.5013 105.275 24.4142C105.488 24.4142 105.771 24.327 105.983 24.2398C106.125 24.1526 106.196 23.9782 106.196 23.8038L106.125 22.2343V22.1471C106.054 21.9728 105.913 21.7984 105.7 21.8855L105.417 21.9728C105.204 22.0599 104.921 22.0599 104.708 22.0599C104.212 22.0599 103.716 21.8855 103.362 21.4496C103.008 20.8393 102.866 20.1417 102.937 19.4442V11.9455C102.937 11.6839 103.079 11.5095 103.291 11.5095Z" fill="#655B6E"/>
</svg>
