<svg width="1120" height="334" viewBox="0 0 1120 334" fill="none" xmlns="http://www.w3.org/2000/svg">
<path opacity="0.08" fill-rule="evenodd" clip-rule="evenodd" d="M1104 3.09261C1104 4.80057 1107.58 6.1852 1112 6.1852C1116.42 6.1852 1120 4.80057 1120 3.09261C1120 1.38465 1116.42 1.87298e-05 1112 1.86551e-05C1107.58 1.85804e-05 1104 1.38465 1104 3.09261ZM1064 6.1852C1059.58 6.1852 1056 4.80057 1056 3.09261C1056 1.38464 1059.58 1.77694e-05 1064 1.7844e-05C1068.42 1.79187e-05 1072 1.38464 1072 3.09261C1072 4.80057 1068.42 6.1852 1064 6.1852ZM1008 3.09261C1008 4.80057 1011.58 6.1852 1016 6.1852C1020.42 6.1852 1024 4.80057 1024 3.09261C1024 1.38464 1020.42 1.71076e-05 1016 1.70329e-05C1011.58 1.69583e-05 1008 1.38464 1008 3.09261ZM968 6.1852C963.58 6.1852 960 4.80057 960 3.09261C960 1.38464 963.58 1.61472e-05 968 1.62218e-05C972.42 1.62965e-05 976 1.38464 976 3.09261C976 4.80057 972.42 6.1852 968 6.1852ZM1104 77.3148C1104 79.0229 1107.58 80.4074 1112 80.4074C1116.42 80.4074 1120 79.0229 1120 77.3148C1120 75.6068 1116.42 74.2222 1112 74.2222C1107.58 74.2222 1104 75.6068 1104 77.3148ZM1064 80.4074C1059.58 80.4074 1056 79.0229 1056 77.3148C1056 75.6068 1059.58 74.2222 1064 74.2222C1068.42 74.2222 1072 75.6068 1072 77.3148C1072 79.0229 1068.42 80.4074 1064 80.4074ZM1008 77.3148C1008 79.0229 1011.58 80.4074 1016 80.4074C1020.42 80.4074 1024 79.0229 1024 77.3148C1024 75.6068 1020.42 74.2222 1016 74.2222C1011.58 74.2222 1008 75.6068 1008 77.3148ZM968 80.4074C963.58 80.4074 960 79.0229 960 77.3148C960 75.6068 963.58 74.2222 968 74.2222C972.42 74.2222 976 75.6068 976 77.3148C976 79.0229 972.42 80.4074 968 80.4074ZM1104 21.6482C1104 23.3562 1107.58 24.7408 1112 24.7408C1116.42 24.7408 1120 23.3562 1120 21.6482C1120 19.9401 1116.42 18.5556 1112 18.5556C1107.58 18.5556 1104 19.9401 1104 21.6482ZM1064 24.7408C1059.58 24.7408 1056 23.3562 1056 21.6482C1056 19.9401 1059.58 18.5556 1064 18.5556C1068.42 18.5556 1072 19.9401 1072 21.6482C1072 23.3562 1068.42 24.7408 1064 24.7408ZM1008 21.6482C1008 23.3562 1011.58 24.7408 1016 24.7408C1020.42 24.7408 1024 23.3562 1024 21.6482C1024 19.9401 1020.42 18.5556 1016 18.5556C1011.58 18.5556 1008 19.9401 1008 21.6482ZM968 24.7408C963.58 24.7408 960 23.3562 960 21.6482C960 19.9401 963.58 18.5556 968 18.5556C972.42 18.5556 976 19.9401 976 21.6482C976 23.3562 972.42 24.7408 968 24.7408ZM1104 95.8704C1104 97.5784 1107.58 98.963 1112 98.963C1116.42 98.963 1120 97.5784 1120 95.8704C1120 94.1623 1116.42 92.7778 1112 92.7778C1107.58 92.7778 1104 94.1623 1104 95.8704ZM1064 98.963C1059.58 98.963 1056 97.5784 1056 95.8704C1056 94.1623 1059.58 92.7778 1064 92.7778C1068.42 92.7778 1072 94.1623 1072 95.8704C1072 97.5784 1068.42 98.963 1064 98.963ZM1008 95.8704C1008 97.5784 1011.58 98.963 1016 98.963C1020.42 98.963 1024 97.5784 1024 95.8704C1024 94.1623 1020.42 92.7778 1016 92.7778C1011.58 92.7778 1008 94.1623 1008 95.8704ZM968 98.963C963.58 98.963 960 97.5784 960 95.8704C960 94.1623 963.58 92.7778 968 92.7778C972.42 92.7778 976 94.1623 976 95.8704C976 97.5784 972.42 98.963 968 98.963ZM1104 40.2037C1104 41.9118 1107.58 43.2963 1112 43.2963C1116.42 43.2963 1120 41.9118 1120 40.2037C1120 38.4957 1116.42 37.1111 1112 37.1111C1107.58 37.1111 1104 38.4957 1104 40.2037ZM1064 43.2963C1059.58 43.2963 1056 41.9118 1056 40.2037C1056 38.4957 1059.58 37.1111 1064 37.1111C1068.42 37.1111 1072 38.4957 1072 40.2037C1072 41.9118 1068.42 43.2963 1064 43.2963ZM1008 40.2037C1008 41.9118 1011.58 43.2963 1016 43.2963C1020.42 43.2963 1024 41.9118 1024 40.2037C1024 38.4957 1020.42 37.1111 1016 37.1111C1011.58 37.1111 1008 38.4957 1008 40.2037ZM968 43.2963C963.58 43.2963 960 41.9118 960 40.2037C960 38.4957 963.58 37.1111 968 37.1111C972.42 37.1111 976 38.4957 976 40.2037C976 41.9118 972.42 43.2963 968 43.2963ZM1104 114.426C1104 116.134 1107.58 117.519 1112 117.519C1116.42 117.519 1120 116.134 1120 114.426C1120 112.718 1116.42 111.333 1112 111.333C1107.58 111.333 1104 112.718 1104 114.426ZM1064 117.519C1059.58 117.519 1056 116.134 1056 114.426C1056 112.718 1059.58 111.333 1064 111.333C1068.42 111.333 1072 112.718 1072 114.426C1072 116.134 1068.42 117.519 1064 117.519ZM1008 114.426C1008 116.134 1011.58 117.519 1016 117.519C1020.42 117.519 1024 116.134 1024 114.426C1024 112.718 1020.42 111.333 1016 111.333C1011.58 111.333 1008 112.718 1008 114.426ZM968 117.519C963.58 117.519 960 116.134 960 114.426C960 112.718 963.58 111.333 968 111.333C972.42 111.333 976 112.718 976 114.426C976 116.134 972.42 117.519 968 117.519ZM1104 58.7593C1104 60.4673 1107.58 61.8519 1112 61.8519C1116.42 61.8519 1120 60.4673 1120 58.7593C1120 57.0512 1116.42 55.6667 1112 55.6667C1107.58 55.6667 1104 57.0512 1104 58.7593ZM1064 61.8519C1059.58 61.8519 1056 60.4673 1056 58.7593C1056 57.0512 1059.58 55.6667 1064 55.6667C1068.42 55.6667 1072 57.0512 1072 58.7593C1072 60.4673 1068.42 61.8519 1064 61.8519ZM1008 58.7593C1008 60.4673 1011.58 61.8519 1016 61.8519C1020.42 61.8519 1024 60.4673 1024 58.7593C1024 57.0512 1020.42 55.6667 1016 55.6667C1011.58 55.6667 1008 57.0512 1008 58.7593ZM968 61.8519C963.58 61.8519 960 60.4673 960 58.7593C960 57.0512 963.58 55.6667 968 55.6667C972.42 55.6667 976 57.0512 976 58.7593C976 60.4673 972.42 61.8519 968 61.8519ZM1104 132.982C1104 134.69 1107.58 136.074 1112 136.074C1116.42 136.074 1120 134.69 1120 132.982C1120 131.273 1116.42 129.889 1112 129.889C1107.58 129.889 1104 131.273 1104 132.982ZM1064 136.074C1059.58 136.074 1056 134.69 1056 132.982C1056 131.273 1059.58 129.889 1064 129.889C1068.42 129.889 1072 131.273 1072 132.982C1072 134.69 1068.42 136.074 1064 136.074ZM1008 132.982C1008 134.69 1011.58 136.074 1016 136.074C1020.42 136.074 1024 134.69 1024 132.982C1024 131.273 1020.42 129.889 1016 129.889C1011.58 129.889 1008 131.273 1008 132.982ZM968 136.074C963.58 136.074 960 134.69 960 132.982C960 131.273 963.58 129.889 968 129.889C972.42 129.889 976 131.273 976 132.982C976 134.69 972.42 136.074 968 136.074ZM912 3.09261C912 4.80057 915.58 6.1852 920 6.1852C924.42 6.1852 928 4.80057 928 3.09261C928 1.38464 924.42 1.54854e-05 920 1.54107e-05C915.58 1.53361e-05 912 1.38464 912 3.09261ZM872 6.1852C867.58 6.1852 864 4.80057 864 3.09261C864 1.38464 867.58 1.4525e-05 872 1.45997e-05C876.42 1.46743e-05 880 1.38464 880 3.09261C880 4.80057 876.42 6.1852 872 6.1852ZM816 3.09261C816 4.80057 819.58 6.1852 824 6.1852C828.42 6.1852 832 4.80057 832 3.09261C832 1.38464 828.42 1.38632e-05 824 1.37886e-05C819.58 1.37139e-05 816 1.38464 816 3.09261ZM776 6.1852C771.58 6.1852 768 4.80057 768 3.09261C768 1.38464 771.58 1.29028e-05 776 1.29775e-05C780.42 1.30521e-05 784 1.38464 784 3.09261C784 4.80057 780.42 6.1852 776 6.1852ZM912 77.3148C912 79.0229 915.58 80.4074 920 80.4074C924.42 80.4074 928 79.0229 928 77.3148C928 75.6068 924.42 74.2222 920 74.2222C915.58 74.2222 912 75.6068 912 77.3148ZM872 80.4074C867.58 80.4074 864 79.0229 864 77.3148C864 75.6068 867.58 74.2222 872 74.2222C876.42 74.2222 880 75.6068 880 77.3148C880 79.0229 876.42 80.4074 872 80.4074ZM816 77.3148C816 79.0227 819.58 80.4074 824 80.4074C828.42 80.4074 832 79.0229 832 77.3148C832 75.6068 828.42 74.2222 824 74.2222C819.58 74.2222 816 75.6068 816 77.3148ZM776 80.4074C771.58 80.4074 768 79.0227 768 77.3148C768 75.6068 771.58 74.2222 776 74.2222C780.42 74.2222 784 75.6068 784 77.3148C784 79.0227 780.42 80.4074 776 80.4074ZM912 21.6482C912 23.3562 915.58 24.7408 920 24.7408C924.42 24.7408 928 23.3562 928 21.6482C928 19.9401 924.42 18.5556 920 18.5556C915.58 18.5556 912 19.9401 912 21.6482ZM872 24.7408C867.58 24.7408 864 23.3562 864 21.6482C864 19.9401 867.58 18.5556 872 18.5556C876.42 18.5556 880 19.9401 880 21.6482C880 23.3562 876.42 24.7408 872 24.7408ZM816 21.6482C816 23.3561 819.58 24.7408 824 24.7408C828.42 24.7408 832 23.3562 832 21.6482C832 19.9401 828.42 18.5556 824 18.5556C819.58 18.5556 816 19.9401 816 21.6482ZM776 24.7408C771.58 24.7408 768 23.3561 768 21.6482C768 19.9401 771.58 18.5556 776 18.5556C780.42 18.5556 784 19.9401 784 21.6482C784 23.3561 780.42 24.7408 776 24.7408ZM912 95.8704C912 97.5784 915.58 98.963 920 98.963C924.42 98.963 928 97.5784 928 95.8704C928 94.1623 924.42 92.7778 920 92.7778C915.58 92.7778 912 94.1623 912 95.8704ZM872 98.963C867.58 98.963 864 97.5784 864 95.8704C864 94.1623 867.58 92.7778 872 92.7778C876.42 92.7778 880 94.1623 880 95.8704C880 97.5784 876.42 98.963 872 98.963ZM816 95.8704C816 97.5783 819.58 98.963 824 98.963C828.42 98.963 832 97.5784 832 95.8704C832 94.1623 828.42 92.7778 824 92.7778C819.58 92.7778 816 94.1623 816 95.8704ZM776 98.963C771.58 98.963 768 97.5783 768 95.8704C768 94.1623 771.58 92.7778 776 92.7778C780.42 92.7778 784 94.1623 784 95.8704C784 97.5783 780.42 98.963 776 98.963ZM912 40.2037C912 41.9118 915.58 43.2963 920 43.2963C924.42 43.2963 928 41.9118 928 40.2037C928 38.4957 924.42 37.1111 920 37.1111C915.58 37.1111 912 38.4957 912 40.2037ZM872 43.2963C867.58 43.2963 864 41.9118 864 40.2037C864 38.4957 867.58 37.1111 872 37.1111C876.42 37.1111 880 38.4957 880 40.2037C880 41.9118 876.42 43.2963 872 43.2963ZM816 40.2037C816 41.9116 819.58 43.2963 824 43.2963C828.42 43.2963 832 41.9118 832 40.2037C832 38.4957 828.42 37.1111 824 37.1111C819.58 37.1111 816 38.4957 816 40.2037ZM776 43.2963C771.58 43.2963 768 41.9116 768 40.2037C768 38.4957 771.58 37.1111 776 37.1111C780.42 37.1111 784 38.4957 784 40.2037C784 41.9116 780.42 43.2963 776 43.2963ZM912 114.426C912 116.134 915.58 117.519 920 117.519C924.42 117.519 928 116.134 928 114.426C928 112.718 924.42 111.333 920 111.333C915.58 111.333 912 112.718 912 114.426ZM872 117.519C867.58 117.519 864 116.134 864 114.426C864 112.718 867.58 111.333 872 111.333C876.42 111.333 880 112.718 880 114.426C880 116.134 876.42 117.519 872 117.519ZM816 114.426C816 116.134 819.58 117.519 824 117.519C828.42 117.519 832 116.134 832 114.426C832 112.718 828.42 111.333 824 111.333C819.58 111.333 816 112.718 816 114.426ZM776 117.519C771.58 117.519 768 116.134 768 114.426C768 112.718 771.58 111.333 776 111.333C780.42 111.333 784 112.718 784 114.426C784 116.134 780.42 117.519 776 117.519ZM912 58.7593C912 60.4673 915.58 61.8519 920 61.8519C924.42 61.8519 928 60.4673 928 58.7593C928 57.0512 924.42 55.6667 920 55.6667C915.58 55.6667 912 57.0512 912 58.7593ZM872 61.8519C867.58 61.8519 864 60.4673 864 58.7593C864 57.0512 867.58 55.6667 872 55.6667C876.42 55.6667 880 57.0512 880 58.7593C880 60.4673 876.42 61.8519 872 61.8519ZM816 58.7593C816 60.4672 819.58 61.8519 824 61.8519C828.42 61.8519 832 60.4673 832 58.7593C832 57.0512 828.42 55.6667 824 55.6667C819.58 55.6667 816 57.0512 816 58.7593ZM776 61.8519C771.58 61.8519 768 60.4672 768 58.7593C768 57.0512 771.58 55.6667 776 55.6667C780.42 55.6667 784 57.0512 784 58.7593C784 60.4672 780.42 61.8519 776 61.8519ZM912 132.982C912 134.69 915.58 136.074 920 136.074C924.42 136.074 928 134.69 928 132.982C928 131.273 924.42 129.889 920 129.889C915.58 129.889 912 131.273 912 132.982ZM872 136.074C867.58 136.074 864 134.69 864 132.982C864 131.273 867.58 129.889 872 129.889C876.42 129.889 880 131.273 880 132.982C880 134.69 876.42 136.074 872 136.074ZM816 132.982C816 134.689 819.58 136.074 824 136.074C828.42 136.074 832 134.69 832 132.982C832 131.273 828.42 129.889 824 129.889C819.58 129.889 816 131.273 816 132.982ZM776 136.074C771.58 136.074 768 134.689 768 132.982C768 131.273 771.58 129.889 776 129.889C780.42 129.889 784 131.273 784 132.982C784 134.689 780.42 136.074 776 136.074ZM728 6.1852C723.58 6.1852 720 4.80057 720 3.09261C720 1.38464 723.58 1.20917e-05 728 1.21664e-05C732.42 1.22411e-05 736 1.38464 736 3.09261C736 4.80057 732.42 6.1852 728 6.1852ZM680 6.1852C675.58 6.1852 672 4.80057 672 3.09261C672 1.38464 675.58 1.12806e-05 680 1.13553e-05C684.42 1.143e-05 688 1.38464 688 3.09261C688 4.80057 684.42 6.1852 680 6.1852ZM624 3.0926C624 4.80057 627.58 6.18519 632 6.18519C636.42 6.18519 640 4.80057 640 3.0926C640 1.38464 636.42 1.06189e-05 632 1.05442e-05C627.58 1.04696e-05 624 1.38464 624 3.0926ZM584 6.18519C579.58 6.18519 576 4.80057 576 3.0926C576 1.38464 579.58 9.65846e-06 584 9.73311e-06C588.42 9.80779e-06 592 1.38464 592 3.0926C592 4.80057 588.42 6.18519 584 6.18519ZM720 77.3148C720 79.0227 723.58 80.4074 728 80.4074C732.42 80.4074 736 79.0227 736 77.3148C736 75.6068 732.42 74.2222 728 74.2222C723.58 74.2222 720 75.6068 720 77.3148ZM680 80.4074C675.58 80.4074 672 79.0227 672 77.3148C672 75.6068 675.58 74.2222 680 74.2222C684.42 74.2222 688 75.6068 688 77.3148C688 79.0227 684.42 80.4074 680 80.4074ZM624 77.3148C624 79.0227 627.58 80.4074 632 80.4074C636.42 80.4074 640 79.0227 640 77.3148C640 75.6068 636.42 74.2222 632 74.2222C627.58 74.2222 624 75.6068 624 77.3148ZM584 80.4074C579.58 80.4074 576 79.0227 576 77.3148C576 75.6068 579.58 74.2222 584 74.2222C588.42 74.2222 592 75.6068 592 77.3148C592 79.0227 588.42 80.4074 584 80.4074ZM720 21.6482C720 23.3561 723.58 24.7408 728 24.7408C732.42 24.7408 736 23.3561 736 21.6482C736 19.9401 732.42 18.5556 728 18.5556C723.58 18.5556 720 19.9401 720 21.6482ZM680 24.7408C675.58 24.7408 672 23.3561 672 21.6482C672 19.9401 675.58 18.5556 680 18.5556C684.42 18.5556 688 19.9401 688 21.6482C688 23.3561 684.42 24.7408 680 24.7408ZM624 21.6482C624 23.3561 627.58 24.7408 632 24.7408C636.42 24.7408 640 23.3561 640 21.6482C640 19.9401 636.42 18.5556 632 18.5556C627.58 18.5556 624 19.9401 624 21.6482ZM584 24.7408C579.58 24.7408 576 23.3561 576 21.6482C576 19.9401 579.58 18.5556 584 18.5556C588.42 18.5556 592 19.9401 592 21.6482C592 23.3561 588.42 24.7408 584 24.7408ZM720 95.8704C720 97.5783 723.58 98.963 728 98.963C732.42 98.963 736 97.5783 736 95.8704C736 94.1623 732.42 92.7778 728 92.7778C723.58 92.7778 720 94.1623 720 95.8704ZM680 98.963C675.58 98.963 672 97.5783 672 95.8704C672 94.1623 675.58 92.7778 680 92.7778C684.42 92.7778 688 94.1623 688 95.8704C688 97.5783 684.42 98.963 680 98.963ZM624 95.8704C624 97.5783 627.58 98.963 632 98.963C636.42 98.963 640 97.5783 640 95.8704C640 94.1623 636.42 92.7778 632 92.7778C627.58 92.7778 624 94.1623 624 95.8704ZM584 98.963C579.58 98.963 576 97.5783 576 95.8704C576 94.1623 579.58 92.7778 584 92.7778C588.42 92.7778 592 94.1623 592 95.8704C592 97.5783 588.42 98.963 584 98.963ZM720 40.2037C720 41.9116 723.58 43.2963 728 43.2963C732.42 43.2963 736 41.9116 736 40.2037C736 38.4957 732.42 37.1111 728 37.1111C723.58 37.1111 720 38.4957 720 40.2037ZM680 43.2963C675.58 43.2963 672 41.9116 672 40.2037C672 38.4957 675.58 37.1111 680 37.1111C684.42 37.1111 688 38.4957 688 40.2037C688 41.9116 684.42 43.2963 680 43.2963ZM624 40.2037C624 41.9116 627.58 43.2963 632 43.2963C636.42 43.2963 640 41.9116 640 40.2037C640 38.4957 636.42 37.1111 632 37.1111C627.58 37.1111 624 38.4957 624 40.2037ZM584 43.2963C579.58 43.2963 576 41.9116 576 40.2037C576 38.4957 579.58 37.1111 584 37.1111C588.42 37.1111 592 38.4957 592 40.2037C592 41.9116 588.42 43.2963 584 43.2963ZM720 114.426C720 116.134 723.58 117.519 728 117.519C732.42 117.519 736 116.134 736 114.426C736 112.718 732.42 111.333 728 111.333C723.58 111.333 720 112.718 720 114.426ZM680 117.519C675.58 117.519 672 116.134 672 114.426C672 112.718 675.58 111.333 680 111.333C684.42 111.333 688 112.718 688 114.426C688 116.134 684.42 117.519 680 117.519ZM624 114.426C624 116.134 627.58 117.519 632 117.519C636.42 117.519 640 116.134 640 114.426C640 112.718 636.42 111.333 632 111.333C627.58 111.333 624 112.718 624 114.426ZM584 117.519C579.58 117.519 576 116.134 576 114.426C576 112.718 579.58 111.333 584 111.333C588.42 111.333 592 112.718 592 114.426C592 116.134 588.42 117.519 584 117.519ZM720 58.7593C720 60.4672 723.58 61.8519 728 61.8519C732.42 61.8519 736 60.4672 736 58.7593C736 57.0512 732.42 55.6667 728 55.6667C723.58 55.6667 720 57.0512 720 58.7593ZM680 61.8519C675.58 61.8519 672 60.4672 672 58.7593C672 57.0512 675.58 55.6667 680 55.6667C684.42 55.6667 688 57.0512 688 58.7593C688 60.4672 684.42 61.8519 680 61.8519ZM624 58.7593C624 60.4672 627.58 61.8519 632 61.8519C636.42 61.8519 640 60.4672 640 58.7593C640 57.0512 636.42 55.6667 632 55.6667C627.58 55.6667 624 57.0512 624 58.7593ZM584 61.8519C579.58 61.8519 576 60.4672 576 58.7593C576 57.0512 579.58 55.6667 584 55.6667C588.42 55.6667 592 57.0512 592 58.7593C592 60.4672 588.42 61.8519 584 61.8519ZM720 132.982C720 134.689 723.58 136.074 728 136.074C732.42 136.074 736 134.689 736 132.982C736 131.273 732.42 129.889 728 129.889C723.58 129.889 720 131.273 720 132.982ZM680 136.074C675.58 136.074 672 134.689 672 132.982C672 131.273 675.58 129.889 680 129.889C684.42 129.889 688 131.273 688 132.982C688 134.689 684.42 136.074 680 136.074ZM624 132.982C624 134.689 627.58 136.074 632 136.074C636.42 136.074 640 134.689 640 132.982C640 131.273 636.42 129.889 632 129.889C627.58 129.889 624 131.273 624 132.982ZM584 136.074C579.58 136.074 576 134.689 576 132.982C576 131.273 579.58 129.889 584 129.889C588.42 129.889 592 131.273 592 132.982C592 134.689 588.42 136.074 584 136.074ZM528 3.0926C528 4.80057 531.58 6.18519 536 6.18519C540.42 6.18519 544 4.80057 544 3.0926C544 1.38463 540.42 8.99669e-06 536 8.92204e-06C531.58 8.84737e-06 528 1.38463 528 3.0926ZM488 6.18519C483.58 6.18519 480 4.80057 480 3.0926C480 1.38463 483.58 8.03629e-06 488 8.11094e-06C492.42 8.1856e-06 496 1.38463 496 3.0926C496 4.80057 492.42 6.18519 488 6.18519ZM432 3.0926C432 4.80057 435.58 6.18519 440 6.18519C444.42 6.18519 448 4.80057 448 3.0926C448 1.38463 444.42 7.37452e-06 440 7.29985e-06C435.58 7.22519e-06 432 1.38463 432 3.0926ZM392 6.18519C387.582 6.18519 384 4.80057 384 3.0926C384 1.38463 387.582 6.4141e-06 392 6.48877e-06C396.418 6.56342e-06 400 1.38463 400 3.0926C400 4.80057 396.418 6.18519 392 6.18519ZM528 77.3148C528 79.0227 531.58 80.4074 536 80.4074C540.42 80.4074 544 79.0227 544 77.3148C544 75.6068 540.42 74.2222 536 74.2222C531.58 74.2222 528 75.6068 528 77.3148ZM488 80.4074C483.58 80.4074 480 79.0227 480 77.3148C480 75.6068 483.58 74.2222 488 74.2222C492.42 74.2222 496 75.6068 496 77.3148C496 79.0227 492.42 80.4074 488 80.4074ZM432 77.3148C432 79.0227 435.58 80.4074 440 80.4074C444.42 80.4074 448 79.0227 448 77.3148C448 75.6068 444.42 74.2222 440 74.2222C435.58 74.2222 432 75.6068 432 77.3148ZM392 80.4074C387.582 80.4074 384 79.0227 384 77.3148C384 75.6068 387.582 74.2222 392 74.2222C396.418 74.2222 400 75.6068 400 77.3148C400 79.0227 396.418 80.4074 392 80.4074ZM528 21.6482C528 23.3561 531.58 24.7408 536 24.7408C540.42 24.7408 544 23.3561 544 21.6482C544 19.9401 540.42 18.5556 536 18.5556C531.58 18.5556 528 19.9401 528 21.6482ZM488 24.7408C483.58 24.7408 480 23.3561 480 21.6482C480 19.9401 483.58 18.5556 488 18.5556C492.42 18.5556 496 19.9401 496 21.6482C496 23.3561 492.42 24.7408 488 24.7408ZM432 21.6482C432 23.3561 435.58 24.7408 440 24.7408C444.42 24.7408 448 23.3561 448 21.6482C448 19.9401 444.42 18.5556 440 18.5556C435.58 18.5556 432 19.9401 432 21.6482ZM392 24.7408C387.582 24.7408 384 23.3561 384 21.6482C384 19.9401 387.582 18.5556 392 18.5556C396.418 18.5556 400 19.9401 400 21.6482C400 23.3561 396.418 24.7408 392 24.7408ZM528 95.8704C528 97.5783 531.58 98.963 536 98.963C540.42 98.963 544 97.5783 544 95.8704C544 94.1623 540.42 92.7778 536 92.7778C531.58 92.7778 528 94.1623 528 95.8704ZM488 98.963C483.58 98.963 480 97.5783 480 95.8704C480 94.1623 483.58 92.7778 488 92.7778C492.42 92.7778 496 94.1623 496 95.8704C496 97.5783 492.42 98.963 488 98.963ZM432 95.8704C432 97.5783 435.58 98.963 440 98.963C444.42 98.963 448 97.5783 448 95.8704C448 94.1623 444.42 92.7778 440 92.7778C435.58 92.7778 432 94.1623 432 95.8704ZM392 98.963C387.582 98.963 384 97.5783 384 95.8704C384 94.1623 387.582 92.7778 392 92.7778C396.418 92.7778 400 94.1623 400 95.8704C400 97.5783 396.418 98.963 392 98.963ZM528 40.2037C528 41.9116 531.58 43.2963 536 43.2963C540.42 43.2963 544 41.9116 544 40.2037C544 38.4957 540.42 37.1111 536 37.1111C531.58 37.1111 528 38.4957 528 40.2037ZM488 43.2963C483.58 43.2963 480 41.9116 480 40.2037C480 38.4957 483.58 37.1111 488 37.1111C492.42 37.1111 496 38.4957 496 40.2037C496 41.9116 492.42 43.2963 488 43.2963ZM432 40.2037C432 41.9116 435.58 43.2963 440 43.2963C444.42 43.2963 448 41.9116 448 40.2037C448 38.4957 444.42 37.1111 440 37.1111C435.58 37.1111 432 38.4957 432 40.2037ZM392 43.2963C387.582 43.2963 384 41.9116 384 40.2037C384 38.4957 387.582 37.1111 392 37.1111C396.418 37.1111 400 38.4957 400 40.2037C400 41.9116 396.418 43.2963 392 43.2963ZM528 114.426C528 116.134 531.58 117.519 536 117.519C540.42 117.519 544 116.134 544 114.426C544 112.718 540.42 111.333 536 111.333C531.58 111.333 528 112.718 528 114.426ZM488 117.519C483.58 117.519 480 116.134 480 114.426C480 112.718 483.58 111.333 488 111.333C492.42 111.333 496 112.718 496 114.426C496 116.134 492.42 117.519 488 117.519ZM432 114.426C432 116.134 435.58 117.519 440 117.519C444.42 117.519 448 116.134 448 114.426C448 112.718 444.42 111.333 440 111.333C435.58 111.333 432 112.718 432 114.426ZM392 117.519C387.582 117.519 384 116.134 384 114.426C384 112.718 387.582 111.333 392 111.333C396.418 111.333 400 112.718 400 114.426C400 116.134 396.418 117.519 392 117.519ZM528 58.7593C528 60.4672 531.58 61.8519 536 61.8519C540.42 61.8519 544 60.4672 544 58.7593C544 57.0512 540.42 55.6667 536 55.6667C531.58 55.6667 528 57.0512 528 58.7593ZM488 61.8519C483.58 61.8519 480 60.4672 480 58.7593C480 57.0512 483.58 55.6667 488 55.6667C492.42 55.6667 496 57.0512 496 58.7593C496 60.4672 492.42 61.8519 488 61.8519ZM432 58.7593C432 60.4672 435.58 61.8519 440 61.8519C444.42 61.8519 448 60.4672 448 58.7593C448 57.0512 444.42 55.6667 440 55.6667C435.58 55.6667 432 57.0512 432 58.7593ZM392 61.8519C387.582 61.8519 384 60.4672 384 58.7593C384 57.0512 387.582 55.6667 392 55.6667C396.418 55.6667 400 57.0512 400 58.7593C400 60.4672 396.418 61.8519 392 61.8519ZM528 132.982C528 134.689 531.58 136.074 536 136.074C540.42 136.074 544 134.689 544 132.982C544 131.273 540.42 129.889 536 129.889C531.58 129.889 528 131.273 528 132.982ZM488 136.074C483.58 136.074 480 134.689 480 132.982C480 131.273 483.58 129.889 488 129.889C492.42 129.889 496 131.273 496 132.982C496 134.689 492.42 136.074 488 136.074ZM432 132.982C432 134.689 435.58 136.074 440 136.074C444.42 136.074 448 134.689 448 132.982C448 131.273 444.42 129.889 440 129.889C435.58 129.889 432 131.273 432 132.982ZM392 136.074C387.582 136.074 384 134.689 384 132.982C384 131.273 387.582 129.889 392 129.889C396.418 129.889 400 131.273 400 132.982C400 134.689 396.418 136.074 392 136.074ZM336 3.0926C336 4.80056 339.582 6.18519 344 6.18519C348.418 6.18519 352 4.80056 352 3.0926C352 1.38463 348.418 5.75233e-06 344 5.67767e-06C339.582 5.60302e-06 336 1.38463 336 3.0926ZM296 6.18519C291.582 6.18519 288 4.80056 288 3.0926C288 1.38463 291.582 4.79193e-06 296 4.86658e-06C300.418 4.94125e-06 304 1.38463 304 3.0926C304 4.80056 300.418 6.18519 296 6.18519ZM240 3.0926C240 4.80056 243.582 6.18519 248 6.18519C252.418 6.18519 256 4.80056 256 3.0926C256 1.38463 252.418 4.13016e-06 248 4.0555e-06C243.582 3.98083e-06 240 1.38463 240 3.0926ZM200 6.18519C195.582 6.18519 192 4.80056 192 3.0926C192 1.38463 195.582 3.16975e-06 200 3.24444e-06C204.418 3.31912e-06 208 1.38463 208 3.0926C208 4.80056 204.418 6.18519 200 6.18519ZM336 77.3148C336 79.0227 339.582 80.4074 344 80.4074C348.418 80.4074 352 79.0227 352 77.3148C352 75.6068 348.418 74.2222 344 74.2222C339.582 74.2222 336 75.6068 336 77.3148ZM296 80.4074C291.582 80.4074 288 79.0227 288 77.3148C288 75.6068 291.582 74.2222 296 74.2222C300.418 74.2222 304 75.6068 304 77.3148C304 79.0227 300.418 80.4074 296 80.4074ZM240 77.3148C240 79.0227 243.582 80.4074 248 80.4074C252.418 80.4074 256 79.0227 256 77.3148C256 75.6068 252.418 74.2222 248 74.2222C243.582 74.2222 240 75.6068 240 77.3148ZM200 80.4074C195.582 80.4074 192 79.0227 192 77.3148C192 75.6068 195.582 74.2222 200 74.2222C204.418 74.2222 208 75.6068 208 77.3148C208 79.0227 204.418 80.4074 200 80.4074ZM336 21.6482C336 23.3561 339.582 24.7408 344 24.7408C348.418 24.7408 352 23.3561 352 21.6482C352 19.9401 348.418 18.5556 344 18.5556C339.582 18.5556 336 19.9401 336 21.6482ZM296 24.7408C291.582 24.7408 288 23.3561 288 21.6482C288 19.9401 291.582 18.5556 296 18.5556C300.418 18.5556 304 19.9401 304 21.6482C304 23.3561 300.418 24.7408 296 24.7408ZM240 21.6482C240 23.3561 243.582 24.7408 248 24.7408C252.418 24.7408 256 23.3561 256 21.6482C256 19.9401 252.418 18.5556 248 18.5556C243.582 18.5556 240 19.9401 240 21.6482ZM200 24.7408C195.582 24.7408 192 23.3561 192 21.6482C192 19.9401 195.582 18.5556 200 18.5556C204.418 18.5556 208 19.9401 208 21.6482C208 23.3561 204.418 24.7408 200 24.7408ZM336 95.8704C336 97.5783 339.582 98.963 344 98.963C348.418 98.963 352 97.5783 352 95.8704C352 94.1623 348.418 92.7778 344 92.7778C339.582 92.7778 336 94.1623 336 95.8704ZM296 98.963C291.582 98.963 288 97.5783 288 95.8704C288 94.1623 291.582 92.7778 296 92.7778C300.418 92.7778 304 94.1623 304 95.8704C304 97.5783 300.418 98.963 296 98.963ZM240 95.8704C240 97.5783 243.582 98.963 248 98.963C252.418 98.963 256 97.5783 256 95.8704C256 94.1623 252.418 92.7778 248 92.7778C243.582 92.7778 240 94.1623 240 95.8704ZM200 98.963C195.582 98.963 192 97.5783 192 95.8704C192 94.1623 195.582 92.7778 200 92.7778C204.418 92.7778 208 94.1623 208 95.8704C208 97.5783 204.418 98.963 200 98.963ZM336 40.2037C336 41.9116 339.582 43.2963 344 43.2963C348.418 43.2963 352 41.9116 352 40.2037C352 38.4957 348.418 37.1111 344 37.1111C339.582 37.1111 336 38.4957 336 40.2037ZM296 43.2963C291.582 43.2963 288 41.9116 288 40.2037C288 38.4957 291.582 37.1111 296 37.1111C300.418 37.1111 304 38.4957 304 40.2037C304 41.9116 300.418 43.2963 296 43.2963ZM240 40.2037C240 41.9116 243.582 43.2963 248 43.2963C252.418 43.2963 256 41.9116 256 40.2037C256 38.4957 252.418 37.1111 248 37.1111C243.582 37.1111 240 38.4957 240 40.2037ZM200 43.2963C195.582 43.2963 192 41.9116 192 40.2037C192 38.4957 195.582 37.1111 200 37.1111C204.418 37.1111 208 38.4957 208 40.2037C208 41.9116 204.418 43.2963 200 43.2963ZM336 114.426C336 116.134 339.582 117.519 344 117.519C348.418 117.519 352 116.134 352 114.426C352 112.718 348.418 111.333 344 111.333C339.582 111.333 336 112.718 336 114.426ZM296 117.519C291.582 117.519 288 116.134 288 114.426C288 112.718 291.582 111.333 296 111.333C300.418 111.333 304 112.718 304 114.426C304 116.134 300.418 117.519 296 117.519ZM240 114.426C240 116.134 243.582 117.519 248 117.519C252.418 117.519 256 116.134 256 114.426C256 112.718 252.418 111.333 248 111.333C243.582 111.333 240 112.718 240 114.426ZM200 117.519C195.582 117.519 192 116.134 192 114.426C192 112.718 195.582 111.333 200 111.333C204.418 111.333 208 112.718 208 114.426C208 116.134 204.418 117.519 200 117.519ZM336 58.7593C336 60.4672 339.582 61.8519 344 61.8519C348.418 61.8519 352 60.4672 352 58.7593C352 57.0512 348.418 55.6667 344 55.6667C339.582 55.6667 336 57.0512 336 58.7593ZM296 61.8519C291.582 61.8519 288 60.4672 288 58.7593C288 57.0512 291.582 55.6667 296 55.6667C300.418 55.6667 304 57.0512 304 58.7593C304 60.4672 300.418 61.8519 296 61.8519ZM240 58.7593C240 60.4672 243.582 61.8519 248 61.8519C252.418 61.8519 256 60.4672 256 58.7593C256 57.0512 252.418 55.6667 248 55.6667C243.582 55.6667 240 57.0512 240 58.7593ZM200 61.8519C195.582 61.8519 192 60.4672 192 58.7593C192 57.0512 195.582 55.6667 200 55.6667C204.418 55.6667 208 57.0512 208 58.7593C208 60.4672 204.418 61.8519 200 61.8519ZM336 132.982C336 134.689 339.582 136.074 344 136.074C348.418 136.074 352 134.689 352 132.982C352 131.273 348.418 129.889 344 129.889C339.582 129.889 336 131.273 336 132.982ZM296 136.074C291.582 136.074 288 134.689 288 132.982C288 131.273 291.582 129.889 296 129.889C300.418 129.889 304 131.273 304 132.982C304 134.689 300.418 136.074 296 136.074ZM240 132.982C240 134.689 243.582 136.074 248 136.074C252.418 136.074 256 134.689 256 132.982C256 131.273 252.418 129.889 248 129.889C243.582 129.889 240 131.273 240 132.982ZM200 136.074C195.582 136.074 192 134.689 192 132.982C192 131.273 195.582 129.889 200 129.889C204.418 129.889 208 131.273 208 132.982C208 134.689 204.418 136.074 200 136.074ZM144 3.0926C144 4.80056 147.582 6.18519 152 6.18519C156.418 6.18519 160 4.80056 160 3.0926C160 1.38463 156.418 2.50794e-06 152 2.43325e-06C147.582 2.35872e-06 144 1.38463 144 3.0926ZM104 6.18519C99.5816 6.18519 96 4.80056 96 3.0926C96 1.38463 99.5816 1.54753e-06 104 1.62222e-06C108.418 1.6969e-06 112 1.38463 112 3.0926C112 4.80056 108.418 6.18519 104 6.18519ZM48 3.0926C48 4.80056 51.5816 6.18519 56 6.18519C60.4184 6.18519 64 4.80056 64 3.0926C64 1.38463 60.4184 8.85872e-07 56 8.11186e-07C51.5816 7.365e-07 48 1.38463 48 3.0926ZM8.00002 6.18519C3.58157 6.18519 2.28865e-05 4.80056 2.30796e-05 3.0926C2.32728e-05 1.38463 3.58157 -7.46861e-08 8.00002 0C12.4185 7.46861e-08 16 1.38463 16 3.0926C16 4.80056 12.4185 6.18519 8.00002 6.18519ZM144 77.3148C144 79.0227 147.582 80.4074 152 80.4074C156.418 80.4074 160 79.0227 160 77.3148C160 75.6068 156.418 74.2222 152 74.2222C147.582 74.2222 144 75.6068 144 77.3148ZM104 80.4074C99.5816 80.4074 96 79.0227 96 77.3148C96 75.6068 99.5816 74.2222 104 74.2222C108.418 74.2222 112 75.6068 112 77.3148C112 79.0227 108.418 80.4074 104 80.4074ZM48 77.3148C48 79.0227 51.5816 80.4074 56 80.4074C60.4184 80.4074 64 79.0227 64 77.3148C64 75.6068 60.4184 74.2222 56 74.2222C51.5816 74.2222 48 75.6068 48 77.3148ZM8.00002 80.4074C3.58156 80.4074 1.44939e-05 79.0227 1.4687e-05 77.3148C1.48802e-05 75.6068 3.58156 74.2222 8.00002 74.2222C12.4185 74.2222 16 75.6068 16 77.3148C16 79.0227 12.4185 80.4074 8.00002 80.4074ZM144 21.6482C144 23.3561 147.582 24.7408 152 24.7408C156.418 24.7408 160 23.3561 160 21.6482C160 19.9401 156.418 18.5556 152 18.5556C147.582 18.5556 144 19.9401 144 21.6482ZM104 24.7408C99.5816 24.7408 96 23.3561 96 21.6482C96 19.9401 99.5816 18.5556 104 18.5556C108.418 18.5556 112 19.9401 112 21.6482C112 23.3561 108.418 24.7408 104 24.7408ZM48 21.6482C48 23.3561 51.5816 24.7408 56 24.7408C60.4184 24.7408 64 23.3561 64 21.6482C64 19.9401 60.4184 18.5556 56 18.5556C51.5816 18.5556 48 19.9401 48 21.6482ZM8.00002 24.7408C3.58156 24.7408 2.07884e-05 23.3561 2.09815e-05 21.6482C2.11746e-05 19.9401 3.58156 18.5556 8.00002 18.5556C12.4185 18.5556 16 19.9401 16 21.6482C16 23.3561 12.4185 24.7408 8.00002 24.7408ZM144 95.8704C144 97.5783 147.582 98.963 152 98.963C156.418 98.963 160 97.5783 160 95.8704C160 94.1623 156.418 92.7778 152 92.7778C147.582 92.7778 144 94.1623 144 95.8704ZM104 98.963C99.5816 98.963 96 97.5783 96 95.8704C96 94.1623 99.5816 92.7778 104 92.7778C108.418 92.7778 112 94.1623 112 95.8704C112 97.5783 108.418 98.963 104 98.963ZM48 95.8704C48 97.5783 51.5816 98.963 56 98.963C60.4184 98.963 64 97.5783 64 95.8704C64 94.1623 60.4184 92.7778 56 92.7778C51.5816 92.7778 48 94.1623 48 95.8704ZM8.00002 98.963C3.58156 98.963 1.23958e-05 97.5783 1.25889e-05 95.8704C1.2782e-05 94.1623 3.58156 92.7778 8.00002 92.7778C12.4185 92.7778 16 94.1623 16 95.8704C16 97.5783 12.4185 98.963 8.00002 98.963ZM144 40.2037C144 41.9116 147.582 43.2963 152 43.2963C156.418 43.2963 160 41.9116 160 40.2037C160 38.4957 156.418 37.1111 152 37.1111C147.582 37.1111 144 38.4957 144 40.2037ZM104 43.2963C99.5816 43.2963 96 41.9116 96 40.2037C96 38.4957 99.5816 37.1111 104 37.1111C108.418 37.1111 112 38.4957 112 40.2037C112 41.9116 108.418 43.2963 104 43.2963ZM48 40.2037C48 41.9116 51.5816 43.2963 56 43.2963C60.4184 43.2963 64 41.9116 64 40.2037C64 38.4957 60.4184 37.1111 56 37.1111C51.5816 37.1111 48 38.4957 48 40.2037ZM8.00002 43.2963C3.58156 43.2963 1.86902e-05 41.9116 1.88833e-05 40.2037C1.90765e-05 38.4957 3.58156 37.1111 8.00002 37.1111C12.4185 37.1111 16 38.4957 16 40.2037C16 41.9116 12.4185 43.2963 8.00002 43.2963ZM144 114.426C144 116.134 147.582 117.519 152 117.519C156.418 117.519 160 116.134 160 114.426C160 112.718 156.418 111.333 152 111.333C147.582 111.333 144 112.718 144 114.426ZM104 117.519C99.5816 117.519 96 116.134 96 114.426C96 112.718 99.5816 111.333 104 111.333C108.418 111.333 112 112.718 112 114.426C112 116.134 108.418 117.519 104 117.519ZM48 114.426C48 116.134 51.5816 117.519 56 117.519C60.4184 117.519 64 116.134 64 114.426C64 112.718 60.4184 111.333 56 111.333C51.5816 111.333 48 112.718 48 114.426ZM8.00002 117.519C3.58155 117.519 1.02976e-05 116.134 1.04908e-05 114.426C1.06839e-05 112.718 3.58156 111.333 8.00002 111.333C12.4185 111.333 16 112.718 16 114.426C16 116.134 12.4185 117.519 8.00002 117.519ZM144 58.7593C144 60.4672 147.582 61.8519 152 61.8519C156.418 61.8519 160 60.4672 160 58.7593C160 57.0512 156.418 55.6667 152 55.6667C147.582 55.6667 144 57.0512 144 58.7593ZM104 61.8519C99.5816 61.8519 96 60.4672 96 58.7593C96 57.0512 99.5816 55.6667 104 55.6667C108.418 55.6667 112 57.0512 112 58.7593C112 60.4672 108.418 61.8519 104 61.8519ZM48 58.7593C48 60.4672 51.5816 61.8519 56 61.8519C60.4184 61.8519 64 60.4672 64 58.7593C64 57.0512 60.4184 55.6667 56 55.6667C51.5816 55.6667 48 57.0512 48 58.7593ZM8.00002 61.8519C3.58156 61.8519 1.65921e-05 60.4672 1.67852e-05 58.7593C1.69783e-05 57.0512 3.58156 55.6667 8.00002 55.6667C12.4185 55.6667 16 57.0512 16 58.7593C16 60.4672 12.4185 61.8519 8.00002 61.8519ZM144 132.982C144 134.689 147.582 136.074 152 136.074C156.418 136.074 160 134.689 160 132.982C160 131.273 156.418 129.889 152 129.889C147.582 129.889 144 131.273 144 132.982ZM104 136.074C99.5816 136.074 96 134.689 96 132.982C96 131.273 99.5816 129.889 104 129.889C108.418 129.889 112 131.273 112 132.982C112 134.689 108.418 136.074 104 136.074ZM48 132.982C48 134.689 51.5816 136.074 56 136.074C60.4184 136.074 64 134.689 64 132.982C64 131.273 60.4184 129.889 56 129.889C51.5816 129.889 48 131.273 48 132.982ZM8.00002 136.074C3.58155 136.074 8.19948e-06 134.689 8.3926e-06 132.982C8.58572e-06 131.273 3.58155 129.889 8.00002 129.889C12.4185 129.889 16 131.273 16 132.982C16 134.689 12.4185 136.074 8.00002 136.074ZM1104 151.537C1104 153.245 1107.58 154.63 1112 154.63C1116.42 154.63 1120 153.245 1120 151.537C1120 149.829 1116.42 148.444 1112 148.444C1107.58 148.444 1104 149.829 1104 151.537ZM1064 154.63C1059.58 154.63 1056 153.245 1056 151.537C1056 149.829 1059.58 148.444 1064 148.444C1068.42 148.444 1072 149.829 1072 151.537C1072 153.245 1068.42 154.63 1064 154.63ZM1008 151.537C1008 153.245 1011.58 154.63 1016 154.63C1020.42 154.63 1024 153.245 1024 151.537C1024 149.829 1020.42 148.444 1016 148.444C1011.58 148.444 1008 149.829 1008 151.537ZM968 154.63C963.58 154.63 960 153.245 960 151.537C960 149.829 963.58 148.444 968 148.444C972.42 148.444 976 149.829 976 151.537C976 153.245 972.42 154.63 968 154.63ZM1104 170.093C1104 171.801 1107.58 173.185 1112 173.185C1116.42 173.185 1120 171.801 1120 170.093C1120 168.384 1116.42 167 1112 167C1107.58 167 1104 168.384 1104 170.093ZM1064 173.185C1059.58 173.185 1056 171.801 1056 170.093C1056 168.384 1059.58 167 1064 167C1068.42 167 1072 168.384 1072 170.093C1072 171.801 1068.42 173.185 1064 173.185ZM1008 170.093C1008 171.801 1011.58 173.185 1016 173.185C1020.42 173.185 1024 171.801 1024 170.093C1024 168.384 1020.42 167 1016 167C1011.58 167 1008 168.384 1008 170.093ZM968 173.185C963.58 173.185 960 171.801 960 170.093C960 168.384 963.58 167 968 167C972.42 167 976 168.384 976 170.093C976 171.801 972.42 173.185 968 173.185ZM1104 188.648C1104 190.357 1107.58 191.741 1112 191.741C1116.42 191.741 1120 190.357 1120 188.648C1120 186.94 1116.42 185.556 1112 185.556C1107.58 185.556 1104 186.94 1104 188.648ZM1064 191.741C1059.58 191.741 1056 190.357 1056 188.648C1056 186.94 1059.58 185.556 1064 185.556C1068.42 185.556 1072 186.94 1072 188.648C1072 190.357 1068.42 191.741 1064 191.741ZM1008 188.648C1008 190.357 1011.58 191.741 1016 191.741C1020.42 191.741 1024 190.357 1024 188.648C1024 186.94 1020.42 185.556 1016 185.556C1011.58 185.556 1008 186.94 1008 188.648ZM968 191.741C963.58 191.741 960 190.357 960 188.648C960 186.94 963.58 185.556 968 185.556C972.42 185.556 976 186.94 976 188.648C976 190.357 972.42 191.741 968 191.741ZM1104 207.204C1104 208.912 1107.58 210.296 1112 210.296C1116.42 210.296 1120 208.912 1120 207.204C1120 205.495 1116.42 204.111 1112 204.111C1107.58 204.111 1104 205.495 1104 207.204ZM1064 210.296C1059.58 210.296 1056 208.912 1056 207.204C1056 205.495 1059.58 204.111 1064 204.111C1068.42 204.111 1072 205.495 1072 207.204C1072 208.912 1068.42 210.296 1064 210.296ZM1008 207.204C1008 208.912 1011.58 210.296 1016 210.296C1020.42 210.296 1024 208.912 1024 207.204C1024 205.495 1020.42 204.111 1016 204.111C1011.58 204.111 1008 205.495 1008 207.204ZM968 210.296C963.58 210.296 960 208.912 960 207.204C960 205.495 963.58 204.111 968 204.111C972.42 204.111 976 205.495 976 207.204C976 208.912 972.42 210.296 968 210.296ZM912 151.537C912 153.245 915.58 154.63 920 154.63C924.42 154.63 928 153.245 928 151.537C928 149.829 924.42 148.444 920 148.444C915.58 148.444 912 149.829 912 151.537ZM872 154.63C867.58 154.63 864 153.245 864 151.537C864 149.829 867.58 148.444 872 148.444C876.42 148.444 880 149.829 880 151.537C880 153.245 876.42 154.63 872 154.63ZM816 151.537C816 153.245 819.58 154.63 824 154.63C828.42 154.63 832 153.245 832 151.537C832 149.829 828.42 148.444 824 148.444C819.58 148.444 816 149.829 816 151.537ZM776 154.63C771.58 154.63 768 153.245 768 151.537C768 149.829 771.58 148.444 776 148.444C780.42 148.444 784 149.829 784 151.537C784 153.245 780.42 154.63 776 154.63ZM912 170.093C912 171.801 915.58 173.185 920 173.185C924.42 173.185 928 171.801 928 170.093C928 168.384 924.42 167 920 167C915.58 167 912 168.384 912 170.093ZM872 173.185C867.58 173.185 864 171.801 864 170.093C864 168.384 867.58 167 872 167C876.42 167 880 168.384 880 170.093C880 171.801 876.42 173.185 872 173.185ZM816 170.093C816 171.801 819.58 173.185 824 173.185C828.42 173.185 832 171.801 832 170.093C832 168.384 828.42 167 824 167C819.58 167 816 168.384 816 170.093ZM776 173.185C771.58 173.185 768 171.801 768 170.093C768 168.384 771.58 167 776 167C780.42 167 784 168.384 784 170.093C784 171.801 780.42 173.185 776 173.185ZM912 188.648C912 190.357 915.58 191.741 920 191.741C924.42 191.741 928 190.357 928 188.648C928 186.94 924.42 185.556 920 185.556C915.58 185.556 912 186.94 912 188.648ZM872 191.741C867.58 191.741 864 190.357 864 188.648C864 186.94 867.58 185.556 872 185.556C876.42 185.556 880 186.94 880 188.648C880 190.357 876.42 191.741 872 191.741ZM816 188.648C816 190.357 819.58 191.741 824 191.741C828.42 191.741 832 190.357 832 188.648C832 186.94 828.42 185.556 824 185.556C819.58 185.556 816 186.94 816 188.648ZM776 191.741C771.58 191.741 768 190.357 768 188.648C768 186.94 771.58 185.556 776 185.556C780.42 185.556 784 186.94 784 188.648C784 190.357 780.42 191.741 776 191.741ZM912 207.204C912 208.912 915.58 210.296 920 210.296C924.42 210.296 928 208.912 928 207.204C928 205.495 924.42 204.111 920 204.111C915.58 204.111 912 205.495 912 207.204ZM872 210.296C867.58 210.296 864 208.912 864 207.204C864 205.495 867.58 204.111 872 204.111C876.42 204.111 880 205.495 880 207.204C880 208.912 876.42 210.296 872 210.296ZM816 207.204C816 208.912 819.58 210.296 824 210.296C828.42 210.296 832 208.912 832 207.204C832 205.495 828.42 204.111 824 204.111C819.58 204.111 816 205.495 816 207.204ZM776 210.296C771.58 210.296 768 208.912 768 207.204C768 205.495 771.58 204.111 776 204.111C780.42 204.111 784 205.495 784 207.204C784 208.912 780.42 210.296 776 210.296ZM728 154.63C723.58 154.63 720 153.245 720 151.537C720 149.829 723.58 148.444 728 148.444C732.42 148.444 736 149.829 736 151.537C736 153.245 732.42 154.63 728 154.63ZM680 154.63C675.58 154.63 672 153.245 672 151.537C672 149.829 675.58 148.444 680 148.444C684.42 148.444 688 149.829 688 151.537C688 153.245 684.42 154.63 680 154.63ZM624 151.537C624 153.245 627.58 154.63 632 154.63C636.42 154.63 640 153.245 640 151.537C640 149.829 636.42 148.444 632 148.444C627.58 148.444 624 149.829 624 151.537ZM584 154.63C579.58 154.63 576 153.245 576 151.537C576 149.829 579.58 148.444 584 148.444C588.42 148.444 592 149.829 592 151.537C592 153.245 588.42 154.63 584 154.63ZM720 170.093C720 171.801 723.58 173.185 728 173.185C732.42 173.185 736 171.801 736 170.093C736 168.384 732.42 167 728 167C723.58 167 720 168.384 720 170.093ZM680 173.185C675.58 173.185 672 171.801 672 170.093C672 168.384 675.58 167 680 167C684.42 167 688 168.384 688 170.093C688 171.801 684.42 173.185 680 173.185ZM624 170.093C624 171.801 627.58 173.185 632 173.185C636.42 173.185 640 171.801 640 170.093C640 168.384 636.42 167 632 167C627.58 167 624 168.384 624 170.093ZM584 173.185C579.58 173.185 576 171.801 576 170.093C576 168.384 579.58 167 584 167C588.42 167 592 168.384 592 170.093C592 171.801 588.42 173.185 584 173.185ZM720 188.648C720 190.357 723.58 191.741 728 191.741C732.42 191.741 736 190.357 736 188.648C736 186.94 732.42 185.556 728 185.556C723.58 185.556 720 186.94 720 188.648ZM680 191.741C675.58 191.741 672 190.357 672 188.648C672 186.94 675.58 185.556 680 185.556C684.42 185.556 688 186.94 688 188.648C688 190.357 684.42 191.741 680 191.741ZM624 188.648C624 190.357 627.58 191.741 632 191.741C636.42 191.741 640 190.357 640 188.648C640 186.94 636.42 185.556 632 185.556C627.58 185.556 624 186.94 624 188.648ZM584 191.741C579.58 191.741 576 190.357 576 188.648C576 186.94 579.58 185.556 584 185.556C588.42 185.556 592 186.94 592 188.648C592 190.357 588.42 191.741 584 191.741ZM720 207.204C720 208.912 723.58 210.296 728 210.296C732.42 210.296 736 208.912 736 207.204C736 205.495 732.42 204.111 728 204.111C723.58 204.111 720 205.495 720 207.204ZM680 210.296C675.58 210.296 672 208.912 672 207.204C672 205.495 675.58 204.111 680 204.111C684.42 204.111 688 205.495 688 207.204C688 208.912 684.42 210.296 680 210.296ZM624 207.204C624 208.912 627.58 210.296 632 210.296C636.42 210.296 640 208.912 640 207.204C640 205.495 636.42 204.111 632 204.111C627.58 204.111 624 205.495 624 207.204ZM584 210.296C579.58 210.296 576 208.912 576 207.204C576 205.495 579.58 204.111 584 204.111C588.42 204.111 592 205.495 592 207.204C592 208.912 588.42 210.296 584 210.296ZM528 151.537C528 153.245 531.58 154.63 536 154.63C540.42 154.63 544 153.245 544 151.537C544 149.829 540.42 148.444 536 148.444C531.58 148.444 528 149.829 528 151.537ZM488 154.63C483.58 154.63 480 153.245 480 151.537C480 149.829 483.58 148.444 488 148.444C492.42 148.444 496 149.829 496 151.537C496 153.245 492.42 154.63 488 154.63ZM432 151.537C432 153.245 435.58 154.63 440 154.63C444.42 154.63 448 153.245 448 151.537C448 149.829 444.42 148.444 440 148.444C435.58 148.444 432 149.829 432 151.537ZM392 154.63C387.582 154.63 384 153.245 384 151.537C384 149.829 387.582 148.444 392 148.444C396.418 148.444 400 149.829 400 151.537C400 153.245 396.418 154.63 392 154.63ZM528 170.093C528 171.801 531.58 173.185 536 173.185C540.42 173.185 544 171.801 544 170.093C544 168.384 540.42 167 536 167C531.58 167 528 168.384 528 170.093ZM488 173.185C483.58 173.185 480 171.801 480 170.093C480 168.384 483.58 167 488 167C492.42 167 496 168.384 496 170.093C496 171.801 492.42 173.185 488 173.185ZM432 170.093C432 171.801 435.58 173.185 440 173.185C444.42 173.185 448 171.801 448 170.093C448 168.384 444.42 167 440 167C435.58 167 432 168.384 432 170.093ZM392 173.185C387.582 173.185 384 171.801 384 170.093C384 168.384 387.582 167 392 167C396.418 167 400 168.384 400 170.093C400 171.801 396.418 173.185 392 173.185ZM528 188.648C528 190.357 531.58 191.741 536 191.741C540.42 191.741 544 190.357 544 188.648C544 186.94 540.42 185.556 536 185.556C531.58 185.556 528 186.94 528 188.648ZM488 191.741C483.58 191.741 480 190.357 480 188.648C480 186.94 483.58 185.556 488 185.556C492.42 185.556 496 186.94 496 188.648C496 190.357 492.42 191.741 488 191.741ZM432 188.648C432 190.357 435.58 191.741 440 191.741C444.42 191.741 448 190.357 448 188.648C448 186.94 444.42 185.556 440 185.556C435.58 185.556 432 186.94 432 188.648ZM392 191.741C387.582 191.741 384 190.357 384 188.648C384 186.94 387.582 185.556 392 185.556C396.418 185.556 400 186.94 400 188.648C400 190.357 396.418 191.741 392 191.741ZM528 207.204C528 208.912 531.58 210.296 536 210.296C540.42 210.296 544 208.912 544 207.204C544 205.495 540.42 204.111 536 204.111C531.58 204.111 528 205.495 528 207.204ZM488 210.296C483.58 210.296 480 208.912 480 207.204C480 205.495 483.58 204.111 488 204.111C492.42 204.111 496 205.495 496 207.204C496 208.912 492.42 210.296 488 210.296ZM432 207.204C432 208.912 435.58 210.296 440 210.296C444.42 210.296 448 208.912 448 207.204C448 205.495 444.42 204.111 440 204.111C435.58 204.111 432 205.495 432 207.204ZM392 210.296C387.582 210.296 384 208.912 384 207.204C384 205.495 387.582 204.111 392 204.111C396.418 204.111 400 205.495 400 207.204C400 208.912 396.418 210.296 392 210.296ZM336 151.537C336 153.245 339.582 154.63 344 154.63C348.418 154.63 352 153.245 352 151.537C352 149.829 348.418 148.444 344 148.444C339.582 148.444 336 149.829 336 151.537ZM296 154.63C291.582 154.63 288 153.245 288 151.537C288 149.829 291.582 148.444 296 148.444C300.418 148.444 304 149.829 304 151.537C304 153.245 300.418 154.63 296 154.63ZM240 151.537C240 153.245 243.582 154.63 248 154.63C252.418 154.63 256 153.245 256 151.537C256 149.829 252.418 148.444 248 148.444C243.582 148.444 240 149.829 240 151.537ZM200 154.63C195.582 154.63 192 153.245 192 151.537C192 149.829 195.582 148.444 200 148.444C204.418 148.444 208 149.829 208 151.537C208 153.245 204.418 154.63 200 154.63ZM336 170.093C336 171.801 339.582 173.185 344 173.185C348.418 173.185 352 171.801 352 170.093C352 168.384 348.418 167 344 167C339.582 167 336 168.384 336 170.093ZM296 173.185C291.582 173.185 288 171.801 288 170.093C288 168.384 291.582 167 296 167C300.418 167 304 168.384 304 170.093C304 171.801 300.418 173.185 296 173.185ZM240 170.093C240 171.801 243.582 173.185 248 173.185C252.418 173.185 256 171.801 256 170.093C256 168.384 252.418 167 248 167C243.582 167 240 168.384 240 170.093ZM200 173.185C195.582 173.185 192 171.801 192 170.093C192 168.384 195.582 167 200 167C204.418 167 208 168.384 208 170.093C208 171.801 204.418 173.185 200 173.185ZM336 188.648C336 190.357 339.582 191.741 344 191.741C348.418 191.741 352 190.357 352 188.648C352 186.94 348.418 185.556 344 185.556C339.582 185.556 336 186.94 336 188.648ZM296 191.741C291.582 191.741 288 190.357 288 188.648C288 186.94 291.582 185.556 296 185.556C300.418 185.556 304 186.94 304 188.648C304 190.357 300.418 191.741 296 191.741ZM240 188.648C240 190.357 243.582 191.741 248 191.741C252.418 191.741 256 190.357 256 188.648C256 186.94 252.418 185.556 248 185.556C243.582 185.556 240 186.94 240 188.648ZM200 191.741C195.582 191.741 192 190.357 192 188.648C192 186.94 195.582 185.556 200 185.556C204.418 185.556 208 186.94 208 188.648C208 190.357 204.418 191.741 200 191.741ZM336 207.204C336 208.912 339.582 210.296 344 210.296C348.418 210.296 352 208.912 352 207.204C352 205.495 348.418 204.111 344 204.111C339.582 204.111 336 205.495 336 207.204ZM296 210.296C291.582 210.296 288 208.912 288 207.204C288 205.495 291.582 204.111 296 204.111C300.418 204.111 304 205.495 304 207.204C304 208.912 300.418 210.296 296 210.296ZM240 207.204C240 208.912 243.582 210.296 248 210.296C252.418 210.296 256 208.912 256 207.204C256 205.495 252.418 204.111 248 204.111C243.582 204.111 240 205.495 240 207.204ZM200 210.296C195.582 210.296 192 208.912 192 207.204C192 205.495 195.582 204.111 200 204.111C204.418 204.111 208 205.495 208 207.204C208 208.912 204.418 210.296 200 210.296ZM144 151.537C144 153.245 147.582 154.63 152 154.63C156.418 154.63 160 153.245 160 151.537C160 149.829 156.418 148.444 152 148.444C147.582 148.444 144 149.829 144 151.537ZM104 154.63C99.5816 154.63 96 153.245 96 151.537C96 149.829 99.5816 148.444 104 148.444C108.418 148.444 112 149.829 112 151.537C112 153.245 108.418 154.63 104 154.63ZM48 151.537C48 153.245 51.5816 154.63 56 154.63C60.4184 154.63 64 153.245 64 151.537C64 149.829 60.4184 148.444 56 148.444C51.5816 148.444 48 149.829 48 151.537ZM8.00002 154.63C3.58155 154.63 6.10132e-06 153.245 6.29444e-06 151.537C6.4876e-06 149.829 3.58155 148.444 8.00002 148.444C12.4185 148.444 16 149.829 16 151.537C16 153.245 12.4185 154.63 8.00002 154.63ZM144 170.093C144 171.801 147.582 173.185 152 173.185C156.418 173.185 160 171.801 160 170.093C160 168.384 156.418 167 152 167C147.582 167 144 168.384 144 170.093ZM104 173.185C99.5816 173.185 96 171.801 96 170.093C96 168.384 99.5816 167 104 167C108.418 167 112 168.384 112 170.093C112 171.801 108.418 173.185 104 173.185ZM48 170.093C48 171.801 51.5816 173.185 56 173.185C60.4184 173.185 64 171.801 64 170.093C64 168.384 60.4184 167 56 167C51.5816 167 48 168.384 48 170.093ZM8.00002 173.185C3.58155 173.185 4.0032e-06 171.801 4.19632e-06 170.093C4.38944e-06 168.384 3.58155 167 8.00002 167C12.4185 167 16 168.384 16 170.093C16 171.801 12.4185 173.185 8.00002 173.185ZM144 188.648C144 190.357 147.582 191.741 152 191.741C156.418 191.741 160 190.357 160 188.648C160 186.94 156.418 185.556 152 185.556C147.582 185.556 144 186.94 144 188.648ZM104 191.741C99.5816 191.741 96 190.357 96 188.648C96 186.94 99.5816 185.556 104 185.556C108.418 185.556 112 186.94 112 188.648C112 190.357 108.418 191.741 104 191.741ZM48 188.648C48 190.357 51.5816 191.741 56 191.741C60.4184 191.741 64 190.357 64 188.648C64 186.94 60.4184 185.556 56 185.556C51.5816 185.556 48 186.94 48 188.648ZM7.99998 191.741C3.58154 191.741 1.90504e-06 190.357 2.09816e-06 188.648C2.29128e-06 186.94 3.58154 185.556 7.99998 185.556C12.4185 185.556 16 186.94 16 188.648C16 190.357 12.4185 191.741 7.99998 191.741ZM144 207.204C144 208.912 147.582 210.296 152 210.296C156.418 210.296 160 208.912 160 207.204C160 205.495 156.418 204.111 152 204.111C147.582 204.111 144 205.495 144 207.204ZM104 210.296C99.5816 210.296 96 208.912 96 207.204C96 205.495 99.5816 204.111 104 204.111C108.418 204.111 112 205.495 112 207.204C112 208.912 108.418 210.296 104 210.296ZM48 207.204C48 208.912 51.5816 210.296 56 210.296C60.4184 210.296 64 208.912 64 207.204C64 205.495 60.4184 204.111 56 204.111C51.5816 204.111 48 205.495 48 207.204ZM7.99998 210.296C3.58154 210.296 -1.9312e-07 208.912 0 207.204C1.9316e-07 205.495 3.58154 204.111 7.99998 204.111C12.4185 204.111 16 205.495 16 207.204C16 208.912 12.4185 210.296 7.99998 210.296Z" fill="#FEF5E4"/>
<path opacity="0.32" d="M956 210.296H700C682.327 210.296 668 215.835 668 222.667V321.63C668 328.462 682.327 334 700 334H956C973.673 334 988 328.462 988 321.63V222.667C988 215.835 973.673 210.296 956 210.296Z" fill="url(#paint0_linear)"/>
<path opacity="0.16" d="M800 86.5928H224C206.327 86.5928 192 92.1312 192 98.9631V321.63C192 328.462 206.327 334 224 334H800C817.673 334 832 328.462 832 321.63V98.9631C832 92.1312 817.673 86.5928 800 86.5928Z" fill="url(#paint1_linear)"/>
<defs>
<linearGradient id="paint0_linear" x1="828" y1="210.296" x2="828" y2="334" gradientUnits="userSpaceOnUse">
<stop stop-color="#FEB555"/>
<stop offset="1" stop-color="#FEB555" stop-opacity="0"/>
</linearGradient>
<linearGradient id="paint1_linear" x1="512" y1="86.5928" x2="512" y2="334" gradientUnits="userSpaceOnUse">
<stop stop-color="#FEB555"/>
<stop offset="1" stop-color="#FEB555" stop-opacity="0"/>
</linearGradient>
</defs>
</svg>
